<mxfile host="app.diagrams.net" agent="Mozilla/5.0 (Windows NT 10.0; Win64; x64) AppleWebKit/537.36 (KHTML, like Gecko) Chrome/141.0.0.0 Safari/537.36" version="28.2.5">
  <diagram name="Page-1" id="LnfdQNhDFXMSPC-WTUYB">
    <mxGraphModel dx="2454" dy="1191" grid="1" gridSize="10" guides="1" tooltips="1" connect="1" arrows="1" fold="1" page="1" pageScale="1" pageWidth="850" pageHeight="1100" math="0" shadow="0">
      <root>
        <mxCell id="0" />
        <mxCell id="1" parent="0" />
        <mxCell id="zRi4qjUtURZeb13-JNOz-215" value="" style="swimlane;startSize=0;strokeColor=#788AA3;fontColor=#46495D;fillColor=#B2C9AB;" vertex="1" parent="1">
          <mxGeometry width="770" height="600" as="geometry" />
        </mxCell>
        <mxCell id="zRi4qjUtURZeb13-JNOz-116" value="users" style="shape=table;startSize=30;container=1;collapsible=1;childLayout=tableLayout;fixedRows=1;rowLines=0;fontStyle=1;align=center;resizeLast=1;html=1;labelBackgroundColor=none;fillColor=#B2C9AB;strokeColor=#788AA3;fontColor=#46495D;" vertex="1" parent="zRi4qjUtURZeb13-JNOz-215">
          <mxGeometry x="290" y="54" width="180" height="180" as="geometry">
            <mxRectangle x="330" y="80" width="70" height="30" as="alternateBounds" />
          </mxGeometry>
        </mxCell>
        <mxCell id="zRi4qjUtURZeb13-JNOz-117" value="" style="shape=tableRow;horizontal=0;startSize=0;swimlaneHead=0;swimlaneBody=0;fillColor=none;collapsible=0;dropTarget=0;points=[[0,0.5],[1,0.5]];portConstraint=eastwest;top=0;left=0;right=0;bottom=1;labelBackgroundColor=none;strokeColor=#788AA3;fontColor=#46495D;" vertex="1" parent="zRi4qjUtURZeb13-JNOz-116">
          <mxGeometry y="30" width="180" height="30" as="geometry" />
        </mxCell>
        <mxCell id="zRi4qjUtURZeb13-JNOz-118" value="PK" style="shape=partialRectangle;connectable=0;fillColor=none;top=0;left=0;bottom=0;right=0;fontStyle=1;overflow=hidden;whiteSpace=wrap;html=1;labelBackgroundColor=none;strokeColor=#788AA3;fontColor=#46495D;" vertex="1" parent="zRi4qjUtURZeb13-JNOz-117">
          <mxGeometry width="30" height="30" as="geometry">
            <mxRectangle width="30" height="30" as="alternateBounds" />
          </mxGeometry>
        </mxCell>
        <mxCell id="zRi4qjUtURZeb13-JNOz-119" value="id" style="shape=partialRectangle;connectable=0;fillColor=none;top=0;left=0;bottom=0;right=0;align=left;spacingLeft=6;fontStyle=5;overflow=hidden;whiteSpace=wrap;html=1;labelBackgroundColor=none;strokeColor=#788AA3;fontColor=#46495D;" vertex="1" parent="zRi4qjUtURZeb13-JNOz-117">
          <mxGeometry x="30" width="150" height="30" as="geometry">
            <mxRectangle width="150" height="30" as="alternateBounds" />
          </mxGeometry>
        </mxCell>
        <mxCell id="zRi4qjUtURZeb13-JNOz-120" value="" style="shape=tableRow;horizontal=0;startSize=0;swimlaneHead=0;swimlaneBody=0;fillColor=none;collapsible=0;dropTarget=0;points=[[0,0.5],[1,0.5]];portConstraint=eastwest;top=0;left=0;right=0;bottom=0;labelBackgroundColor=none;strokeColor=#788AA3;fontColor=#46495D;" vertex="1" parent="zRi4qjUtURZeb13-JNOz-116">
          <mxGeometry y="60" width="180" height="30" as="geometry" />
        </mxCell>
        <mxCell id="zRi4qjUtURZeb13-JNOz-121" value="" style="shape=partialRectangle;connectable=0;fillColor=none;top=0;left=0;bottom=0;right=0;editable=1;overflow=hidden;whiteSpace=wrap;html=1;labelBackgroundColor=none;strokeColor=#788AA3;fontColor=#46495D;" vertex="1" parent="zRi4qjUtURZeb13-JNOz-120">
          <mxGeometry width="30" height="30" as="geometry">
            <mxRectangle width="30" height="30" as="alternateBounds" />
          </mxGeometry>
        </mxCell>
        <mxCell id="zRi4qjUtURZeb13-JNOz-122" value="username" style="shape=partialRectangle;connectable=0;fillColor=none;top=0;left=0;bottom=0;right=0;align=left;spacingLeft=6;overflow=hidden;whiteSpace=wrap;html=1;labelBackgroundColor=none;strokeColor=#788AA3;fontColor=#46495D;" vertex="1" parent="zRi4qjUtURZeb13-JNOz-120">
          <mxGeometry x="30" width="150" height="30" as="geometry">
            <mxRectangle width="150" height="30" as="alternateBounds" />
          </mxGeometry>
        </mxCell>
        <mxCell id="zRi4qjUtURZeb13-JNOz-123" value="" style="shape=tableRow;horizontal=0;startSize=0;swimlaneHead=0;swimlaneBody=0;fillColor=none;collapsible=0;dropTarget=0;points=[[0,0.5],[1,0.5]];portConstraint=eastwest;top=0;left=0;right=0;bottom=0;labelBackgroundColor=none;strokeColor=#788AA3;fontColor=#46495D;" vertex="1" parent="zRi4qjUtURZeb13-JNOz-116">
          <mxGeometry y="90" width="180" height="30" as="geometry" />
        </mxCell>
        <mxCell id="zRi4qjUtURZeb13-JNOz-124" value="" style="shape=partialRectangle;connectable=0;fillColor=none;top=0;left=0;bottom=0;right=0;editable=1;overflow=hidden;whiteSpace=wrap;html=1;labelBackgroundColor=none;strokeColor=#788AA3;fontColor=#46495D;" vertex="1" parent="zRi4qjUtURZeb13-JNOz-123">
          <mxGeometry width="30" height="30" as="geometry">
            <mxRectangle width="30" height="30" as="alternateBounds" />
          </mxGeometry>
        </mxCell>
        <mxCell id="zRi4qjUtURZeb13-JNOz-125" value="password" style="shape=partialRectangle;connectable=0;fillColor=none;top=0;left=0;bottom=0;right=0;align=left;spacingLeft=6;overflow=hidden;whiteSpace=wrap;html=1;labelBackgroundColor=none;strokeColor=#788AA3;fontColor=#46495D;" vertex="1" parent="zRi4qjUtURZeb13-JNOz-123">
          <mxGeometry x="30" width="150" height="30" as="geometry">
            <mxRectangle width="150" height="30" as="alternateBounds" />
          </mxGeometry>
        </mxCell>
        <mxCell id="zRi4qjUtURZeb13-JNOz-126" value="" style="shape=tableRow;horizontal=0;startSize=0;swimlaneHead=0;swimlaneBody=0;fillColor=none;collapsible=0;dropTarget=0;points=[[0,0.5],[1,0.5]];portConstraint=eastwest;top=0;left=0;right=0;bottom=0;labelBackgroundColor=none;strokeColor=#788AA3;fontColor=#46495D;" vertex="1" parent="zRi4qjUtURZeb13-JNOz-116">
          <mxGeometry y="120" width="180" height="30" as="geometry" />
        </mxCell>
        <mxCell id="zRi4qjUtURZeb13-JNOz-127" value="" style="shape=partialRectangle;connectable=0;fillColor=none;top=0;left=0;bottom=0;right=0;editable=1;overflow=hidden;whiteSpace=wrap;html=1;labelBackgroundColor=none;strokeColor=#788AA3;fontColor=#46495D;" vertex="1" parent="zRi4qjUtURZeb13-JNOz-126">
          <mxGeometry width="30" height="30" as="geometry">
            <mxRectangle width="30" height="30" as="alternateBounds" />
          </mxGeometry>
        </mxCell>
        <mxCell id="zRi4qjUtURZeb13-JNOz-128" value="role" style="shape=partialRectangle;connectable=0;fillColor=none;top=0;left=0;bottom=0;right=0;align=left;spacingLeft=6;overflow=hidden;whiteSpace=wrap;html=1;labelBackgroundColor=none;strokeColor=#788AA3;fontColor=#46495D;" vertex="1" parent="zRi4qjUtURZeb13-JNOz-126">
          <mxGeometry x="30" width="150" height="30" as="geometry">
            <mxRectangle width="150" height="30" as="alternateBounds" />
          </mxGeometry>
        </mxCell>
        <mxCell id="zRi4qjUtURZeb13-JNOz-527" style="shape=tableRow;horizontal=0;startSize=0;swimlaneHead=0;swimlaneBody=0;fillColor=none;collapsible=0;dropTarget=0;points=[[0,0.5],[1,0.5]];portConstraint=eastwest;top=0;left=0;right=0;bottom=0;labelBackgroundColor=none;strokeColor=#788AA3;fontColor=#46495D;" vertex="1" parent="zRi4qjUtURZeb13-JNOz-116">
          <mxGeometry y="150" width="180" height="30" as="geometry" />
        </mxCell>
        <mxCell id="zRi4qjUtURZeb13-JNOz-528" style="shape=partialRectangle;connectable=0;fillColor=none;top=0;left=0;bottom=0;right=0;editable=1;overflow=hidden;whiteSpace=wrap;html=1;labelBackgroundColor=none;strokeColor=#788AA3;fontColor=#46495D;" vertex="1" parent="zRi4qjUtURZeb13-JNOz-527">
          <mxGeometry width="30" height="30" as="geometry">
            <mxRectangle width="30" height="30" as="alternateBounds" />
          </mxGeometry>
        </mxCell>
        <mxCell id="zRi4qjUtURZeb13-JNOz-529" value="created_at" style="shape=partialRectangle;connectable=0;fillColor=none;top=0;left=0;bottom=0;right=0;align=left;spacingLeft=6;overflow=hidden;whiteSpace=wrap;html=1;labelBackgroundColor=none;strokeColor=#788AA3;fontColor=#46495D;" vertex="1" parent="zRi4qjUtURZeb13-JNOz-527">
          <mxGeometry x="30" width="150" height="30" as="geometry">
            <mxRectangle width="150" height="30" as="alternateBounds" />
          </mxGeometry>
        </mxCell>
        <mxCell id="zRi4qjUtURZeb13-JNOz-129" value="books" style="shape=table;startSize=30;container=1;collapsible=1;childLayout=tableLayout;fixedRows=1;rowLines=0;fontStyle=1;align=center;resizeLast=1;html=1;labelBackgroundColor=none;fillColor=#B2C9AB;strokeColor=#788AA3;fontColor=#46495D;" vertex="1" parent="zRi4qjUtURZeb13-JNOz-215">
          <mxGeometry x="290" y="254" width="210" height="330" as="geometry" />
        </mxCell>
        <mxCell id="zRi4qjUtURZeb13-JNOz-130" value="" style="shape=tableRow;horizontal=0;startSize=0;swimlaneHead=0;swimlaneBody=0;fillColor=none;collapsible=0;dropTarget=0;points=[[0,0.5],[1,0.5]];portConstraint=eastwest;top=0;left=0;right=0;bottom=1;labelBackgroundColor=none;strokeColor=#788AA3;fontColor=#46495D;" vertex="1" parent="zRi4qjUtURZeb13-JNOz-129">
          <mxGeometry y="30" width="210" height="30" as="geometry" />
        </mxCell>
        <mxCell id="zRi4qjUtURZeb13-JNOz-131" value="PK" style="shape=partialRectangle;connectable=0;fillColor=none;top=0;left=0;bottom=0;right=0;fontStyle=1;overflow=hidden;whiteSpace=wrap;html=1;labelBackgroundColor=none;strokeColor=#788AA3;fontColor=#46495D;" vertex="1" parent="zRi4qjUtURZeb13-JNOz-130">
          <mxGeometry width="30" height="30" as="geometry">
            <mxRectangle width="30" height="30" as="alternateBounds" />
          </mxGeometry>
        </mxCell>
        <mxCell id="zRi4qjUtURZeb13-JNOz-132" value="id" style="shape=partialRectangle;connectable=0;fillColor=none;top=0;left=0;bottom=0;right=0;align=left;spacingLeft=6;fontStyle=5;overflow=hidden;whiteSpace=wrap;html=1;labelBackgroundColor=none;strokeColor=#788AA3;fontColor=#46495D;" vertex="1" parent="zRi4qjUtURZeb13-JNOz-130">
          <mxGeometry x="30" width="180" height="30" as="geometry">
            <mxRectangle width="180" height="30" as="alternateBounds" />
          </mxGeometry>
        </mxCell>
        <mxCell id="zRi4qjUtURZeb13-JNOz-133" value="" style="shape=tableRow;horizontal=0;startSize=0;swimlaneHead=0;swimlaneBody=0;fillColor=none;collapsible=0;dropTarget=0;points=[[0,0.5],[1,0.5]];portConstraint=eastwest;top=0;left=0;right=0;bottom=0;labelBackgroundColor=none;strokeColor=#788AA3;fontColor=#46495D;" vertex="1" parent="zRi4qjUtURZeb13-JNOz-129">
          <mxGeometry y="60" width="210" height="30" as="geometry" />
        </mxCell>
        <mxCell id="zRi4qjUtURZeb13-JNOz-134" value="" style="shape=partialRectangle;connectable=0;fillColor=none;top=0;left=0;bottom=0;right=0;editable=1;overflow=hidden;whiteSpace=wrap;html=1;labelBackgroundColor=none;strokeColor=#788AA3;fontColor=#46495D;" vertex="1" parent="zRi4qjUtURZeb13-JNOz-133">
          <mxGeometry width="30" height="30" as="geometry">
            <mxRectangle width="30" height="30" as="alternateBounds" />
          </mxGeometry>
        </mxCell>
        <mxCell id="zRi4qjUtURZeb13-JNOz-135" value="title" style="shape=partialRectangle;connectable=0;fillColor=none;top=0;left=0;bottom=0;right=0;align=left;spacingLeft=6;overflow=hidden;whiteSpace=wrap;html=1;labelBackgroundColor=none;strokeColor=#788AA3;fontColor=#46495D;" vertex="1" parent="zRi4qjUtURZeb13-JNOz-133">
          <mxGeometry x="30" width="180" height="30" as="geometry">
            <mxRectangle width="180" height="30" as="alternateBounds" />
          </mxGeometry>
        </mxCell>
        <mxCell id="zRi4qjUtURZeb13-JNOz-136" value="" style="shape=tableRow;horizontal=0;startSize=0;swimlaneHead=0;swimlaneBody=0;fillColor=none;collapsible=0;dropTarget=0;points=[[0,0.5],[1,0.5]];portConstraint=eastwest;top=0;left=0;right=0;bottom=0;labelBackgroundColor=none;strokeColor=#788AA3;fontColor=#46495D;" vertex="1" parent="zRi4qjUtURZeb13-JNOz-129">
          <mxGeometry y="90" width="210" height="30" as="geometry" />
        </mxCell>
        <mxCell id="zRi4qjUtURZeb13-JNOz-137" value="" style="shape=partialRectangle;connectable=0;fillColor=none;top=0;left=0;bottom=0;right=0;editable=1;overflow=hidden;whiteSpace=wrap;html=1;labelBackgroundColor=none;strokeColor=#788AA3;fontColor=#46495D;" vertex="1" parent="zRi4qjUtURZeb13-JNOz-136">
          <mxGeometry width="30" height="30" as="geometry">
            <mxRectangle width="30" height="30" as="alternateBounds" />
          </mxGeometry>
        </mxCell>
        <mxCell id="zRi4qjUtURZeb13-JNOz-138" value="writer" style="shape=partialRectangle;connectable=0;fillColor=none;top=0;left=0;bottom=0;right=0;align=left;spacingLeft=6;overflow=hidden;whiteSpace=wrap;html=1;labelBackgroundColor=none;strokeColor=#788AA3;fontColor=#46495D;" vertex="1" parent="zRi4qjUtURZeb13-JNOz-136">
          <mxGeometry x="30" width="180" height="30" as="geometry">
            <mxRectangle width="180" height="30" as="alternateBounds" />
          </mxGeometry>
        </mxCell>
        <mxCell id="zRi4qjUtURZeb13-JNOz-139" value="" style="shape=tableRow;horizontal=0;startSize=0;swimlaneHead=0;swimlaneBody=0;fillColor=none;collapsible=0;dropTarget=0;points=[[0,0.5],[1,0.5]];portConstraint=eastwest;top=0;left=0;right=0;bottom=0;labelBackgroundColor=none;strokeColor=#788AA3;fontColor=#46495D;" vertex="1" parent="zRi4qjUtURZeb13-JNOz-129">
          <mxGeometry y="120" width="210" height="40" as="geometry" />
        </mxCell>
        <mxCell id="zRi4qjUtURZeb13-JNOz-140" value="" style="shape=partialRectangle;connectable=0;fillColor=none;top=0;left=0;bottom=0;right=0;editable=1;overflow=hidden;whiteSpace=wrap;html=1;labelBackgroundColor=none;strokeColor=#788AA3;fontColor=#46495D;" vertex="1" parent="zRi4qjUtURZeb13-JNOz-139">
          <mxGeometry width="30" height="40" as="geometry">
            <mxRectangle width="30" height="40" as="alternateBounds" />
          </mxGeometry>
        </mxCell>
        <mxCell id="zRi4qjUtURZeb13-JNOz-141" value="&lt;font&gt;file_mime_type &lt;i&gt;(application/epub+zip)&lt;/i&gt;&lt;/font&gt;" style="shape=partialRectangle;connectable=0;fillColor=none;top=0;left=0;bottom=0;right=0;align=left;spacingLeft=6;overflow=hidden;whiteSpace=wrap;html=1;labelBackgroundColor=none;strokeColor=#788AA3;fontColor=#46495D;" vertex="1" parent="zRi4qjUtURZeb13-JNOz-139">
          <mxGeometry x="30" width="180" height="40" as="geometry">
            <mxRectangle width="180" height="40" as="alternateBounds" />
          </mxGeometry>
        </mxCell>
        <mxCell id="zRi4qjUtURZeb13-JNOz-142" style="shape=tableRow;horizontal=0;startSize=0;swimlaneHead=0;swimlaneBody=0;fillColor=none;collapsible=0;dropTarget=0;points=[[0,0.5],[1,0.5]];portConstraint=eastwest;top=0;left=0;right=0;bottom=0;labelBackgroundColor=none;strokeColor=#788AA3;fontColor=#46495D;" vertex="1" parent="zRi4qjUtURZeb13-JNOz-129">
          <mxGeometry y="160" width="210" height="40" as="geometry" />
        </mxCell>
        <mxCell id="zRi4qjUtURZeb13-JNOz-143" style="shape=partialRectangle;connectable=0;fillColor=none;top=0;left=0;bottom=0;right=0;editable=1;overflow=hidden;whiteSpace=wrap;html=1;labelBackgroundColor=none;strokeColor=#788AA3;fontColor=#46495D;" vertex="1" parent="zRi4qjUtURZeb13-JNOz-142">
          <mxGeometry width="30" height="40" as="geometry">
            <mxRectangle width="30" height="40" as="alternateBounds" />
          </mxGeometry>
        </mxCell>
        <mxCell id="zRi4qjUtURZeb13-JNOz-144" value="file_path&lt;div&gt;&lt;i&gt;(./assets/epub/file_name.epub)&lt;/i&gt;&lt;/div&gt;" style="shape=partialRectangle;connectable=0;fillColor=none;top=0;left=0;bottom=0;right=0;align=left;spacingLeft=6;overflow=hidden;whiteSpace=wrap;html=1;labelBackgroundColor=none;strokeColor=#788AA3;fontColor=#46495D;" vertex="1" parent="zRi4qjUtURZeb13-JNOz-142">
          <mxGeometry x="30" width="180" height="40" as="geometry">
            <mxRectangle width="180" height="40" as="alternateBounds" />
          </mxGeometry>
        </mxCell>
        <mxCell id="zRi4qjUtURZeb13-JNOz-145" style="shape=tableRow;horizontal=0;startSize=0;swimlaneHead=0;swimlaneBody=0;fillColor=none;collapsible=0;dropTarget=0;points=[[0,0.5],[1,0.5]];portConstraint=eastwest;top=0;left=0;right=0;bottom=0;labelBackgroundColor=none;strokeColor=#788AA3;fontColor=#46495D;" vertex="1" parent="zRi4qjUtURZeb13-JNOz-129">
          <mxGeometry y="200" width="210" height="30" as="geometry" />
        </mxCell>
        <mxCell id="zRi4qjUtURZeb13-JNOz-146" style="shape=partialRectangle;connectable=0;fillColor=none;top=0;left=0;bottom=0;right=0;editable=1;overflow=hidden;whiteSpace=wrap;html=1;labelBackgroundColor=none;strokeColor=#788AA3;fontColor=#46495D;" vertex="1" parent="zRi4qjUtURZeb13-JNOz-145">
          <mxGeometry width="30" height="30" as="geometry">
            <mxRectangle width="30" height="30" as="alternateBounds" />
          </mxGeometry>
        </mxCell>
        <mxCell id="zRi4qjUtURZeb13-JNOz-147" value="cover_file_name" style="shape=partialRectangle;connectable=0;fillColor=none;top=0;left=0;bottom=0;right=0;align=left;spacingLeft=6;overflow=hidden;whiteSpace=wrap;html=1;labelBackgroundColor=none;strokeColor=#788AA3;fontColor=#46495D;" vertex="1" parent="zRi4qjUtURZeb13-JNOz-145">
          <mxGeometry x="30" width="180" height="30" as="geometry">
            <mxRectangle width="180" height="30" as="alternateBounds" />
          </mxGeometry>
        </mxCell>
        <mxCell id="zRi4qjUtURZeb13-JNOz-148" style="shape=tableRow;horizontal=0;startSize=0;swimlaneHead=0;swimlaneBody=0;fillColor=none;collapsible=0;dropTarget=0;points=[[0,0.5],[1,0.5]];portConstraint=eastwest;top=0;left=0;right=0;bottom=0;labelBackgroundColor=none;strokeColor=#788AA3;fontColor=#46495D;" vertex="1" parent="zRi4qjUtURZeb13-JNOz-129">
          <mxGeometry y="230" width="210" height="40" as="geometry" />
        </mxCell>
        <mxCell id="zRi4qjUtURZeb13-JNOz-149" style="shape=partialRectangle;connectable=0;fillColor=none;top=0;left=0;bottom=0;right=0;editable=1;overflow=hidden;whiteSpace=wrap;html=1;labelBackgroundColor=none;strokeColor=#788AA3;fontColor=#46495D;" vertex="1" parent="zRi4qjUtURZeb13-JNOz-148">
          <mxGeometry width="30" height="40" as="geometry">
            <mxRectangle width="30" height="40" as="alternateBounds" />
          </mxGeometry>
        </mxCell>
        <mxCell id="zRi4qjUtURZeb13-JNOz-150" value="cover-mime_type&lt;div&gt;&lt;i&gt;(image/jpg)&lt;/i&gt;&lt;/div&gt;" style="shape=partialRectangle;connectable=0;fillColor=none;top=0;left=0;bottom=0;right=0;align=left;spacingLeft=6;overflow=hidden;whiteSpace=wrap;html=1;labelBackgroundColor=none;strokeColor=#788AA3;fontColor=#46495D;" vertex="1" parent="zRi4qjUtURZeb13-JNOz-148">
          <mxGeometry x="30" width="180" height="40" as="geometry">
            <mxRectangle width="180" height="40" as="alternateBounds" />
          </mxGeometry>
        </mxCell>
        <mxCell id="zRi4qjUtURZeb13-JNOz-151" style="shape=tableRow;horizontal=0;startSize=0;swimlaneHead=0;swimlaneBody=0;fillColor=none;collapsible=0;dropTarget=0;points=[[0,0.5],[1,0.5]];portConstraint=eastwest;top=0;left=0;right=0;bottom=0;labelBackgroundColor=none;strokeColor=#788AA3;fontColor=#46495D;" vertex="1" parent="zRi4qjUtURZeb13-JNOz-129">
          <mxGeometry y="270" width="210" height="30" as="geometry" />
        </mxCell>
        <mxCell id="zRi4qjUtURZeb13-JNOz-152" style="shape=partialRectangle;connectable=0;fillColor=none;top=0;left=0;bottom=0;right=0;editable=1;overflow=hidden;whiteSpace=wrap;html=1;labelBackgroundColor=none;strokeColor=#788AA3;fontColor=#46495D;" vertex="1" parent="zRi4qjUtURZeb13-JNOz-151">
          <mxGeometry width="30" height="30" as="geometry">
            <mxRectangle width="30" height="30" as="alternateBounds" />
          </mxGeometry>
        </mxCell>
        <mxCell id="zRi4qjUtURZeb13-JNOz-153" value="cover" style="shape=partialRectangle;connectable=0;fillColor=none;top=0;left=0;bottom=0;right=0;align=left;spacingLeft=6;overflow=hidden;whiteSpace=wrap;html=1;labelBackgroundColor=none;strokeColor=#788AA3;fontColor=#46495D;" vertex="1" parent="zRi4qjUtURZeb13-JNOz-151">
          <mxGeometry x="30" width="180" height="30" as="geometry">
            <mxRectangle width="180" height="30" as="alternateBounds" />
          </mxGeometry>
        </mxCell>
        <mxCell id="zRi4qjUtURZeb13-JNOz-154" style="shape=tableRow;horizontal=0;startSize=0;swimlaneHead=0;swimlaneBody=0;fillColor=none;collapsible=0;dropTarget=0;points=[[0,0.5],[1,0.5]];portConstraint=eastwest;top=0;left=0;right=0;bottom=0;labelBackgroundColor=none;strokeColor=#788AA3;fontColor=#46495D;" vertex="1" parent="zRi4qjUtURZeb13-JNOz-129">
          <mxGeometry y="300" width="210" height="30" as="geometry" />
        </mxCell>
        <mxCell id="zRi4qjUtURZeb13-JNOz-155" style="shape=partialRectangle;connectable=0;fillColor=none;top=0;left=0;bottom=0;right=0;editable=1;overflow=hidden;whiteSpace=wrap;html=1;labelBackgroundColor=none;strokeColor=#788AA3;fontColor=#46495D;" vertex="1" parent="zRi4qjUtURZeb13-JNOz-154">
          <mxGeometry width="30" height="30" as="geometry">
            <mxRectangle width="30" height="30" as="alternateBounds" />
          </mxGeometry>
        </mxCell>
        <mxCell id="zRi4qjUtURZeb13-JNOz-156" value="created_at" style="shape=partialRectangle;connectable=0;fillColor=none;top=0;left=0;bottom=0;right=0;align=left;spacingLeft=6;overflow=hidden;whiteSpace=wrap;html=1;labelBackgroundColor=none;strokeColor=#788AA3;fontColor=#46495D;" vertex="1" parent="zRi4qjUtURZeb13-JNOz-154">
          <mxGeometry x="30" width="180" height="30" as="geometry">
            <mxRectangle width="180" height="30" as="alternateBounds" />
          </mxGeometry>
        </mxCell>
        <mxCell id="zRi4qjUtURZeb13-JNOz-157" value="reading_progress" style="shape=table;startSize=30;container=1;collapsible=1;childLayout=tableLayout;fixedRows=1;rowLines=0;fontStyle=1;align=center;resizeLast=1;html=1;labelBackgroundColor=none;fillColor=#B2C9AB;strokeColor=#788AA3;fontColor=#46495D;" vertex="1" parent="zRi4qjUtURZeb13-JNOz-215">
          <mxGeometry x="570" y="194" width="180" height="240" as="geometry" />
        </mxCell>
        <mxCell id="zRi4qjUtURZeb13-JNOz-158" value="" style="shape=tableRow;horizontal=0;startSize=0;swimlaneHead=0;swimlaneBody=0;fillColor=none;collapsible=0;dropTarget=0;points=[[0,0.5],[1,0.5]];portConstraint=eastwest;top=0;left=0;right=0;bottom=1;labelBackgroundColor=none;strokeColor=#788AA3;fontColor=#46495D;" vertex="1" parent="zRi4qjUtURZeb13-JNOz-157">
          <mxGeometry y="30" width="180" height="30" as="geometry" />
        </mxCell>
        <mxCell id="zRi4qjUtURZeb13-JNOz-159" value="PK" style="shape=partialRectangle;connectable=0;fillColor=none;top=0;left=0;bottom=0;right=0;fontStyle=1;overflow=hidden;whiteSpace=wrap;html=1;labelBackgroundColor=none;strokeColor=#788AA3;fontColor=#46495D;" vertex="1" parent="zRi4qjUtURZeb13-JNOz-158">
          <mxGeometry width="30" height="30" as="geometry">
            <mxRectangle width="30" height="30" as="alternateBounds" />
          </mxGeometry>
        </mxCell>
        <mxCell id="zRi4qjUtURZeb13-JNOz-160" value="id" style="shape=partialRectangle;connectable=0;fillColor=none;top=0;left=0;bottom=0;right=0;align=left;spacingLeft=6;fontStyle=5;overflow=hidden;whiteSpace=wrap;html=1;labelBackgroundColor=none;strokeColor=#788AA3;fontColor=#46495D;" vertex="1" parent="zRi4qjUtURZeb13-JNOz-158">
          <mxGeometry x="30" width="150" height="30" as="geometry">
            <mxRectangle width="150" height="30" as="alternateBounds" />
          </mxGeometry>
        </mxCell>
        <mxCell id="zRi4qjUtURZeb13-JNOz-161" value="" style="shape=tableRow;horizontal=0;startSize=0;swimlaneHead=0;swimlaneBody=0;fillColor=none;collapsible=0;dropTarget=0;points=[[0,0.5],[1,0.5]];portConstraint=eastwest;top=0;left=0;right=0;bottom=0;labelBackgroundColor=none;strokeColor=#788AA3;fontColor=#46495D;" vertex="1" parent="zRi4qjUtURZeb13-JNOz-157">
          <mxGeometry y="60" width="180" height="30" as="geometry" />
        </mxCell>
        <mxCell id="zRi4qjUtURZeb13-JNOz-162" value="FK" style="shape=partialRectangle;connectable=0;fillColor=none;top=0;left=0;bottom=0;right=0;editable=1;overflow=hidden;whiteSpace=wrap;html=1;labelBackgroundColor=none;strokeColor=#788AA3;fontColor=#46495D;" vertex="1" parent="zRi4qjUtURZeb13-JNOz-161">
          <mxGeometry width="30" height="30" as="geometry">
            <mxRectangle width="30" height="30" as="alternateBounds" />
          </mxGeometry>
        </mxCell>
        <mxCell id="zRi4qjUtURZeb13-JNOz-163" value="user_id" style="shape=partialRectangle;connectable=0;fillColor=none;top=0;left=0;bottom=0;right=0;align=left;spacingLeft=6;overflow=hidden;whiteSpace=wrap;html=1;labelBackgroundColor=none;strokeColor=#788AA3;fontColor=#46495D;" vertex="1" parent="zRi4qjUtURZeb13-JNOz-161">
          <mxGeometry x="30" width="150" height="30" as="geometry">
            <mxRectangle width="150" height="30" as="alternateBounds" />
          </mxGeometry>
        </mxCell>
        <mxCell id="zRi4qjUtURZeb13-JNOz-164" value="" style="shape=tableRow;horizontal=0;startSize=0;swimlaneHead=0;swimlaneBody=0;fillColor=none;collapsible=0;dropTarget=0;points=[[0,0.5],[1,0.5]];portConstraint=eastwest;top=0;left=0;right=0;bottom=0;labelBackgroundColor=none;strokeColor=#788AA3;fontColor=#46495D;" vertex="1" parent="zRi4qjUtURZeb13-JNOz-157">
          <mxGeometry y="90" width="180" height="30" as="geometry" />
        </mxCell>
        <mxCell id="zRi4qjUtURZeb13-JNOz-165" value="FK" style="shape=partialRectangle;connectable=0;fillColor=none;top=0;left=0;bottom=0;right=0;editable=1;overflow=hidden;whiteSpace=wrap;html=1;labelBackgroundColor=none;strokeColor=#788AA3;fontColor=#46495D;" vertex="1" parent="zRi4qjUtURZeb13-JNOz-164">
          <mxGeometry width="30" height="30" as="geometry">
            <mxRectangle width="30" height="30" as="alternateBounds" />
          </mxGeometry>
        </mxCell>
        <mxCell id="zRi4qjUtURZeb13-JNOz-166" value="book_id" style="shape=partialRectangle;connectable=0;fillColor=none;top=0;left=0;bottom=0;right=0;align=left;spacingLeft=6;overflow=hidden;whiteSpace=wrap;html=1;labelBackgroundColor=none;strokeColor=#788AA3;fontColor=#46495D;" vertex="1" parent="zRi4qjUtURZeb13-JNOz-164">
          <mxGeometry x="30" width="150" height="30" as="geometry">
            <mxRectangle width="150" height="30" as="alternateBounds" />
          </mxGeometry>
        </mxCell>
        <mxCell id="zRi4qjUtURZeb13-JNOz-167" value="" style="shape=tableRow;horizontal=0;startSize=0;swimlaneHead=0;swimlaneBody=0;fillColor=none;collapsible=0;dropTarget=0;points=[[0,0.5],[1,0.5]];portConstraint=eastwest;top=0;left=0;right=0;bottom=0;labelBackgroundColor=none;strokeColor=#788AA3;fontColor=#46495D;" vertex="1" parent="zRi4qjUtURZeb13-JNOz-157">
          <mxGeometry y="120" width="180" height="30" as="geometry" />
        </mxCell>
        <mxCell id="zRi4qjUtURZeb13-JNOz-168" value="" style="shape=partialRectangle;connectable=0;fillColor=none;top=0;left=0;bottom=0;right=0;editable=1;overflow=hidden;whiteSpace=wrap;html=1;labelBackgroundColor=none;strokeColor=#788AA3;fontColor=#46495D;" vertex="1" parent="zRi4qjUtURZeb13-JNOz-167">
          <mxGeometry width="30" height="30" as="geometry">
            <mxRectangle width="30" height="30" as="alternateBounds" />
          </mxGeometry>
        </mxCell>
        <mxCell id="zRi4qjUtURZeb13-JNOz-169" value="last_cfi" style="shape=partialRectangle;connectable=0;fillColor=none;top=0;left=0;bottom=0;right=0;align=left;spacingLeft=6;overflow=hidden;whiteSpace=wrap;html=1;labelBackgroundColor=none;strokeColor=#788AA3;fontColor=#46495D;" vertex="1" parent="zRi4qjUtURZeb13-JNOz-167">
          <mxGeometry x="30" width="150" height="30" as="geometry">
            <mxRectangle width="150" height="30" as="alternateBounds" />
          </mxGeometry>
        </mxCell>
        <mxCell id="zRi4qjUtURZeb13-JNOz-170" style="shape=tableRow;horizontal=0;startSize=0;swimlaneHead=0;swimlaneBody=0;fillColor=none;collapsible=0;dropTarget=0;points=[[0,0.5],[1,0.5]];portConstraint=eastwest;top=0;left=0;right=0;bottom=0;labelBackgroundColor=none;strokeColor=#788AA3;fontColor=#46495D;" vertex="1" parent="zRi4qjUtURZeb13-JNOz-157">
          <mxGeometry y="150" width="180" height="30" as="geometry" />
        </mxCell>
        <mxCell id="zRi4qjUtURZeb13-JNOz-171" style="shape=partialRectangle;connectable=0;fillColor=none;top=0;left=0;bottom=0;right=0;editable=1;overflow=hidden;whiteSpace=wrap;html=1;labelBackgroundColor=none;strokeColor=#788AA3;fontColor=#46495D;" vertex="1" parent="zRi4qjUtURZeb13-JNOz-170">
          <mxGeometry width="30" height="30" as="geometry">
            <mxRectangle width="30" height="30" as="alternateBounds" />
          </mxGeometry>
        </mxCell>
        <mxCell id="zRi4qjUtURZeb13-JNOz-172" value="location_current" style="shape=partialRectangle;connectable=0;fillColor=none;top=0;left=0;bottom=0;right=0;align=left;spacingLeft=6;overflow=hidden;whiteSpace=wrap;html=1;labelBackgroundColor=none;strokeColor=#788AA3;fontColor=#46495D;" vertex="1" parent="zRi4qjUtURZeb13-JNOz-170">
          <mxGeometry x="30" width="150" height="30" as="geometry">
            <mxRectangle width="150" height="30" as="alternateBounds" />
          </mxGeometry>
        </mxCell>
        <mxCell id="zRi4qjUtURZeb13-JNOz-173" style="shape=tableRow;horizontal=0;startSize=0;swimlaneHead=0;swimlaneBody=0;fillColor=none;collapsible=0;dropTarget=0;points=[[0,0.5],[1,0.5]];portConstraint=eastwest;top=0;left=0;right=0;bottom=0;labelBackgroundColor=none;strokeColor=#788AA3;fontColor=#46495D;" vertex="1" parent="zRi4qjUtURZeb13-JNOz-157">
          <mxGeometry y="180" width="180" height="30" as="geometry" />
        </mxCell>
        <mxCell id="zRi4qjUtURZeb13-JNOz-174" style="shape=partialRectangle;connectable=0;fillColor=none;top=0;left=0;bottom=0;right=0;editable=1;overflow=hidden;whiteSpace=wrap;html=1;labelBackgroundColor=none;strokeColor=#788AA3;fontColor=#46495D;" vertex="1" parent="zRi4qjUtURZeb13-JNOz-173">
          <mxGeometry width="30" height="30" as="geometry">
            <mxRectangle width="30" height="30" as="alternateBounds" />
          </mxGeometry>
        </mxCell>
        <mxCell id="zRi4qjUtURZeb13-JNOz-175" value="location_total" style="shape=partialRectangle;connectable=0;fillColor=none;top=0;left=0;bottom=0;right=0;align=left;spacingLeft=6;overflow=hidden;whiteSpace=wrap;html=1;labelBackgroundColor=none;strokeColor=#788AA3;fontColor=#46495D;" vertex="1" parent="zRi4qjUtURZeb13-JNOz-173">
          <mxGeometry x="30" width="150" height="30" as="geometry">
            <mxRectangle width="150" height="30" as="alternateBounds" />
          </mxGeometry>
        </mxCell>
        <mxCell id="zRi4qjUtURZeb13-JNOz-176" style="shape=tableRow;horizontal=0;startSize=0;swimlaneHead=0;swimlaneBody=0;fillColor=none;collapsible=0;dropTarget=0;points=[[0,0.5],[1,0.5]];portConstraint=eastwest;top=0;left=0;right=0;bottom=0;labelBackgroundColor=none;strokeColor=#788AA3;fontColor=#46495D;" vertex="1" parent="zRi4qjUtURZeb13-JNOz-157">
          <mxGeometry y="210" width="180" height="30" as="geometry" />
        </mxCell>
        <mxCell id="zRi4qjUtURZeb13-JNOz-177" style="shape=partialRectangle;connectable=0;fillColor=none;top=0;left=0;bottom=0;right=0;editable=1;overflow=hidden;whiteSpace=wrap;html=1;labelBackgroundColor=none;strokeColor=#788AA3;fontColor=#46495D;" vertex="1" parent="zRi4qjUtURZeb13-JNOz-176">
          <mxGeometry width="30" height="30" as="geometry">
            <mxRectangle width="30" height="30" as="alternateBounds" />
          </mxGeometry>
        </mxCell>
        <mxCell id="zRi4qjUtURZeb13-JNOz-178" value="updated_at" style="shape=partialRectangle;connectable=0;fillColor=none;top=0;left=0;bottom=0;right=0;align=left;spacingLeft=6;overflow=hidden;whiteSpace=wrap;html=1;labelBackgroundColor=none;strokeColor=#788AA3;fontColor=#46495D;" vertex="1" parent="zRi4qjUtURZeb13-JNOz-176">
          <mxGeometry x="30" width="150" height="30" as="geometry">
            <mxRectangle width="150" height="30" as="alternateBounds" />
          </mxGeometry>
        </mxCell>
        <mxCell id="zRi4qjUtURZeb13-JNOz-179" style="edgeStyle=orthogonalEdgeStyle;rounded=0;orthogonalLoop=1;jettySize=auto;html=1;entryX=1;entryY=0.5;entryDx=0;entryDy=0;labelBackgroundColor=none;fontColor=default;strokeColor=#788AA3;" edge="1" parent="zRi4qjUtURZeb13-JNOz-215" source="zRi4qjUtURZeb13-JNOz-164" target="zRi4qjUtURZeb13-JNOz-130">
          <mxGeometry relative="1" as="geometry" />
        </mxCell>
        <mxCell id="zRi4qjUtURZeb13-JNOz-180" value="bookmark" style="shape=table;startSize=30;container=1;collapsible=1;childLayout=tableLayout;fixedRows=1;rowLines=0;fontStyle=1;align=center;resizeLast=1;html=1;labelBackgroundColor=none;fillColor=#B2C9AB;strokeColor=#788AA3;fontColor=#46495D;" vertex="1" parent="zRi4qjUtURZeb13-JNOz-215">
          <mxGeometry x="20" y="24" width="180" height="150" as="geometry" />
        </mxCell>
        <mxCell id="zRi4qjUtURZeb13-JNOz-181" value="" style="shape=tableRow;horizontal=0;startSize=0;swimlaneHead=0;swimlaneBody=0;fillColor=none;collapsible=0;dropTarget=0;points=[[0,0.5],[1,0.5]];portConstraint=eastwest;top=0;left=0;right=0;bottom=1;labelBackgroundColor=none;strokeColor=#788AA3;fontColor=#46495D;" vertex="1" parent="zRi4qjUtURZeb13-JNOz-180">
          <mxGeometry y="30" width="180" height="30" as="geometry" />
        </mxCell>
        <mxCell id="zRi4qjUtURZeb13-JNOz-182" value="PK" style="shape=partialRectangle;connectable=0;fillColor=none;top=0;left=0;bottom=0;right=0;fontStyle=1;overflow=hidden;whiteSpace=wrap;html=1;labelBackgroundColor=none;strokeColor=#788AA3;fontColor=#46495D;" vertex="1" parent="zRi4qjUtURZeb13-JNOz-181">
          <mxGeometry width="30" height="30" as="geometry">
            <mxRectangle width="30" height="30" as="alternateBounds" />
          </mxGeometry>
        </mxCell>
        <mxCell id="zRi4qjUtURZeb13-JNOz-183" value="id" style="shape=partialRectangle;connectable=0;fillColor=none;top=0;left=0;bottom=0;right=0;align=left;spacingLeft=6;fontStyle=5;overflow=hidden;whiteSpace=wrap;html=1;labelBackgroundColor=none;strokeColor=#788AA3;fontColor=#46495D;" vertex="1" parent="zRi4qjUtURZeb13-JNOz-181">
          <mxGeometry x="30" width="150" height="30" as="geometry">
            <mxRectangle width="150" height="30" as="alternateBounds" />
          </mxGeometry>
        </mxCell>
        <mxCell id="zRi4qjUtURZeb13-JNOz-184" value="" style="shape=tableRow;horizontal=0;startSize=0;swimlaneHead=0;swimlaneBody=0;fillColor=none;collapsible=0;dropTarget=0;points=[[0,0.5],[1,0.5]];portConstraint=eastwest;top=0;left=0;right=0;bottom=0;labelBackgroundColor=none;strokeColor=#788AA3;fontColor=#46495D;" vertex="1" parent="zRi4qjUtURZeb13-JNOz-180">
          <mxGeometry y="60" width="180" height="30" as="geometry" />
        </mxCell>
        <mxCell id="zRi4qjUtURZeb13-JNOz-185" value="FK" style="shape=partialRectangle;connectable=0;fillColor=none;top=0;left=0;bottom=0;right=0;editable=1;overflow=hidden;whiteSpace=wrap;html=1;labelBackgroundColor=none;strokeColor=#788AA3;fontColor=#46495D;" vertex="1" parent="zRi4qjUtURZeb13-JNOz-184">
          <mxGeometry width="30" height="30" as="geometry">
            <mxRectangle width="30" height="30" as="alternateBounds" />
          </mxGeometry>
        </mxCell>
        <mxCell id="zRi4qjUtURZeb13-JNOz-186" value="user_id" style="shape=partialRectangle;connectable=0;fillColor=none;top=0;left=0;bottom=0;right=0;align=left;spacingLeft=6;overflow=hidden;whiteSpace=wrap;html=1;labelBackgroundColor=none;strokeColor=#788AA3;fontColor=#46495D;" vertex="1" parent="zRi4qjUtURZeb13-JNOz-184">
          <mxGeometry x="30" width="150" height="30" as="geometry">
            <mxRectangle width="150" height="30" as="alternateBounds" />
          </mxGeometry>
        </mxCell>
        <mxCell id="zRi4qjUtURZeb13-JNOz-187" value="" style="shape=tableRow;horizontal=0;startSize=0;swimlaneHead=0;swimlaneBody=0;fillColor=none;collapsible=0;dropTarget=0;points=[[0,0.5],[1,0.5]];portConstraint=eastwest;top=0;left=0;right=0;bottom=0;labelBackgroundColor=none;strokeColor=#788AA3;fontColor=#46495D;" vertex="1" parent="zRi4qjUtURZeb13-JNOz-180">
          <mxGeometry y="90" width="180" height="30" as="geometry" />
        </mxCell>
        <mxCell id="zRi4qjUtURZeb13-JNOz-188" value="FK" style="shape=partialRectangle;connectable=0;fillColor=none;top=0;left=0;bottom=0;right=0;editable=1;overflow=hidden;whiteSpace=wrap;html=1;labelBackgroundColor=none;strokeColor=#788AA3;fontColor=#46495D;" vertex="1" parent="zRi4qjUtURZeb13-JNOz-187">
          <mxGeometry width="30" height="30" as="geometry">
            <mxRectangle width="30" height="30" as="alternateBounds" />
          </mxGeometry>
        </mxCell>
        <mxCell id="zRi4qjUtURZeb13-JNOz-189" value="book_id" style="shape=partialRectangle;connectable=0;fillColor=none;top=0;left=0;bottom=0;right=0;align=left;spacingLeft=6;overflow=hidden;whiteSpace=wrap;html=1;labelBackgroundColor=none;strokeColor=#788AA3;fontColor=#46495D;" vertex="1" parent="zRi4qjUtURZeb13-JNOz-187">
          <mxGeometry x="30" width="150" height="30" as="geometry">
            <mxRectangle width="150" height="30" as="alternateBounds" />
          </mxGeometry>
        </mxCell>
        <mxCell id="zRi4qjUtURZeb13-JNOz-190" value="" style="shape=tableRow;horizontal=0;startSize=0;swimlaneHead=0;swimlaneBody=0;fillColor=none;collapsible=0;dropTarget=0;points=[[0,0.5],[1,0.5]];portConstraint=eastwest;top=0;left=0;right=0;bottom=0;labelBackgroundColor=none;strokeColor=#788AA3;fontColor=#46495D;" vertex="1" parent="zRi4qjUtURZeb13-JNOz-180">
          <mxGeometry y="120" width="180" height="30" as="geometry" />
        </mxCell>
        <mxCell id="zRi4qjUtURZeb13-JNOz-191" value="" style="shape=partialRectangle;connectable=0;fillColor=none;top=0;left=0;bottom=0;right=0;editable=1;overflow=hidden;whiteSpace=wrap;html=1;labelBackgroundColor=none;strokeColor=#788AA3;fontColor=#46495D;" vertex="1" parent="zRi4qjUtURZeb13-JNOz-190">
          <mxGeometry width="30" height="30" as="geometry">
            <mxRectangle width="30" height="30" as="alternateBounds" />
          </mxGeometry>
        </mxCell>
        <mxCell id="zRi4qjUtURZeb13-JNOz-192" value="created_at" style="shape=partialRectangle;connectable=0;fillColor=none;top=0;left=0;bottom=0;right=0;align=left;spacingLeft=6;overflow=hidden;whiteSpace=wrap;html=1;labelBackgroundColor=none;strokeColor=#788AA3;fontColor=#46495D;" vertex="1" parent="zRi4qjUtURZeb13-JNOz-190">
          <mxGeometry x="30" width="150" height="30" as="geometry">
            <mxRectangle width="150" height="30" as="alternateBounds" />
          </mxGeometry>
        </mxCell>
        <mxCell id="zRi4qjUtURZeb13-JNOz-193" style="edgeStyle=orthogonalEdgeStyle;rounded=0;orthogonalLoop=1;jettySize=auto;html=1;entryX=0;entryY=0.5;entryDx=0;entryDy=0;labelBackgroundColor=none;fontColor=default;strokeColor=#788AA3;" edge="1" parent="zRi4qjUtURZeb13-JNOz-215" source="zRi4qjUtURZeb13-JNOz-184" target="zRi4qjUtURZeb13-JNOz-117">
          <mxGeometry relative="1" as="geometry" />
        </mxCell>
        <mxCell id="zRi4qjUtURZeb13-JNOz-194" style="edgeStyle=orthogonalEdgeStyle;rounded=0;orthogonalLoop=1;jettySize=auto;html=1;entryX=0;entryY=0.5;entryDx=0;entryDy=0;labelBackgroundColor=none;fontColor=default;strokeColor=#788AA3;" edge="1" parent="zRi4qjUtURZeb13-JNOz-215" source="zRi4qjUtURZeb13-JNOz-187" target="zRi4qjUtURZeb13-JNOz-130">
          <mxGeometry relative="1" as="geometry">
            <Array as="points">
              <mxPoint x="240.07999999999998" y="129" />
              <mxPoint x="240.07999999999998" y="299" />
            </Array>
          </mxGeometry>
        </mxCell>
        <mxCell id="zRi4qjUtURZeb13-JNOz-195" style="edgeStyle=orthogonalEdgeStyle;rounded=0;orthogonalLoop=1;jettySize=auto;html=1;entryX=1;entryY=0.5;entryDx=0;entryDy=0;labelBackgroundColor=none;fontColor=default;strokeColor=#788AA3;" edge="1" parent="zRi4qjUtURZeb13-JNOz-215" source="zRi4qjUtURZeb13-JNOz-161" target="zRi4qjUtURZeb13-JNOz-117">
          <mxGeometry relative="1" as="geometry">
            <Array as="points">
              <mxPoint x="540" y="269" />
              <mxPoint x="540" y="99" />
            </Array>
          </mxGeometry>
        </mxCell>
        <mxCell id="zRi4qjUtURZeb13-JNOz-196" value="category" style="shape=table;startSize=30;container=1;collapsible=1;childLayout=tableLayout;fixedRows=1;rowLines=0;fontStyle=1;align=center;resizeLast=1;html=1;labelBackgroundColor=none;fillColor=#B2C9AB;strokeColor=#788AA3;fontColor=#46495D;" vertex="1" parent="zRi4qjUtURZeb13-JNOz-215">
          <mxGeometry x="20" y="454" width="180.08" height="90" as="geometry" />
        </mxCell>
        <mxCell id="zRi4qjUtURZeb13-JNOz-197" value="" style="shape=tableRow;horizontal=0;startSize=0;swimlaneHead=0;swimlaneBody=0;fillColor=none;collapsible=0;dropTarget=0;points=[[0,0.5],[1,0.5]];portConstraint=eastwest;top=0;left=0;right=0;bottom=1;labelBackgroundColor=none;strokeColor=#788AA3;fontColor=#46495D;" vertex="1" parent="zRi4qjUtURZeb13-JNOz-196">
          <mxGeometry y="30" width="180.08" height="30" as="geometry" />
        </mxCell>
        <mxCell id="zRi4qjUtURZeb13-JNOz-198" value="PK" style="shape=partialRectangle;connectable=0;fillColor=none;top=0;left=0;bottom=0;right=0;fontStyle=1;overflow=hidden;whiteSpace=wrap;html=1;labelBackgroundColor=none;strokeColor=#788AA3;fontColor=#46495D;" vertex="1" parent="zRi4qjUtURZeb13-JNOz-197">
          <mxGeometry width="30" height="30" as="geometry">
            <mxRectangle width="30" height="30" as="alternateBounds" />
          </mxGeometry>
        </mxCell>
        <mxCell id="zRi4qjUtURZeb13-JNOz-199" value="id" style="shape=partialRectangle;connectable=0;fillColor=none;top=0;left=0;bottom=0;right=0;align=left;spacingLeft=6;fontStyle=5;overflow=hidden;whiteSpace=wrap;html=1;labelBackgroundColor=none;strokeColor=#788AA3;fontColor=#46495D;" vertex="1" parent="zRi4qjUtURZeb13-JNOz-197">
          <mxGeometry x="30" width="150.08" height="30" as="geometry">
            <mxRectangle width="150.08" height="30" as="alternateBounds" />
          </mxGeometry>
        </mxCell>
        <mxCell id="zRi4qjUtURZeb13-JNOz-200" value="" style="shape=tableRow;horizontal=0;startSize=0;swimlaneHead=0;swimlaneBody=0;fillColor=none;collapsible=0;dropTarget=0;points=[[0,0.5],[1,0.5]];portConstraint=eastwest;top=0;left=0;right=0;bottom=0;labelBackgroundColor=none;strokeColor=#788AA3;fontColor=#46495D;" vertex="1" parent="zRi4qjUtURZeb13-JNOz-196">
          <mxGeometry y="60" width="180.08" height="30" as="geometry" />
        </mxCell>
        <mxCell id="zRi4qjUtURZeb13-JNOz-201" value="" style="shape=partialRectangle;connectable=0;fillColor=none;top=0;left=0;bottom=0;right=0;editable=1;overflow=hidden;whiteSpace=wrap;html=1;labelBackgroundColor=none;strokeColor=#788AA3;fontColor=#46495D;" vertex="1" parent="zRi4qjUtURZeb13-JNOz-200">
          <mxGeometry width="30" height="30" as="geometry">
            <mxRectangle width="30" height="30" as="alternateBounds" />
          </mxGeometry>
        </mxCell>
        <mxCell id="zRi4qjUtURZeb13-JNOz-202" value="category_name" style="shape=partialRectangle;connectable=0;fillColor=none;top=0;left=0;bottom=0;right=0;align=left;spacingLeft=6;overflow=hidden;whiteSpace=wrap;html=1;labelBackgroundColor=none;strokeColor=#788AA3;fontColor=#46495D;" vertex="1" parent="zRi4qjUtURZeb13-JNOz-200">
          <mxGeometry x="30" width="150.08" height="30" as="geometry">
            <mxRectangle width="150.08" height="30" as="alternateBounds" />
          </mxGeometry>
        </mxCell>
        <mxCell id="zRi4qjUtURZeb13-JNOz-203" value="book_category" style="shape=table;startSize=30;container=1;collapsible=1;childLayout=tableLayout;fixedRows=1;rowLines=0;fontStyle=1;align=center;resizeLast=1;html=1;labelBackgroundColor=none;fillColor=#B2C9AB;strokeColor=#788AA3;fontColor=#46495D;" vertex="1" parent="zRi4qjUtURZeb13-JNOz-215">
          <mxGeometry x="20" y="274" width="180" height="120" as="geometry" />
        </mxCell>
        <mxCell id="zRi4qjUtURZeb13-JNOz-204" value="" style="shape=tableRow;horizontal=0;startSize=0;swimlaneHead=0;swimlaneBody=0;fillColor=none;collapsible=0;dropTarget=0;points=[[0,0.5],[1,0.5]];portConstraint=eastwest;top=0;left=0;right=0;bottom=1;labelBackgroundColor=none;strokeColor=#788AA3;fontColor=#46495D;" vertex="1" parent="zRi4qjUtURZeb13-JNOz-203">
          <mxGeometry y="30" width="180" height="30" as="geometry" />
        </mxCell>
        <mxCell id="zRi4qjUtURZeb13-JNOz-205" value="PK" style="shape=partialRectangle;connectable=0;fillColor=none;top=0;left=0;bottom=0;right=0;fontStyle=1;overflow=hidden;whiteSpace=wrap;html=1;labelBackgroundColor=none;strokeColor=#788AA3;fontColor=#46495D;" vertex="1" parent="zRi4qjUtURZeb13-JNOz-204">
          <mxGeometry width="30" height="30" as="geometry">
            <mxRectangle width="30" height="30" as="alternateBounds" />
          </mxGeometry>
        </mxCell>
        <mxCell id="zRi4qjUtURZeb13-JNOz-206" value="id" style="shape=partialRectangle;connectable=0;fillColor=none;top=0;left=0;bottom=0;right=0;align=left;spacingLeft=6;fontStyle=5;overflow=hidden;whiteSpace=wrap;html=1;labelBackgroundColor=none;strokeColor=#788AA3;fontColor=#46495D;" vertex="1" parent="zRi4qjUtURZeb13-JNOz-204">
          <mxGeometry x="30" width="150" height="30" as="geometry">
            <mxRectangle width="150" height="30" as="alternateBounds" />
          </mxGeometry>
        </mxCell>
        <mxCell id="zRi4qjUtURZeb13-JNOz-207" value="" style="shape=tableRow;horizontal=0;startSize=0;swimlaneHead=0;swimlaneBody=0;fillColor=none;collapsible=0;dropTarget=0;points=[[0,0.5],[1,0.5]];portConstraint=eastwest;top=0;left=0;right=0;bottom=0;labelBackgroundColor=none;strokeColor=#788AA3;fontColor=#46495D;" vertex="1" parent="zRi4qjUtURZeb13-JNOz-203">
          <mxGeometry y="60" width="180" height="30" as="geometry" />
        </mxCell>
        <mxCell id="zRi4qjUtURZeb13-JNOz-208" value="FK" style="shape=partialRectangle;connectable=0;fillColor=none;top=0;left=0;bottom=0;right=0;editable=1;overflow=hidden;whiteSpace=wrap;html=1;labelBackgroundColor=none;strokeColor=#788AA3;fontColor=#46495D;" vertex="1" parent="zRi4qjUtURZeb13-JNOz-207">
          <mxGeometry width="30" height="30" as="geometry">
            <mxRectangle width="30" height="30" as="alternateBounds" />
          </mxGeometry>
        </mxCell>
        <mxCell id="zRi4qjUtURZeb13-JNOz-209" value="book_id" style="shape=partialRectangle;connectable=0;fillColor=none;top=0;left=0;bottom=0;right=0;align=left;spacingLeft=6;overflow=hidden;whiteSpace=wrap;html=1;labelBackgroundColor=none;strokeColor=#788AA3;fontColor=#46495D;" vertex="1" parent="zRi4qjUtURZeb13-JNOz-207">
          <mxGeometry x="30" width="150" height="30" as="geometry">
            <mxRectangle width="150" height="30" as="alternateBounds" />
          </mxGeometry>
        </mxCell>
        <mxCell id="zRi4qjUtURZeb13-JNOz-210" value="" style="shape=tableRow;horizontal=0;startSize=0;swimlaneHead=0;swimlaneBody=0;fillColor=none;collapsible=0;dropTarget=0;points=[[0,0.5],[1,0.5]];portConstraint=eastwest;top=0;left=0;right=0;bottom=0;labelBackgroundColor=none;strokeColor=#788AA3;fontColor=#46495D;" vertex="1" parent="zRi4qjUtURZeb13-JNOz-203">
          <mxGeometry y="90" width="180" height="30" as="geometry" />
        </mxCell>
        <mxCell id="zRi4qjUtURZeb13-JNOz-211" value="FK" style="shape=partialRectangle;connectable=0;fillColor=none;top=0;left=0;bottom=0;right=0;editable=1;overflow=hidden;whiteSpace=wrap;html=1;labelBackgroundColor=none;strokeColor=#788AA3;fontColor=#46495D;" vertex="1" parent="zRi4qjUtURZeb13-JNOz-210">
          <mxGeometry width="30" height="30" as="geometry">
            <mxRectangle width="30" height="30" as="alternateBounds" />
          </mxGeometry>
        </mxCell>
        <mxCell id="zRi4qjUtURZeb13-JNOz-212" value="category_id" style="shape=partialRectangle;connectable=0;fillColor=none;top=0;left=0;bottom=0;right=0;align=left;spacingLeft=6;overflow=hidden;whiteSpace=wrap;html=1;labelBackgroundColor=none;strokeColor=#788AA3;fontColor=#46495D;" vertex="1" parent="zRi4qjUtURZeb13-JNOz-210">
          <mxGeometry x="30" width="150" height="30" as="geometry">
            <mxRectangle width="150" height="30" as="alternateBounds" />
          </mxGeometry>
        </mxCell>
        <mxCell id="zRi4qjUtURZeb13-JNOz-213" style="edgeStyle=orthogonalEdgeStyle;rounded=0;orthogonalLoop=1;jettySize=auto;html=1;entryX=0;entryY=0.5;entryDx=0;entryDy=0;strokeColor=#788AA3;fontColor=#46495D;fillColor=#B2C9AB;exitX=1;exitY=0.5;exitDx=0;exitDy=0;" edge="1" parent="zRi4qjUtURZeb13-JNOz-215" source="zRi4qjUtURZeb13-JNOz-207" target="zRi4qjUtURZeb13-JNOz-130">
          <mxGeometry relative="1" as="geometry">
            <Array as="points">
              <mxPoint x="240.07999999999998" y="349" />
              <mxPoint x="240.07999999999998" y="299" />
            </Array>
          </mxGeometry>
        </mxCell>
        <mxCell id="zRi4qjUtURZeb13-JNOz-214" style="edgeStyle=orthogonalEdgeStyle;rounded=0;orthogonalLoop=1;jettySize=auto;html=1;strokeColor=#788AA3;fontColor=#46495D;fillColor=#B2C9AB;exitX=1;exitY=0.5;exitDx=0;exitDy=0;" edge="1" parent="zRi4qjUtURZeb13-JNOz-215" source="zRi4qjUtURZeb13-JNOz-210">
          <mxGeometry relative="1" as="geometry">
            <mxPoint x="200.07999999999998" y="504" as="targetPoint" />
            <Array as="points">
              <mxPoint x="240.07999999999998" y="379" />
              <mxPoint x="240.07999999999998" y="504" />
              <mxPoint x="200.07999999999998" y="504" />
            </Array>
          </mxGeometry>
        </mxCell>
        <mxCell id="zRi4qjUtURZeb13-JNOz-1157" value="" style="group" vertex="1" connectable="0" parent="1">
          <mxGeometry y="640" width="1280" height="660" as="geometry" />
        </mxCell>
        <mxCell id="zRi4qjUtURZeb13-JNOz-745" value="" style="swimlane;startSize=0;strokeColor=#788AA3;fontColor=#46495D;fillColor=#B2C9AB;movable=1;resizable=1;rotatable=1;deletable=1;editable=1;locked=0;connectable=1;container=0;" vertex="1" parent="zRi4qjUtURZeb13-JNOz-1157">
          <mxGeometry width="1280" height="660" as="geometry" />
        </mxCell>
        <mxCell id="zRi4qjUtURZeb13-JNOz-753" style="edgeStyle=orthogonalEdgeStyle;rounded=0;orthogonalLoop=1;jettySize=auto;html=1;entryX=1;entryY=0.5;entryDx=0;entryDy=0;endArrow=none;endFill=0;curved=1;movable=1;resizable=1;rotatable=1;deletable=1;editable=1;locked=0;connectable=1;" edge="1" parent="zRi4qjUtURZeb13-JNOz-1157" source="zRi4qjUtURZeb13-JNOz-754" target="zRi4qjUtURZeb13-JNOz-757">
          <mxGeometry relative="1" as="geometry" />
        </mxCell>
        <mxCell id="zRi4qjUtURZeb13-JNOz-754" value="users" style="whiteSpace=wrap;html=1;align=center;movable=1;resizable=1;rotatable=1;deletable=1;editable=1;locked=0;connectable=1;container=0;" vertex="1" parent="zRi4qjUtURZeb13-JNOz-1157">
          <mxGeometry x="585" y="105" width="100" height="40" as="geometry" />
        </mxCell>
        <mxCell id="zRi4qjUtURZeb13-JNOz-755" value="&lt;span style=&quot;color: rgb(70, 73, 93); text-align: left;&quot;&gt;password&lt;/span&gt;" style="ellipse;whiteSpace=wrap;html=1;align=center;movable=1;resizable=1;rotatable=1;deletable=1;editable=1;locked=0;connectable=1;container=0;" vertex="1" parent="zRi4qjUtURZeb13-JNOz-1157">
          <mxGeometry x="505" y="45" width="100" height="40" as="geometry" />
        </mxCell>
        <mxCell id="zRi4qjUtURZeb13-JNOz-756" value="&lt;span style=&quot;color: rgb(70, 73, 93); text-align: left;&quot;&gt;role&lt;/span&gt;" style="ellipse;whiteSpace=wrap;html=1;align=center;movable=1;resizable=1;rotatable=1;deletable=1;editable=1;locked=0;connectable=1;container=0;" vertex="1" parent="zRi4qjUtURZeb13-JNOz-1157">
          <mxGeometry x="625" y="45" width="100" height="40" as="geometry" />
        </mxCell>
        <mxCell id="zRi4qjUtURZeb13-JNOz-757" value="&lt;div style=&quot;text-align: left;&quot;&gt;&lt;span style=&quot;background-color: transparent;&quot;&gt;&lt;font color=&quot;#46495d&quot;&gt;username&lt;/font&gt;&lt;/span&gt;&lt;/div&gt;" style="ellipse;whiteSpace=wrap;html=1;align=center;movable=1;resizable=1;rotatable=1;deletable=1;editable=1;locked=0;connectable=1;container=0;" vertex="1" parent="zRi4qjUtURZeb13-JNOz-1157">
          <mxGeometry x="460" y="145" width="100" height="40" as="geometry" />
        </mxCell>
        <mxCell id="zRi4qjUtURZeb13-JNOz-758" style="edgeStyle=orthogonalEdgeStyle;rounded=0;orthogonalLoop=1;jettySize=auto;html=1;entryX=0.728;entryY=0.961;entryDx=0;entryDy=0;endArrow=none;endFill=0;exitX=0.25;exitY=0;exitDx=0;exitDy=0;curved=1;entryPerimeter=0;strokeColor=default;movable=1;resizable=1;rotatable=1;deletable=1;editable=1;locked=0;connectable=1;" edge="1" parent="zRi4qjUtURZeb13-JNOz-1157" source="zRi4qjUtURZeb13-JNOz-754" target="zRi4qjUtURZeb13-JNOz-755">
          <mxGeometry relative="1" as="geometry">
            <mxPoint x="615" y="95" as="sourcePoint" />
            <mxPoint x="585" y="95" as="targetPoint" />
          </mxGeometry>
        </mxCell>
        <mxCell id="zRi4qjUtURZeb13-JNOz-759" style="edgeStyle=orthogonalEdgeStyle;rounded=0;orthogonalLoop=1;jettySize=auto;html=1;entryX=0.5;entryY=1;entryDx=0;entryDy=0;endArrow=none;endFill=0;curved=1;movable=1;resizable=1;rotatable=1;deletable=1;editable=1;locked=0;connectable=1;" edge="1" parent="zRi4qjUtURZeb13-JNOz-1157" target="zRi4qjUtURZeb13-JNOz-756">
          <mxGeometry relative="1" as="geometry">
            <mxPoint x="645" y="105" as="sourcePoint" />
            <mxPoint x="585" y="95" as="targetPoint" />
          </mxGeometry>
        </mxCell>
        <mxCell id="zRi4qjUtURZeb13-JNOz-760" value="&lt;span style=&quot;color: rgb(70, 73, 93); text-align: left;&quot;&gt;id&lt;/span&gt;" style="ellipse;whiteSpace=wrap;html=1;align=center;movable=1;resizable=1;rotatable=1;deletable=1;editable=1;locked=0;connectable=1;container=0;" vertex="1" parent="zRi4qjUtURZeb13-JNOz-1157">
          <mxGeometry x="60" y="170" width="100" height="40" as="geometry" />
        </mxCell>
        <mxCell id="zRi4qjUtURZeb13-JNOz-761" style="edgeStyle=orthogonalEdgeStyle;rounded=0;orthogonalLoop=1;jettySize=auto;html=1;entryX=1;entryY=0.5;entryDx=0;entryDy=0;endArrow=none;endFill=0;curved=1;exitX=0.5;exitY=1;exitDx=0;exitDy=0;movable=1;resizable=1;rotatable=1;deletable=1;editable=1;locked=0;connectable=1;" edge="1" parent="zRi4qjUtURZeb13-JNOz-1157" source="zRi4qjUtURZeb13-JNOz-747" target="zRi4qjUtURZeb13-JNOz-760">
          <mxGeometry relative="1" as="geometry">
            <mxPoint x="180" y="140" as="sourcePoint" />
            <mxPoint x="140" y="140" as="targetPoint" />
          </mxGeometry>
        </mxCell>
        <mxCell id="zRi4qjUtURZeb13-JNOz-762" value="&lt;span style=&quot;color: rgb(70, 73, 93); text-align: left;&quot;&gt;id&lt;/span&gt;" style="ellipse;whiteSpace=wrap;html=1;align=center;movable=1;resizable=1;rotatable=1;deletable=1;editable=1;locked=0;connectable=1;container=0;" vertex="1" parent="zRi4qjUtURZeb13-JNOz-1157">
          <mxGeometry x="555" y="165" width="100" height="40" as="geometry" />
        </mxCell>
        <mxCell id="zRi4qjUtURZeb13-JNOz-763" style="edgeStyle=orthogonalEdgeStyle;rounded=0;orthogonalLoop=1;jettySize=auto;html=1;entryX=0.5;entryY=0;entryDx=0;entryDy=0;endArrow=none;endFill=0;curved=1;exitX=0.25;exitY=1;exitDx=0;exitDy=0;movable=1;resizable=1;rotatable=1;deletable=1;editable=1;locked=0;connectable=1;" edge="1" parent="zRi4qjUtURZeb13-JNOz-1157" source="zRi4qjUtURZeb13-JNOz-754" target="zRi4qjUtURZeb13-JNOz-762">
          <mxGeometry relative="1" as="geometry">
            <mxPoint x="615" y="135" as="sourcePoint" />
            <mxPoint x="575" y="135" as="targetPoint" />
          </mxGeometry>
        </mxCell>
        <mxCell id="zRi4qjUtURZeb13-JNOz-764" value="&lt;span style=&quot;color: rgb(70, 73, 93); text-align: left;&quot;&gt;created_at&lt;/span&gt;" style="ellipse;whiteSpace=wrap;html=1;align=center;movable=1;resizable=1;rotatable=1;deletable=1;editable=1;locked=0;connectable=1;container=0;" vertex="1" parent="zRi4qjUtURZeb13-JNOz-1157">
          <mxGeometry x="705" y="85" width="100" height="40" as="geometry" />
        </mxCell>
        <mxCell id="zRi4qjUtURZeb13-JNOz-765" style="edgeStyle=orthogonalEdgeStyle;rounded=0;orthogonalLoop=1;jettySize=auto;html=1;entryX=0;entryY=0.5;entryDx=0;entryDy=0;endArrow=none;endFill=0;curved=1;exitX=1;exitY=0.25;exitDx=0;exitDy=0;movable=1;resizable=1;rotatable=1;deletable=1;editable=1;locked=0;connectable=1;" edge="1" parent="zRi4qjUtURZeb13-JNOz-1157" source="zRi4qjUtURZeb13-JNOz-754" target="zRi4qjUtURZeb13-JNOz-764">
          <mxGeometry relative="1" as="geometry">
            <mxPoint x="665" y="105" as="sourcePoint" />
            <mxPoint x="695" y="85" as="targetPoint" />
          </mxGeometry>
        </mxCell>
        <mxCell id="zRi4qjUtURZeb13-JNOz-766" style="edgeStyle=orthogonalEdgeStyle;rounded=0;orthogonalLoop=1;jettySize=auto;html=1;entryX=1;entryY=0;entryDx=0;entryDy=0;endArrow=none;endFill=0;curved=1;exitX=0.079;exitY=1.017;exitDx=0;exitDy=0;exitPerimeter=0;movable=1;resizable=1;rotatable=1;deletable=1;editable=1;locked=0;connectable=1;" edge="1" parent="zRi4qjUtURZeb13-JNOz-1157" source="zRi4qjUtURZeb13-JNOz-767" target="zRi4qjUtURZeb13-JNOz-770">
          <mxGeometry relative="1" as="geometry">
            <mxPoint x="630" y="390" as="sourcePoint" />
          </mxGeometry>
        </mxCell>
        <mxCell id="zRi4qjUtURZeb13-JNOz-767" value="books" style="whiteSpace=wrap;html=1;align=center;movable=1;resizable=1;rotatable=1;deletable=1;editable=1;locked=0;connectable=1;container=0;" vertex="1" parent="zRi4qjUtURZeb13-JNOz-1157">
          <mxGeometry x="635" y="360" width="100" height="40" as="geometry" />
        </mxCell>
        <mxCell id="zRi4qjUtURZeb13-JNOz-768" value="&lt;span style=&quot;color: rgb(70, 73, 93); text-align: left;&quot;&gt;writer&lt;/span&gt;" style="ellipse;whiteSpace=wrap;html=1;align=center;movable=1;resizable=1;rotatable=1;deletable=1;editable=1;locked=0;connectable=1;container=0;" vertex="1" parent="zRi4qjUtURZeb13-JNOz-1157">
          <mxGeometry x="560" y="310" width="100" height="40" as="geometry" />
        </mxCell>
        <mxCell id="zRi4qjUtURZeb13-JNOz-769" value="&lt;span style=&quot;color: rgb(70, 73, 93); text-align: left;&quot;&gt;file_mime_type&lt;/span&gt;" style="ellipse;whiteSpace=wrap;html=1;align=center;movable=1;resizable=1;rotatable=1;deletable=1;editable=1;locked=0;connectable=1;container=0;" vertex="1" parent="zRi4qjUtURZeb13-JNOz-1157">
          <mxGeometry x="620" y="270" width="100" height="40" as="geometry" />
        </mxCell>
        <mxCell id="zRi4qjUtURZeb13-JNOz-770" value="&lt;div style=&quot;text-align: left;&quot;&gt;&lt;span style=&quot;background-color: transparent;&quot;&gt;&lt;font color=&quot;#46495d&quot;&gt;title&lt;/font&gt;&lt;/span&gt;&lt;/div&gt;" style="ellipse;whiteSpace=wrap;html=1;align=center;movable=1;resizable=1;rotatable=1;deletable=1;editable=1;locked=0;connectable=1;container=0;" vertex="1" parent="zRi4qjUtURZeb13-JNOz-1157">
          <mxGeometry x="520" y="450" width="100" height="40" as="geometry" />
        </mxCell>
        <mxCell id="zRi4qjUtURZeb13-JNOz-771" style="edgeStyle=orthogonalEdgeStyle;rounded=0;orthogonalLoop=1;jettySize=auto;html=1;entryX=0.728;entryY=0.961;entryDx=0;entryDy=0;endArrow=none;endFill=0;exitX=0.25;exitY=0;exitDx=0;exitDy=0;curved=1;entryPerimeter=0;strokeColor=default;movable=1;resizable=1;rotatable=1;deletable=1;editable=1;locked=0;connectable=1;" edge="1" parent="zRi4qjUtURZeb13-JNOz-1157" source="zRi4qjUtURZeb13-JNOz-767" target="zRi4qjUtURZeb13-JNOz-768">
          <mxGeometry relative="1" as="geometry">
            <mxPoint x="665" y="350" as="sourcePoint" />
            <mxPoint x="635" y="350" as="targetPoint" />
          </mxGeometry>
        </mxCell>
        <mxCell id="zRi4qjUtURZeb13-JNOz-772" style="edgeStyle=orthogonalEdgeStyle;rounded=0;orthogonalLoop=1;jettySize=auto;html=1;entryX=0.5;entryY=1;entryDx=0;entryDy=0;endArrow=none;endFill=0;curved=1;movable=1;resizable=1;rotatable=1;deletable=1;editable=1;locked=0;connectable=1;" edge="1" parent="zRi4qjUtURZeb13-JNOz-1157" target="zRi4qjUtURZeb13-JNOz-769">
          <mxGeometry relative="1" as="geometry">
            <mxPoint x="695" y="360" as="sourcePoint" />
            <mxPoint x="635" y="350" as="targetPoint" />
          </mxGeometry>
        </mxCell>
        <mxCell id="zRi4qjUtURZeb13-JNOz-773" value="&lt;span style=&quot;color: rgb(70, 73, 93); text-align: left;&quot;&gt;id&lt;/span&gt;" style="ellipse;whiteSpace=wrap;html=1;align=center;movable=1;resizable=1;rotatable=1;deletable=1;editable=1;locked=0;connectable=1;container=0;" vertex="1" parent="zRi4qjUtURZeb13-JNOz-1157">
          <mxGeometry x="585" y="490" width="100" height="40" as="geometry" />
        </mxCell>
        <mxCell id="zRi4qjUtURZeb13-JNOz-774" value="&lt;span style=&quot;color: rgb(70, 73, 93); text-align: left;&quot;&gt;file_path&lt;/span&gt;" style="ellipse;whiteSpace=wrap;html=1;align=center;movable=1;resizable=1;rotatable=1;deletable=1;editable=1;locked=0;connectable=1;container=0;" vertex="1" parent="zRi4qjUtURZeb13-JNOz-1157">
          <mxGeometry x="755" y="340" width="100" height="40" as="geometry" />
        </mxCell>
        <mxCell id="zRi4qjUtURZeb13-JNOz-775" style="edgeStyle=orthogonalEdgeStyle;rounded=0;orthogonalLoop=1;jettySize=auto;html=1;entryX=0;entryY=0.5;entryDx=0;entryDy=0;endArrow=none;endFill=0;curved=1;exitX=1;exitY=0.25;exitDx=0;exitDy=0;movable=1;resizable=1;rotatable=1;deletable=1;editable=1;locked=0;connectable=1;" edge="1" parent="zRi4qjUtURZeb13-JNOz-1157" source="zRi4qjUtURZeb13-JNOz-767" target="zRi4qjUtURZeb13-JNOz-774">
          <mxGeometry relative="1" as="geometry">
            <mxPoint x="715" y="360" as="sourcePoint" />
            <mxPoint x="745" y="340" as="targetPoint" />
          </mxGeometry>
        </mxCell>
        <mxCell id="zRi4qjUtURZeb13-JNOz-776" style="edgeStyle=orthogonalEdgeStyle;rounded=0;orthogonalLoop=1;jettySize=auto;html=1;entryX=1;entryY=0.5;entryDx=0;entryDy=0;endArrow=none;endFill=0;curved=1;movable=1;resizable=1;rotatable=1;deletable=1;editable=1;locked=0;connectable=1;" edge="1" parent="zRi4qjUtURZeb13-JNOz-1157" source="zRi4qjUtURZeb13-JNOz-777" target="zRi4qjUtURZeb13-JNOz-779">
          <mxGeometry relative="1" as="geometry" />
        </mxCell>
        <mxCell id="zRi4qjUtURZeb13-JNOz-777" value="book_category" style="whiteSpace=wrap;html=1;align=center;movable=1;resizable=1;rotatable=1;deletable=1;editable=1;locked=0;connectable=1;container=0;" vertex="1" parent="zRi4qjUtURZeb13-JNOz-1157">
          <mxGeometry x="145" y="335" width="100" height="40" as="geometry" />
        </mxCell>
        <mxCell id="zRi4qjUtURZeb13-JNOz-778" value="&lt;span style=&quot;color: rgb(70, 73, 93); text-align: left;&quot;&gt;category_id&lt;/span&gt;" style="ellipse;whiteSpace=wrap;html=1;align=center;movable=1;resizable=1;rotatable=1;deletable=1;editable=1;locked=0;connectable=1;container=0;" vertex="1" parent="zRi4qjUtURZeb13-JNOz-1157">
          <mxGeometry x="40" y="295" width="100" height="40" as="geometry" />
        </mxCell>
        <mxCell id="zRi4qjUtURZeb13-JNOz-779" value="&lt;div style=&quot;text-align: left;&quot;&gt;&lt;span style=&quot;background-color: transparent;&quot;&gt;&lt;font color=&quot;#46495d&quot;&gt;book_id&lt;/font&gt;&lt;/span&gt;&lt;/div&gt;" style="ellipse;whiteSpace=wrap;html=1;align=center;movable=1;resizable=1;rotatable=1;deletable=1;editable=1;locked=0;connectable=1;container=0;" vertex="1" parent="zRi4qjUtURZeb13-JNOz-1157">
          <mxGeometry x="20" y="375" width="100" height="40" as="geometry" />
        </mxCell>
        <mxCell id="zRi4qjUtURZeb13-JNOz-780" style="edgeStyle=orthogonalEdgeStyle;rounded=0;orthogonalLoop=1;jettySize=auto;html=1;entryX=0.728;entryY=0.961;entryDx=0;entryDy=0;endArrow=none;endFill=0;curved=1;entryPerimeter=0;strokeColor=default;movable=1;resizable=1;rotatable=1;deletable=1;editable=1;locked=0;connectable=1;" edge="1" parent="zRi4qjUtURZeb13-JNOz-1157" target="zRi4qjUtURZeb13-JNOz-778">
          <mxGeometry relative="1" as="geometry">
            <mxPoint x="145" y="345" as="sourcePoint" />
            <mxPoint x="145" y="325" as="targetPoint" />
          </mxGeometry>
        </mxCell>
        <mxCell id="zRi4qjUtURZeb13-JNOz-781" value="&lt;span style=&quot;color: rgb(70, 73, 93); text-align: left;&quot;&gt;id&lt;/span&gt;" style="ellipse;whiteSpace=wrap;html=1;align=center;movable=1;resizable=1;rotatable=1;deletable=1;editable=1;locked=0;connectable=1;container=0;" vertex="1" parent="zRi4qjUtURZeb13-JNOz-1157">
          <mxGeometry x="115" y="395" width="100" height="40" as="geometry" />
        </mxCell>
        <mxCell id="zRi4qjUtURZeb13-JNOz-782" style="edgeStyle=orthogonalEdgeStyle;rounded=0;orthogonalLoop=1;jettySize=auto;html=1;entryX=0.5;entryY=0;entryDx=0;entryDy=0;endArrow=none;endFill=0;curved=1;exitX=0.25;exitY=1;exitDx=0;exitDy=0;movable=1;resizable=1;rotatable=1;deletable=1;editable=1;locked=0;connectable=1;" edge="1" parent="zRi4qjUtURZeb13-JNOz-1157" source="zRi4qjUtURZeb13-JNOz-777" target="zRi4qjUtURZeb13-JNOz-781">
          <mxGeometry relative="1" as="geometry">
            <mxPoint x="175" y="365" as="sourcePoint" />
            <mxPoint x="135" y="365" as="targetPoint" />
          </mxGeometry>
        </mxCell>
        <mxCell id="zRi4qjUtURZeb13-JNOz-783" style="edgeStyle=orthogonalEdgeStyle;rounded=0;orthogonalLoop=1;jettySize=auto;html=1;entryX=1;entryY=0.5;entryDx=0;entryDy=0;endArrow=none;endFill=0;curved=1;movable=1;resizable=1;rotatable=1;deletable=1;editable=1;locked=0;connectable=1;" edge="1" parent="zRi4qjUtURZeb13-JNOz-1157" source="zRi4qjUtURZeb13-JNOz-784" target="zRi4qjUtURZeb13-JNOz-785">
          <mxGeometry relative="1" as="geometry" />
        </mxCell>
        <mxCell id="zRi4qjUtURZeb13-JNOz-784" value="category" style="whiteSpace=wrap;html=1;align=center;movable=1;resizable=1;rotatable=1;deletable=1;editable=1;locked=0;connectable=1;container=0;" vertex="1" parent="zRi4qjUtURZeb13-JNOz-1157">
          <mxGeometry x="180" y="530" width="100" height="40" as="geometry" />
        </mxCell>
        <mxCell id="zRi4qjUtURZeb13-JNOz-785" value="&lt;div style=&quot;text-align: left;&quot;&gt;&lt;span style=&quot;background-color: transparent;&quot;&gt;&lt;font color=&quot;#46495d&quot;&gt;category_name&lt;/font&gt;&lt;/span&gt;&lt;/div&gt;" style="ellipse;whiteSpace=wrap;html=1;align=center;movable=1;resizable=1;rotatable=1;deletable=1;editable=1;locked=0;connectable=1;container=0;" vertex="1" parent="zRi4qjUtURZeb13-JNOz-1157">
          <mxGeometry x="55" y="550" width="100" height="40" as="geometry" />
        </mxCell>
        <mxCell id="zRi4qjUtURZeb13-JNOz-786" value="&lt;span style=&quot;color: rgb(70, 73, 93); text-align: left;&quot;&gt;id&lt;/span&gt;" style="ellipse;whiteSpace=wrap;html=1;align=center;movable=1;resizable=1;rotatable=1;deletable=1;editable=1;locked=0;connectable=1;container=0;" vertex="1" parent="zRi4qjUtURZeb13-JNOz-1157">
          <mxGeometry x="150" y="590" width="100" height="40" as="geometry" />
        </mxCell>
        <mxCell id="zRi4qjUtURZeb13-JNOz-787" style="edgeStyle=orthogonalEdgeStyle;rounded=0;orthogonalLoop=1;jettySize=auto;html=1;entryX=0.5;entryY=0;entryDx=0;entryDy=0;endArrow=none;endFill=0;curved=1;exitX=0.25;exitY=1;exitDx=0;exitDy=0;movable=1;resizable=1;rotatable=1;deletable=1;editable=1;locked=0;connectable=1;" edge="1" parent="zRi4qjUtURZeb13-JNOz-1157" source="zRi4qjUtURZeb13-JNOz-784" target="zRi4qjUtURZeb13-JNOz-786">
          <mxGeometry relative="1" as="geometry">
            <mxPoint x="210" y="560" as="sourcePoint" />
            <mxPoint x="170" y="560" as="targetPoint" />
          </mxGeometry>
        </mxCell>
        <mxCell id="zRi4qjUtURZeb13-JNOz-788" value="&lt;span style=&quot;color: rgb(70, 73, 93); text-align: left;&quot;&gt;cover_file_name&lt;/span&gt;" style="ellipse;whiteSpace=wrap;html=1;align=center;movable=1;resizable=1;rotatable=1;deletable=1;editable=1;locked=0;connectable=1;container=0;" vertex="1" parent="zRi4qjUtURZeb13-JNOz-1157">
          <mxGeometry x="800" y="400" width="100" height="40" as="geometry" />
        </mxCell>
        <mxCell id="zRi4qjUtURZeb13-JNOz-789" style="edgeStyle=orthogonalEdgeStyle;rounded=0;orthogonalLoop=1;jettySize=auto;html=1;entryX=0;entryY=0;entryDx=0;entryDy=0;endArrow=none;endFill=0;curved=1;exitX=1;exitY=0.75;exitDx=0;exitDy=0;movable=1;resizable=1;rotatable=1;deletable=1;editable=1;locked=0;connectable=1;" edge="1" parent="zRi4qjUtURZeb13-JNOz-1157" source="zRi4qjUtURZeb13-JNOz-767" target="zRi4qjUtURZeb13-JNOz-788">
          <mxGeometry relative="1" as="geometry">
            <mxPoint x="810" y="440" as="sourcePoint" />
            <mxPoint x="820" y="410" as="targetPoint" />
          </mxGeometry>
        </mxCell>
        <mxCell id="zRi4qjUtURZeb13-JNOz-790" value="&lt;span style=&quot;color: rgb(70, 73, 93); text-align: left;&quot;&gt;cover-mime_type&lt;/span&gt;" style="ellipse;whiteSpace=wrap;html=1;align=center;movable=1;resizable=1;rotatable=1;deletable=1;editable=1;locked=0;connectable=1;container=0;" vertex="1" parent="zRi4qjUtURZeb13-JNOz-1157">
          <mxGeometry x="810" y="450" width="100" height="40" as="geometry" />
        </mxCell>
        <mxCell id="zRi4qjUtURZeb13-JNOz-791" style="edgeStyle=orthogonalEdgeStyle;rounded=0;orthogonalLoop=1;jettySize=auto;html=1;entryX=0;entryY=0.5;entryDx=0;entryDy=0;endArrow=none;endFill=0;curved=1;exitX=0.75;exitY=1;exitDx=0;exitDy=0;movable=1;resizable=1;rotatable=1;deletable=1;editable=1;locked=0;connectable=1;" edge="1" parent="zRi4qjUtURZeb13-JNOz-1157" source="zRi4qjUtURZeb13-JNOz-767" target="zRi4qjUtURZeb13-JNOz-790">
          <mxGeometry relative="1" as="geometry">
            <mxPoint x="840" y="470" as="sourcePoint" />
            <mxPoint x="850" y="440" as="targetPoint" />
          </mxGeometry>
        </mxCell>
        <mxCell id="zRi4qjUtURZeb13-JNOz-792" value="&lt;span style=&quot;color: rgb(70, 73, 93); text-align: left;&quot;&gt;cover&lt;/span&gt;" style="ellipse;whiteSpace=wrap;html=1;align=center;movable=1;resizable=1;rotatable=1;deletable=1;editable=1;locked=0;connectable=1;container=0;" vertex="1" parent="zRi4qjUtURZeb13-JNOz-1157">
          <mxGeometry x="785" y="500" width="100" height="40" as="geometry" />
        </mxCell>
        <mxCell id="zRi4qjUtURZeb13-JNOz-793" style="edgeStyle=orthogonalEdgeStyle;rounded=0;orthogonalLoop=1;jettySize=auto;html=1;entryX=0;entryY=0.5;entryDx=0;entryDy=0;endArrow=none;endFill=0;curved=1;exitX=0.603;exitY=1.05;exitDx=0;exitDy=0;exitPerimeter=0;movable=1;resizable=1;rotatable=1;deletable=1;editable=1;locked=0;connectable=1;" edge="1" parent="zRi4qjUtURZeb13-JNOz-1157" source="zRi4qjUtURZeb13-JNOz-767" target="zRi4qjUtURZeb13-JNOz-792">
          <mxGeometry relative="1" as="geometry">
            <mxPoint x="720" y="510" as="sourcePoint" />
            <mxPoint x="730" y="480" as="targetPoint" />
            <Array as="points">
              <mxPoint x="695" y="520" />
            </Array>
          </mxGeometry>
        </mxCell>
        <mxCell id="zRi4qjUtURZeb13-JNOz-794" value="&lt;span style=&quot;color: rgb(70, 73, 93); text-align: left;&quot;&gt;created_at&lt;/span&gt;" style="ellipse;whiteSpace=wrap;html=1;align=center;movable=1;resizable=1;rotatable=1;deletable=1;editable=1;locked=0;connectable=1;container=0;" vertex="1" parent="zRi4qjUtURZeb13-JNOz-1157">
          <mxGeometry x="645" y="530" width="100" height="40" as="geometry" />
        </mxCell>
        <mxCell id="zRi4qjUtURZeb13-JNOz-795" style="edgeStyle=orthogonalEdgeStyle;rounded=0;orthogonalLoop=1;jettySize=auto;html=1;exitX=0.5;exitY=1;exitDx=0;exitDy=0;movable=1;resizable=1;rotatable=1;deletable=1;editable=1;locked=0;connectable=1;" edge="1" parent="zRi4qjUtURZeb13-JNOz-1157" source="zRi4qjUtURZeb13-JNOz-792" target="zRi4qjUtURZeb13-JNOz-792">
          <mxGeometry relative="1" as="geometry" />
        </mxCell>
        <mxCell id="zRi4qjUtURZeb13-JNOz-796" value="ditandai" style="shape=rhombus;perimeter=rhombusPerimeter;whiteSpace=wrap;html=1;align=center;movable=1;resizable=1;rotatable=1;deletable=1;editable=1;locked=0;connectable=1;container=0;" vertex="1" parent="zRi4qjUtURZeb13-JNOz-1157">
          <mxGeometry x="280" y="100" width="120" height="60" as="geometry" />
        </mxCell>
        <mxCell id="zRi4qjUtURZeb13-JNOz-797" value="" style="edgeStyle=orthogonalEdgeStyle;fontSize=12;html=1;endArrow=ERoneToMany;rounded=0;entryX=1;entryY=0.25;entryDx=0;entryDy=0;exitX=0;exitY=0.5;exitDx=0;exitDy=0;movable=1;resizable=1;rotatable=1;deletable=1;editable=1;locked=0;connectable=1;" edge="1" parent="zRi4qjUtURZeb13-JNOz-1157" source="zRi4qjUtURZeb13-JNOz-796" target="zRi4qjUtURZeb13-JNOz-747">
          <mxGeometry width="100" height="100" relative="1" as="geometry">
            <mxPoint x="330" y="125" as="sourcePoint" />
            <mxPoint x="490" y="130" as="targetPoint" />
          </mxGeometry>
        </mxCell>
        <mxCell id="zRi4qjUtURZeb13-JNOz-798" value="" style="edgeStyle=orthogonalEdgeStyle;fontSize=12;html=1;endArrow=ERone;endFill=1;rounded=0;entryX=0;entryY=0.25;entryDx=0;entryDy=0;exitX=1;exitY=0.5;exitDx=0;exitDy=0;movable=1;resizable=1;rotatable=1;deletable=1;editable=1;locked=0;connectable=1;" edge="1" parent="zRi4qjUtURZeb13-JNOz-1157" source="zRi4qjUtURZeb13-JNOz-796" target="zRi4qjUtURZeb13-JNOz-754">
          <mxGeometry width="100" height="100" relative="1" as="geometry">
            <mxPoint x="390" y="260" as="sourcePoint" />
            <mxPoint x="490" y="160" as="targetPoint" />
            <Array as="points">
              <mxPoint x="490" y="130" />
              <mxPoint x="490" y="115" />
            </Array>
          </mxGeometry>
        </mxCell>
        <mxCell id="zRi4qjUtURZeb13-JNOz-799" value="memiliki" style="shape=rhombus;perimeter=rhombusPerimeter;whiteSpace=wrap;html=1;align=center;movable=1;resizable=1;rotatable=1;deletable=1;editable=1;locked=0;connectable=1;container=0;" vertex="1" parent="zRi4qjUtURZeb13-JNOz-1157">
          <mxGeometry x="434" y="285" width="120" height="60" as="geometry" />
        </mxCell>
        <mxCell id="zRi4qjUtURZeb13-JNOz-800" value="" style="fontSize=12;html=1;endArrow=ERmany;rounded=0;entryX=0.75;entryY=1;entryDx=0;entryDy=0;exitX=0;exitY=0.5;exitDx=0;exitDy=0;edgeStyle=orthogonalEdgeStyle;curved=0;movable=1;resizable=1;rotatable=1;deletable=1;editable=1;locked=0;connectable=1;" edge="1" parent="zRi4qjUtURZeb13-JNOz-1157" source="zRi4qjUtURZeb13-JNOz-799" target="zRi4qjUtURZeb13-JNOz-747">
          <mxGeometry width="100" height="100" relative="1" as="geometry">
            <mxPoint x="250" y="260" as="sourcePoint" />
            <mxPoint x="350" y="160" as="targetPoint" />
          </mxGeometry>
        </mxCell>
        <mxCell id="zRi4qjUtURZeb13-JNOz-801" value="" style="edgeStyle=orthogonalEdgeStyle;fontSize=12;html=1;endArrow=ERone;endFill=1;rounded=0;entryX=0;entryY=0.25;entryDx=0;entryDy=0;exitX=0.5;exitY=1;exitDx=0;exitDy=0;movable=1;resizable=1;rotatable=1;deletable=1;editable=1;locked=0;connectable=1;" edge="1" parent="zRi4qjUtURZeb13-JNOz-1157" source="zRi4qjUtURZeb13-JNOz-799" target="zRi4qjUtURZeb13-JNOz-767">
          <mxGeometry width="100" height="100" relative="1" as="geometry">
            <mxPoint x="450" y="265" as="sourcePoint" />
            <mxPoint x="605" y="250" as="targetPoint" />
            <Array as="points">
              <mxPoint x="494" y="370" />
            </Array>
          </mxGeometry>
        </mxCell>
        <mxCell id="zRi4qjUtURZeb13-JNOz-802" value="terdapat" style="shape=rhombus;perimeter=rhombusPerimeter;whiteSpace=wrap;html=1;align=center;movable=1;resizable=1;rotatable=1;deletable=1;editable=1;locked=0;connectable=1;container=0;" vertex="1" parent="zRi4qjUtURZeb13-JNOz-1157">
          <mxGeometry x="290" y="360" width="120" height="60" as="geometry" />
        </mxCell>
        <mxCell id="zRi4qjUtURZeb13-JNOz-803" style="edgeStyle=orthogonalEdgeStyle;rounded=0;orthogonalLoop=1;jettySize=auto;html=1;entryX=0.5;entryY=0;entryDx=0;entryDy=0;endArrow=none;endFill=0;curved=1;exitX=0.337;exitY=1.061;exitDx=0;exitDy=0;exitPerimeter=0;movable=1;resizable=1;rotatable=1;deletable=1;editable=1;locked=0;connectable=1;" edge="1" parent="zRi4qjUtURZeb13-JNOz-1157" source="zRi4qjUtURZeb13-JNOz-767" target="zRi4qjUtURZeb13-JNOz-773">
          <mxGeometry relative="1" as="geometry">
            <mxPoint x="690" y="430" as="sourcePoint" />
            <mxPoint x="630" y="496" as="targetPoint" />
          </mxGeometry>
        </mxCell>
        <mxCell id="zRi4qjUtURZeb13-JNOz-804" style="edgeStyle=orthogonalEdgeStyle;rounded=0;orthogonalLoop=1;jettySize=auto;html=1;entryX=0.5;entryY=0;entryDx=0;entryDy=0;endArrow=none;endFill=0;curved=1;exitX=0.5;exitY=1;exitDx=0;exitDy=0;movable=1;resizable=1;rotatable=1;deletable=1;editable=1;locked=0;connectable=1;" edge="1" parent="zRi4qjUtURZeb13-JNOz-1157" source="zRi4qjUtURZeb13-JNOz-767" target="zRi4qjUtURZeb13-JNOz-794">
          <mxGeometry relative="1" as="geometry">
            <mxPoint x="690" y="470" as="sourcePoint" />
            <mxPoint x="790" y="590" as="targetPoint" />
          </mxGeometry>
        </mxCell>
        <mxCell id="zRi4qjUtURZeb13-JNOz-805" value="" style="edgeStyle=orthogonalEdgeStyle;fontSize=12;html=1;endArrow=ERone;endFill=1;rounded=0;entryX=0;entryY=0.75;entryDx=0;entryDy=0;exitX=1;exitY=0.5;exitDx=0;exitDy=0;movable=1;resizable=1;rotatable=1;deletable=1;editable=1;locked=0;connectable=1;" edge="1" parent="zRi4qjUtURZeb13-JNOz-1157" source="zRi4qjUtURZeb13-JNOz-802" target="zRi4qjUtURZeb13-JNOz-767">
          <mxGeometry width="100" height="100" relative="1" as="geometry">
            <mxPoint x="470" y="410" as="sourcePoint" />
            <mxPoint x="655" y="620" as="targetPoint" />
            <Array as="points">
              <mxPoint x="490" y="390" />
              <mxPoint x="490" y="390" />
            </Array>
          </mxGeometry>
        </mxCell>
        <mxCell id="zRi4qjUtURZeb13-JNOz-806" value="" style="fontSize=12;html=1;endArrow=ERmany;rounded=0;entryX=1;entryY=0.5;entryDx=0;entryDy=0;exitX=0;exitY=0.5;exitDx=0;exitDy=0;edgeStyle=orthogonalEdgeStyle;movable=1;resizable=1;rotatable=1;deletable=1;editable=1;locked=0;connectable=1;" edge="1" parent="zRi4qjUtURZeb13-JNOz-1157" source="zRi4qjUtURZeb13-JNOz-802" target="zRi4qjUtURZeb13-JNOz-777">
          <mxGeometry width="100" height="100" relative="1" as="geometry">
            <mxPoint x="305" y="375" as="sourcePoint" />
            <mxPoint x="260" y="305" as="targetPoint" />
          </mxGeometry>
        </mxCell>
        <mxCell id="zRi4qjUtURZeb13-JNOz-807" value="diterapkan" style="shape=rhombus;perimeter=rhombusPerimeter;whiteSpace=wrap;html=1;align=center;movable=1;resizable=1;rotatable=1;deletable=1;editable=1;locked=0;connectable=1;container=0;" vertex="1" parent="zRi4qjUtURZeb13-JNOz-1157">
          <mxGeometry x="290" y="470" width="120" height="60" as="geometry" />
        </mxCell>
        <mxCell id="zRi4qjUtURZeb13-JNOz-808" value="" style="edgeStyle=orthogonalEdgeStyle;fontSize=12;html=1;endArrow=ERone;endFill=1;rounded=0;entryX=1;entryY=0.5;entryDx=0;entryDy=0;exitX=0.5;exitY=1;exitDx=0;exitDy=0;movable=1;resizable=1;rotatable=1;deletable=1;editable=1;locked=0;connectable=1;" edge="1" parent="zRi4qjUtURZeb13-JNOz-1157" source="zRi4qjUtURZeb13-JNOz-807" target="zRi4qjUtURZeb13-JNOz-784">
          <mxGeometry width="100" height="100" relative="1" as="geometry">
            <mxPoint x="310" y="490" as="sourcePoint" />
            <mxPoint x="435" y="470" as="targetPoint" />
            <Array as="points">
              <mxPoint x="350" y="550" />
            </Array>
          </mxGeometry>
        </mxCell>
        <mxCell id="zRi4qjUtURZeb13-JNOz-809" value="" style="fontSize=12;html=1;endArrow=ERmany;rounded=0;exitX=0;exitY=0.5;exitDx=0;exitDy=0;edgeStyle=orthogonalEdgeStyle;entryX=0.866;entryY=1.084;entryDx=0;entryDy=0;entryPerimeter=0;movable=1;resizable=1;rotatable=1;deletable=1;editable=1;locked=0;connectable=1;" edge="1" parent="zRi4qjUtURZeb13-JNOz-1157" source="zRi4qjUtURZeb13-JNOz-807" target="zRi4qjUtURZeb13-JNOz-777">
          <mxGeometry width="100" height="100" relative="1" as="geometry">
            <mxPoint x="415" y="560" as="sourcePoint" />
            <mxPoint x="360" y="590" as="targetPoint" />
          </mxGeometry>
        </mxCell>
        <mxCell id="zRi4qjUtURZeb13-JNOz-822" style="edgeStyle=orthogonalEdgeStyle;rounded=0;orthogonalLoop=1;jettySize=auto;html=1;exitX=0.5;exitY=1;exitDx=0;exitDy=0;movable=1;resizable=1;rotatable=1;deletable=1;editable=1;locked=0;connectable=1;" edge="1" parent="zRi4qjUtURZeb13-JNOz-1157">
          <mxGeometry relative="1" as="geometry">
            <mxPoint x="1165" y="320" as="sourcePoint" />
            <mxPoint x="1165" y="320" as="targetPoint" />
          </mxGeometry>
        </mxCell>
        <mxCell id="zRi4qjUtURZeb13-JNOz-824" value="memiliki" style="shape=rhombus;perimeter=rhombusPerimeter;whiteSpace=wrap;html=1;align=center;movable=1;resizable=1;rotatable=1;deletable=1;editable=1;locked=0;connectable=1;container=0;" vertex="1" parent="zRi4qjUtURZeb13-JNOz-1157">
          <mxGeometry x="725" y="140" width="120" height="60" as="geometry" />
        </mxCell>
        <mxCell id="zRi4qjUtURZeb13-JNOz-825" value="" style="edgeStyle=orthogonalEdgeStyle;fontSize=12;html=1;endArrow=ERoneToMany;rounded=0;entryX=0;entryY=0.5;entryDx=0;entryDy=0;exitX=1;exitY=0.5;exitDx=0;exitDy=0;movable=1;resizable=1;rotatable=1;deletable=1;editable=1;locked=0;connectable=1;" edge="1" parent="zRi4qjUtURZeb13-JNOz-1157" source="zRi4qjUtURZeb13-JNOz-824" target="zRi4qjUtURZeb13-JNOz-810">
          <mxGeometry width="100" height="100" relative="1" as="geometry">
            <mxPoint x="707.5" y="225" as="sourcePoint" />
            <mxPoint x="637.5" y="230" as="targetPoint" />
          </mxGeometry>
        </mxCell>
        <mxCell id="zRi4qjUtURZeb13-JNOz-826" value="" style="edgeStyle=orthogonalEdgeStyle;fontSize=12;html=1;endArrow=ERone;endFill=1;rounded=0;entryX=0.893;entryY=1.04;entryDx=0;entryDy=0;exitX=0;exitY=0.5;exitDx=0;exitDy=0;entryPerimeter=0;movable=1;resizable=1;rotatable=1;deletable=1;editable=1;locked=0;connectable=1;" edge="1" parent="zRi4qjUtURZeb13-JNOz-1157" source="zRi4qjUtURZeb13-JNOz-824" target="zRi4qjUtURZeb13-JNOz-754">
          <mxGeometry width="100" height="100" relative="1" as="geometry">
            <mxPoint x="767.5" y="360" as="sourcePoint" />
            <mxPoint x="962.5" y="215" as="targetPoint" />
            <Array as="points">
              <mxPoint x="674" y="170" />
            </Array>
          </mxGeometry>
        </mxCell>
        <mxCell id="zRi4qjUtURZeb13-JNOz-829" value="" style="edgeStyle=orthogonalEdgeStyle;fontSize=12;html=1;endArrow=ERone;endFill=1;rounded=0;exitX=0;exitY=0.5;exitDx=0;exitDy=0;movable=1;resizable=1;rotatable=1;deletable=1;editable=1;locked=0;connectable=1;" edge="1" parent="zRi4qjUtURZeb13-JNOz-1157" source="zRi4qjUtURZeb13-JNOz-827">
          <mxGeometry width="100" height="100" relative="1" as="geometry">
            <mxPoint x="808.5" y="453" as="sourcePoint" />
            <mxPoint x="730" y="360" as="targetPoint" />
            <Array as="points">
              <mxPoint x="730" y="300" />
            </Array>
          </mxGeometry>
        </mxCell>
        <mxCell id="zRi4qjUtURZeb13-JNOz-746" style="edgeStyle=orthogonalEdgeStyle;rounded=0;orthogonalLoop=1;jettySize=auto;html=1;entryX=1;entryY=0.5;entryDx=0;entryDy=0;endArrow=none;endFill=0;curved=1;movable=1;resizable=1;rotatable=1;deletable=1;editable=1;locked=0;connectable=1;" edge="1" parent="zRi4qjUtURZeb13-JNOz-1157" source="zRi4qjUtURZeb13-JNOz-747" target="zRi4qjUtURZeb13-JNOz-750">
          <mxGeometry relative="1" as="geometry" />
        </mxCell>
        <mxCell id="zRi4qjUtURZeb13-JNOz-747" value="bookmark" style="whiteSpace=wrap;html=1;align=center;movable=1;resizable=1;rotatable=1;deletable=1;editable=1;locked=0;connectable=1;container=0;" vertex="1" parent="zRi4qjUtURZeb13-JNOz-1157">
          <mxGeometry x="160" y="120" width="100" height="40" as="geometry" />
        </mxCell>
        <mxCell id="zRi4qjUtURZeb13-JNOz-748" value="&lt;span style=&quot;color: rgb(70, 73, 93); text-align: left;&quot;&gt;user_id&lt;/span&gt;" style="ellipse;whiteSpace=wrap;html=1;align=center;movable=1;resizable=1;rotatable=1;deletable=1;editable=1;locked=0;connectable=1;container=0;" vertex="1" parent="zRi4qjUtURZeb13-JNOz-1157">
          <mxGeometry x="80" y="60" width="100" height="40" as="geometry" />
        </mxCell>
        <mxCell id="zRi4qjUtURZeb13-JNOz-749" value="&lt;span style=&quot;color: rgb(70, 73, 93); text-align: left;&quot;&gt;book_id&lt;/span&gt;" style="ellipse;whiteSpace=wrap;html=1;align=center;movable=1;resizable=1;rotatable=1;deletable=1;editable=1;locked=0;connectable=1;container=0;" vertex="1" parent="zRi4qjUtURZeb13-JNOz-1157">
          <mxGeometry x="200" y="60" width="100" height="40" as="geometry" />
        </mxCell>
        <mxCell id="zRi4qjUtURZeb13-JNOz-750" value="&lt;span style=&quot;color: rgb(70, 73, 93); text-align: left;&quot;&gt;created_at&lt;/span&gt;" style="ellipse;whiteSpace=wrap;html=1;align=center;movable=1;resizable=1;rotatable=1;deletable=1;editable=1;locked=0;connectable=1;container=0;" vertex="1" parent="zRi4qjUtURZeb13-JNOz-1157">
          <mxGeometry x="20" y="120" width="100" height="40" as="geometry" />
        </mxCell>
        <mxCell id="zRi4qjUtURZeb13-JNOz-751" style="edgeStyle=orthogonalEdgeStyle;rounded=0;orthogonalLoop=1;jettySize=auto;html=1;entryX=0.728;entryY=0.961;entryDx=0;entryDy=0;endArrow=none;endFill=0;exitX=0.25;exitY=0;exitDx=0;exitDy=0;curved=1;entryPerimeter=0;strokeColor=default;movable=1;resizable=1;rotatable=1;deletable=1;editable=1;locked=0;connectable=1;" edge="1" parent="zRi4qjUtURZeb13-JNOz-1157" source="zRi4qjUtURZeb13-JNOz-747" target="zRi4qjUtURZeb13-JNOz-748">
          <mxGeometry relative="1" as="geometry">
            <mxPoint x="190" y="110" as="sourcePoint" />
            <mxPoint x="160" y="110" as="targetPoint" />
          </mxGeometry>
        </mxCell>
        <mxCell id="zRi4qjUtURZeb13-JNOz-752" style="edgeStyle=orthogonalEdgeStyle;rounded=0;orthogonalLoop=1;jettySize=auto;html=1;entryX=0.5;entryY=1;entryDx=0;entryDy=0;endArrow=none;endFill=0;curved=1;movable=1;resizable=1;rotatable=1;deletable=1;editable=1;locked=0;connectable=1;" edge="1" parent="zRi4qjUtURZeb13-JNOz-1157" target="zRi4qjUtURZeb13-JNOz-749">
          <mxGeometry relative="1" as="geometry">
            <mxPoint x="220" y="120" as="sourcePoint" />
            <mxPoint x="160" y="110" as="targetPoint" />
          </mxGeometry>
        </mxCell>
        <mxCell id="zRi4qjUtURZeb13-JNOz-833" value="" style="rounded=0;whiteSpace=wrap;html=1;fillColor=none;dashed=1;fontColor=#ffffff;strokeColor=#A50040;container=0;" vertex="1" parent="zRi4qjUtURZeb13-JNOz-1157">
          <mxGeometry x="10" y="30" width="400" height="200" as="geometry" />
        </mxCell>
        <mxCell id="zRi4qjUtURZeb13-JNOz-834" value="" style="rounded=0;whiteSpace=wrap;html=1;fillColor=none;dashed=1;fontColor=#ffffff;strokeColor=#A50040;container=0;" vertex="1" parent="zRi4qjUtURZeb13-JNOz-1157">
          <mxGeometry x="440" y="20" width="420" height="200" as="geometry" />
        </mxCell>
        <mxCell id="zRi4qjUtURZeb13-JNOz-827" value="memiliki" style="shape=rhombus;perimeter=rhombusPerimeter;whiteSpace=wrap;html=1;align=center;movable=1;resizable=1;rotatable=1;deletable=1;editable=1;locked=0;connectable=1;container=0;" vertex="1" parent="zRi4qjUtURZeb13-JNOz-1157">
          <mxGeometry x="760" y="270" width="120" height="60" as="geometry" />
        </mxCell>
        <mxCell id="zRi4qjUtURZeb13-JNOz-835" value="" style="rounded=0;whiteSpace=wrap;html=1;fillColor=none;dashed=1;fontColor=#ffffff;strokeColor=#A50040;container=0;" vertex="1" parent="zRi4qjUtURZeb13-JNOz-1157">
          <mxGeometry x="890" y="20" width="360" height="220" as="geometry" />
        </mxCell>
        <mxCell id="zRi4qjUtURZeb13-JNOz-830" value="&lt;span style=&quot;color: rgb(70, 73, 93); text-align: left;&quot;&gt;id&lt;/span&gt;" style="ellipse;whiteSpace=wrap;html=1;align=center;movable=1;resizable=1;rotatable=1;deletable=1;editable=1;locked=0;connectable=1;container=0;" vertex="1" parent="zRi4qjUtURZeb13-JNOz-1157">
          <mxGeometry x="1050" y="30" width="100" height="40" as="geometry" />
        </mxCell>
        <mxCell id="zRi4qjUtURZeb13-JNOz-815" value="&lt;span style=&quot;color: rgb(70, 73, 93); text-align: left;&quot;&gt;location_current&lt;/span&gt;" style="ellipse;whiteSpace=wrap;html=1;align=center;movable=1;resizable=1;rotatable=1;deletable=1;editable=1;locked=0;connectable=1;container=0;" vertex="1" parent="zRi4qjUtURZeb13-JNOz-1157">
          <mxGeometry x="1140" y="60" width="100" height="40" as="geometry" />
        </mxCell>
        <mxCell id="zRi4qjUtURZeb13-JNOz-817" value="&lt;span style=&quot;color: rgb(70, 73, 93); text-align: left;&quot;&gt;location_total&lt;/span&gt;" style="ellipse;whiteSpace=wrap;html=1;align=center;movable=1;resizable=1;rotatable=1;deletable=1;editable=1;locked=0;connectable=1;container=0;" vertex="1" parent="zRi4qjUtURZeb13-JNOz-1157">
          <mxGeometry x="1140" y="110" width="100" height="40" as="geometry" />
        </mxCell>
        <mxCell id="zRi4qjUtURZeb13-JNOz-819" value="&lt;span style=&quot;color: rgb(70, 73, 93); text-align: left;&quot;&gt;last_cfi&lt;/span&gt;" style="ellipse;whiteSpace=wrap;html=1;align=center;movable=1;resizable=1;rotatable=1;deletable=1;editable=1;locked=0;connectable=1;container=0;" vertex="1" parent="zRi4qjUtURZeb13-JNOz-1157">
          <mxGeometry x="1140" y="160" width="100" height="40" as="geometry" />
        </mxCell>
        <mxCell id="zRi4qjUtURZeb13-JNOz-821" value="&lt;span style=&quot;color: rgb(70, 73, 93); text-align: left;&quot;&gt;updated_at&lt;/span&gt;" style="ellipse;whiteSpace=wrap;html=1;align=center;movable=1;resizable=1;rotatable=1;deletable=1;editable=1;locked=0;connectable=1;container=0;" vertex="1" parent="zRi4qjUtURZeb13-JNOz-1157">
          <mxGeometry x="1040" y="190" width="100" height="40" as="geometry" />
        </mxCell>
        <mxCell id="zRi4qjUtURZeb13-JNOz-810" value="reading_progress" style="whiteSpace=wrap;html=1;align=center;movable=1;resizable=1;rotatable=1;deletable=1;editable=1;locked=0;connectable=1;container=0;" vertex="1" parent="zRi4qjUtURZeb13-JNOz-1157">
          <mxGeometry x="975" y="130" width="100" height="40" as="geometry" />
        </mxCell>
        <mxCell id="zRi4qjUtURZeb13-JNOz-828" value="" style="edgeStyle=orthogonalEdgeStyle;fontSize=12;html=1;endArrow=ERoneToMany;rounded=0;exitX=1;exitY=0.5;exitDx=0;exitDy=0;movable=1;resizable=1;rotatable=1;deletable=1;editable=1;locked=0;connectable=1;" edge="1" parent="zRi4qjUtURZeb13-JNOz-1157" source="zRi4qjUtURZeb13-JNOz-827">
          <mxGeometry width="100" height="100" relative="1" as="geometry">
            <mxPoint x="890" y="300" as="sourcePoint" />
            <mxPoint x="990" y="170" as="targetPoint" />
            <Array as="points">
              <mxPoint x="990" y="300" />
              <mxPoint x="990" y="170" />
            </Array>
          </mxGeometry>
        </mxCell>
        <mxCell id="zRi4qjUtURZeb13-JNOz-811" value="&lt;span style=&quot;color: rgb(70, 73, 93); text-align: left;&quot;&gt;user_id&lt;/span&gt;" style="ellipse;whiteSpace=wrap;html=1;align=center;movable=1;resizable=1;rotatable=1;deletable=1;editable=1;locked=0;connectable=1;container=0;" vertex="1" parent="zRi4qjUtURZeb13-JNOz-1157">
          <mxGeometry x="900" y="80" width="100" height="40" as="geometry" />
        </mxCell>
        <mxCell id="zRi4qjUtURZeb13-JNOz-812" value="&lt;span style=&quot;color: rgb(70, 73, 93); text-align: left;&quot;&gt;book_id&lt;/span&gt;" style="ellipse;whiteSpace=wrap;html=1;align=center;movable=1;resizable=1;rotatable=1;deletable=1;editable=1;locked=0;connectable=1;container=0;" vertex="1" parent="zRi4qjUtURZeb13-JNOz-1157">
          <mxGeometry x="940" y="30" width="100" height="40" as="geometry" />
        </mxCell>
        <mxCell id="zRi4qjUtURZeb13-JNOz-813" style="edgeStyle=orthogonalEdgeStyle;rounded=0;orthogonalLoop=1;jettySize=auto;html=1;entryX=0.728;entryY=0.961;entryDx=0;entryDy=0;endArrow=none;endFill=0;exitX=0.25;exitY=0;exitDx=0;exitDy=0;curved=1;entryPerimeter=0;strokeColor=default;movable=1;resizable=1;rotatable=1;deletable=1;editable=1;locked=0;connectable=1;" edge="1" parent="zRi4qjUtURZeb13-JNOz-1157" source="zRi4qjUtURZeb13-JNOz-810" target="zRi4qjUtURZeb13-JNOz-811">
          <mxGeometry relative="1" as="geometry">
            <mxPoint x="1005" y="120" as="sourcePoint" />
            <mxPoint x="975" y="120" as="targetPoint" />
          </mxGeometry>
        </mxCell>
        <mxCell id="zRi4qjUtURZeb13-JNOz-814" style="edgeStyle=orthogonalEdgeStyle;rounded=0;orthogonalLoop=1;jettySize=auto;html=1;entryX=0.633;entryY=1.008;entryDx=0;entryDy=0;endArrow=none;endFill=0;curved=1;movable=1;resizable=1;rotatable=1;deletable=1;editable=1;locked=0;connectable=1;entryPerimeter=0;" edge="1" parent="zRi4qjUtURZeb13-JNOz-1157" target="zRi4qjUtURZeb13-JNOz-812">
          <mxGeometry relative="1" as="geometry">
            <mxPoint x="1035" y="130" as="sourcePoint" />
            <mxPoint x="975" y="120" as="targetPoint" />
          </mxGeometry>
        </mxCell>
        <mxCell id="zRi4qjUtURZeb13-JNOz-816" style="edgeStyle=orthogonalEdgeStyle;rounded=0;orthogonalLoop=1;jettySize=auto;html=1;entryX=0;entryY=0.5;entryDx=0;entryDy=0;endArrow=none;endFill=0;curved=1;exitX=1;exitY=0.25;exitDx=0;exitDy=0;movable=1;resizable=1;rotatable=1;deletable=1;editable=1;locked=0;connectable=1;" edge="1" parent="zRi4qjUtURZeb13-JNOz-1157" source="zRi4qjUtURZeb13-JNOz-810" target="zRi4qjUtURZeb13-JNOz-815">
          <mxGeometry relative="1" as="geometry">
            <mxPoint x="1055" y="130" as="sourcePoint" />
            <mxPoint x="1085" y="110" as="targetPoint" />
          </mxGeometry>
        </mxCell>
        <mxCell id="zRi4qjUtURZeb13-JNOz-818" style="edgeStyle=orthogonalEdgeStyle;rounded=0;orthogonalLoop=1;jettySize=auto;html=1;entryX=0;entryY=0.5;entryDx=0;entryDy=0;endArrow=none;endFill=0;curved=1;exitX=1;exitY=0.75;exitDx=0;exitDy=0;movable=1;resizable=1;rotatable=1;deletable=1;editable=1;locked=0;connectable=1;" edge="1" parent="zRi4qjUtURZeb13-JNOz-1157" source="zRi4qjUtURZeb13-JNOz-810" target="zRi4qjUtURZeb13-JNOz-817">
          <mxGeometry relative="1" as="geometry">
            <mxPoint x="1150" y="210" as="sourcePoint" />
            <mxPoint x="1160" y="180" as="targetPoint" />
          </mxGeometry>
        </mxCell>
        <mxCell id="zRi4qjUtURZeb13-JNOz-820" style="edgeStyle=orthogonalEdgeStyle;rounded=0;orthogonalLoop=1;jettySize=auto;html=1;entryX=0;entryY=0.5;entryDx=0;entryDy=0;endArrow=none;endFill=0;curved=1;exitX=1;exitY=1;exitDx=0;exitDy=0;movable=1;resizable=1;rotatable=1;deletable=1;editable=1;locked=0;connectable=1;" edge="1" parent="zRi4qjUtURZeb13-JNOz-1157" source="zRi4qjUtURZeb13-JNOz-810" target="zRi4qjUtURZeb13-JNOz-819">
          <mxGeometry relative="1" as="geometry">
            <mxPoint x="1180" y="240" as="sourcePoint" />
            <mxPoint x="1190" y="210" as="targetPoint" />
            <Array as="points">
              <mxPoint x="1075" y="180" />
            </Array>
          </mxGeometry>
        </mxCell>
        <mxCell id="zRi4qjUtURZeb13-JNOz-831" style="edgeStyle=orthogonalEdgeStyle;rounded=0;orthogonalLoop=1;jettySize=auto;html=1;entryX=0;entryY=0;entryDx=0;entryDy=0;endArrow=none;endFill=0;curved=1;exitX=0.5;exitY=1;exitDx=0;exitDy=0;movable=1;resizable=1;rotatable=1;deletable=1;editable=1;locked=0;connectable=1;" edge="1" parent="zRi4qjUtURZeb13-JNOz-1157" source="zRi4qjUtURZeb13-JNOz-810" target="zRi4qjUtURZeb13-JNOz-821">
          <mxGeometry relative="1" as="geometry">
            <mxPoint x="1060" y="210" as="sourcePoint" />
            <mxPoint x="1110" y="280" as="targetPoint" />
            <Array as="points">
              <mxPoint x="1040" y="170" />
              <mxPoint x="1040" y="196" />
            </Array>
          </mxGeometry>
        </mxCell>
        <mxCell id="zRi4qjUtURZeb13-JNOz-927" value="" style="rounded=0;whiteSpace=wrap;html=1;fillColor=none;dashed=1;fontColor=#ffffff;strokeColor=#A50040;container=0;" vertex="1" parent="zRi4qjUtURZeb13-JNOz-1157">
          <mxGeometry x="10" y="265" width="410" height="180" as="geometry" />
        </mxCell>
        <mxCell id="zRi4qjUtURZeb13-JNOz-957" value="" style="rounded=0;whiteSpace=wrap;html=1;fillColor=none;dashed=1;fontColor=#ffffff;strokeColor=#A50040;container=0;" vertex="1" parent="zRi4qjUtURZeb13-JNOz-1157">
          <mxGeometry x="10" y="460" width="410" height="180" as="geometry" />
        </mxCell>
        <mxCell id="zRi4qjUtURZeb13-JNOz-958" value="" style="rounded=0;whiteSpace=wrap;html=1;fillColor=none;dashed=1;fontColor=#ffffff;strokeColor=#A50040;container=0;" vertex="1" parent="zRi4qjUtURZeb13-JNOz-1157">
          <mxGeometry x="425" y="250" width="495" height="330" as="geometry" />
        </mxCell>
        <mxCell id="zRi4qjUtURZeb13-JNOz-959" style="edgeStyle=orthogonalEdgeStyle;rounded=0;orthogonalLoop=1;jettySize=auto;html=1;entryX=0.5;entryY=1;entryDx=0;entryDy=0;endArrow=none;endFill=0;curved=1;movable=1;resizable=1;rotatable=1;deletable=1;editable=1;locked=0;connectable=1;exitX=0.75;exitY=0;exitDx=0;exitDy=0;" edge="1" parent="zRi4qjUtURZeb13-JNOz-1157" source="zRi4qjUtURZeb13-JNOz-810" target="zRi4qjUtURZeb13-JNOz-830">
          <mxGeometry relative="1" as="geometry">
            <mxPoint x="1052" y="160" as="sourcePoint" />
            <mxPoint x="1020" y="100" as="targetPoint" />
          </mxGeometry>
        </mxCell>
        <mxCell id="zRi4qjUtURZeb13-JNOz-1158" value="" style="group" vertex="1" connectable="0" parent="1">
          <mxGeometry y="1340" width="1280" height="660" as="geometry" />
        </mxCell>
        <mxCell id="zRi4qjUtURZeb13-JNOz-960" value="" style="swimlane;startSize=0;strokeColor=#788AA3;fontColor=#46495D;fillColor=#B2C9AB;movable=1;resizable=1;rotatable=1;deletable=1;editable=1;locked=0;connectable=1;container=0;" vertex="1" parent="zRi4qjUtURZeb13-JNOz-1158">
          <mxGeometry width="1280" height="660" as="geometry" />
        </mxCell>
        <mxCell id="zRi4qjUtURZeb13-JNOz-991" style="edgeStyle=orthogonalEdgeStyle;rounded=0;orthogonalLoop=1;jettySize=auto;html=1;entryX=1;entryY=0.5;entryDx=0;entryDy=0;endArrow=none;endFill=0;curved=1;movable=1;resizable=1;rotatable=1;deletable=1;editable=1;locked=0;connectable=1;" edge="1" parent="zRi4qjUtURZeb13-JNOz-1158" source="zRi4qjUtURZeb13-JNOz-992" target="zRi4qjUtURZeb13-JNOz-995">
          <mxGeometry relative="1" as="geometry" />
        </mxCell>
        <mxCell id="zRi4qjUtURZeb13-JNOz-992" value="users" style="whiteSpace=wrap;html=1;align=center;movable=1;resizable=1;rotatable=1;deletable=1;editable=1;locked=0;connectable=1;container=0;" vertex="1" parent="zRi4qjUtURZeb13-JNOz-1158">
          <mxGeometry x="585" y="105" width="100" height="40" as="geometry" />
        </mxCell>
        <mxCell id="zRi4qjUtURZeb13-JNOz-993" value="&lt;span style=&quot;color: rgb(70, 73, 93); text-align: left;&quot;&gt;password&lt;/span&gt;" style="ellipse;whiteSpace=wrap;html=1;align=center;movable=1;resizable=1;rotatable=1;deletable=1;editable=1;locked=0;connectable=1;container=0;" vertex="1" parent="zRi4qjUtURZeb13-JNOz-1158">
          <mxGeometry x="505" y="45" width="100" height="40" as="geometry" />
        </mxCell>
        <mxCell id="zRi4qjUtURZeb13-JNOz-994" value="&lt;span style=&quot;color: rgb(70, 73, 93); text-align: left;&quot;&gt;role&lt;/span&gt;" style="ellipse;whiteSpace=wrap;html=1;align=center;movable=1;resizable=1;rotatable=1;deletable=1;editable=1;locked=0;connectable=1;container=0;" vertex="1" parent="zRi4qjUtURZeb13-JNOz-1158">
          <mxGeometry x="625" y="45" width="100" height="40" as="geometry" />
        </mxCell>
        <mxCell id="zRi4qjUtURZeb13-JNOz-995" value="&lt;div style=&quot;text-align: left;&quot;&gt;&lt;span style=&quot;background-color: transparent;&quot;&gt;&lt;font color=&quot;#46495d&quot;&gt;username&lt;/font&gt;&lt;/span&gt;&lt;/div&gt;" style="ellipse;whiteSpace=wrap;html=1;align=center;movable=1;resizable=1;rotatable=1;deletable=1;editable=1;locked=0;connectable=1;container=0;" vertex="1" parent="zRi4qjUtURZeb13-JNOz-1158">
          <mxGeometry x="460" y="145" width="100" height="40" as="geometry" />
        </mxCell>
        <mxCell id="zRi4qjUtURZeb13-JNOz-996" style="edgeStyle=orthogonalEdgeStyle;rounded=0;orthogonalLoop=1;jettySize=auto;html=1;entryX=0.728;entryY=0.961;entryDx=0;entryDy=0;endArrow=none;endFill=0;exitX=0.25;exitY=0;exitDx=0;exitDy=0;curved=1;entryPerimeter=0;strokeColor=default;movable=1;resizable=1;rotatable=1;deletable=1;editable=1;locked=0;connectable=1;" edge="1" parent="zRi4qjUtURZeb13-JNOz-1158" source="zRi4qjUtURZeb13-JNOz-992" target="zRi4qjUtURZeb13-JNOz-993">
          <mxGeometry relative="1" as="geometry">
            <mxPoint x="615" y="95" as="sourcePoint" />
            <mxPoint x="585" y="95" as="targetPoint" />
          </mxGeometry>
        </mxCell>
        <mxCell id="zRi4qjUtURZeb13-JNOz-997" style="edgeStyle=orthogonalEdgeStyle;rounded=0;orthogonalLoop=1;jettySize=auto;html=1;entryX=0.5;entryY=1;entryDx=0;entryDy=0;endArrow=none;endFill=0;curved=1;movable=1;resizable=1;rotatable=1;deletable=1;editable=1;locked=0;connectable=1;" edge="1" parent="zRi4qjUtURZeb13-JNOz-1158" target="zRi4qjUtURZeb13-JNOz-994">
          <mxGeometry relative="1" as="geometry">
            <mxPoint x="645" y="105" as="sourcePoint" />
            <mxPoint x="585" y="95" as="targetPoint" />
          </mxGeometry>
        </mxCell>
        <mxCell id="zRi4qjUtURZeb13-JNOz-998" value="&lt;span style=&quot;color: rgb(70, 73, 93); text-align: left;&quot;&gt;id&lt;/span&gt;" style="ellipse;whiteSpace=wrap;html=1;align=center;movable=1;resizable=1;rotatable=1;deletable=1;editable=1;locked=0;connectable=1;container=0;" vertex="1" parent="zRi4qjUtURZeb13-JNOz-1158">
          <mxGeometry x="60" y="170" width="100" height="40" as="geometry" />
        </mxCell>
        <mxCell id="zRi4qjUtURZeb13-JNOz-999" style="edgeStyle=orthogonalEdgeStyle;rounded=0;orthogonalLoop=1;jettySize=auto;html=1;entryX=1;entryY=0.5;entryDx=0;entryDy=0;endArrow=none;endFill=0;curved=1;exitX=0.5;exitY=1;exitDx=0;exitDy=0;movable=1;resizable=1;rotatable=1;deletable=1;editable=1;locked=0;connectable=1;" edge="1" parent="zRi4qjUtURZeb13-JNOz-1158" source="zRi4qjUtURZeb13-JNOz-962" target="zRi4qjUtURZeb13-JNOz-998">
          <mxGeometry relative="1" as="geometry">
            <mxPoint x="180" y="140" as="sourcePoint" />
            <mxPoint x="140" y="140" as="targetPoint" />
          </mxGeometry>
        </mxCell>
        <mxCell id="zRi4qjUtURZeb13-JNOz-1000" value="&lt;span style=&quot;color: rgb(70, 73, 93); text-align: left;&quot;&gt;id&lt;/span&gt;" style="ellipse;whiteSpace=wrap;html=1;align=center;movable=1;resizable=1;rotatable=1;deletable=1;editable=1;locked=0;connectable=1;container=0;" vertex="1" parent="zRi4qjUtURZeb13-JNOz-1158">
          <mxGeometry x="555" y="165" width="100" height="40" as="geometry" />
        </mxCell>
        <mxCell id="zRi4qjUtURZeb13-JNOz-1001" style="edgeStyle=orthogonalEdgeStyle;rounded=0;orthogonalLoop=1;jettySize=auto;html=1;entryX=0.5;entryY=0;entryDx=0;entryDy=0;endArrow=none;endFill=0;curved=1;exitX=0.25;exitY=1;exitDx=0;exitDy=0;movable=1;resizable=1;rotatable=1;deletable=1;editable=1;locked=0;connectable=1;" edge="1" parent="zRi4qjUtURZeb13-JNOz-1158" source="zRi4qjUtURZeb13-JNOz-992" target="zRi4qjUtURZeb13-JNOz-1000">
          <mxGeometry relative="1" as="geometry">
            <mxPoint x="615" y="135" as="sourcePoint" />
            <mxPoint x="575" y="135" as="targetPoint" />
          </mxGeometry>
        </mxCell>
        <mxCell id="zRi4qjUtURZeb13-JNOz-1002" value="&lt;span style=&quot;color: rgb(70, 73, 93); text-align: left;&quot;&gt;created_at&lt;/span&gt;" style="ellipse;whiteSpace=wrap;html=1;align=center;movable=1;resizable=1;rotatable=1;deletable=1;editable=1;locked=0;connectable=1;container=0;" vertex="1" parent="zRi4qjUtURZeb13-JNOz-1158">
          <mxGeometry x="705" y="85" width="100" height="40" as="geometry" />
        </mxCell>
        <mxCell id="zRi4qjUtURZeb13-JNOz-1003" style="edgeStyle=orthogonalEdgeStyle;rounded=0;orthogonalLoop=1;jettySize=auto;html=1;entryX=0;entryY=0.5;entryDx=0;entryDy=0;endArrow=none;endFill=0;curved=1;exitX=1;exitY=0.25;exitDx=0;exitDy=0;movable=1;resizable=1;rotatable=1;deletable=1;editable=1;locked=0;connectable=1;" edge="1" parent="zRi4qjUtURZeb13-JNOz-1158" source="zRi4qjUtURZeb13-JNOz-992" target="zRi4qjUtURZeb13-JNOz-1002">
          <mxGeometry relative="1" as="geometry">
            <mxPoint x="665" y="105" as="sourcePoint" />
            <mxPoint x="695" y="85" as="targetPoint" />
          </mxGeometry>
        </mxCell>
        <mxCell id="zRi4qjUtURZeb13-JNOz-1004" style="edgeStyle=orthogonalEdgeStyle;rounded=0;orthogonalLoop=1;jettySize=auto;html=1;entryX=1;entryY=0;entryDx=0;entryDy=0;endArrow=none;endFill=0;curved=1;exitX=0.079;exitY=1.017;exitDx=0;exitDy=0;exitPerimeter=0;movable=1;resizable=1;rotatable=1;deletable=1;editable=1;locked=0;connectable=1;" edge="1" parent="zRi4qjUtURZeb13-JNOz-1158" source="zRi4qjUtURZeb13-JNOz-1005" target="zRi4qjUtURZeb13-JNOz-1008">
          <mxGeometry relative="1" as="geometry">
            <mxPoint x="630" y="390" as="sourcePoint" />
          </mxGeometry>
        </mxCell>
        <mxCell id="zRi4qjUtURZeb13-JNOz-1005" value="books" style="whiteSpace=wrap;html=1;align=center;movable=1;resizable=1;rotatable=1;deletable=1;editable=1;locked=0;connectable=1;container=0;" vertex="1" parent="zRi4qjUtURZeb13-JNOz-1158">
          <mxGeometry x="635" y="360" width="100" height="40" as="geometry" />
        </mxCell>
        <mxCell id="zRi4qjUtURZeb13-JNOz-1006" value="&lt;span style=&quot;color: rgb(70, 73, 93); text-align: left;&quot;&gt;writer&lt;/span&gt;" style="ellipse;whiteSpace=wrap;html=1;align=center;movable=1;resizable=1;rotatable=1;deletable=1;editable=1;locked=0;connectable=1;container=0;" vertex="1" parent="zRi4qjUtURZeb13-JNOz-1158">
          <mxGeometry x="560" y="310" width="100" height="40" as="geometry" />
        </mxCell>
        <mxCell id="zRi4qjUtURZeb13-JNOz-1007" value="&lt;span style=&quot;color: rgb(70, 73, 93); text-align: left;&quot;&gt;file_mime_type&lt;/span&gt;" style="ellipse;whiteSpace=wrap;html=1;align=center;movable=1;resizable=1;rotatable=1;deletable=1;editable=1;locked=0;connectable=1;container=0;" vertex="1" parent="zRi4qjUtURZeb13-JNOz-1158">
          <mxGeometry x="620" y="270" width="100" height="40" as="geometry" />
        </mxCell>
        <mxCell id="zRi4qjUtURZeb13-JNOz-1008" value="&lt;div style=&quot;text-align: left;&quot;&gt;&lt;span style=&quot;background-color: transparent;&quot;&gt;&lt;font color=&quot;#46495d&quot;&gt;title&lt;/font&gt;&lt;/span&gt;&lt;/div&gt;" style="ellipse;whiteSpace=wrap;html=1;align=center;movable=1;resizable=1;rotatable=1;deletable=1;editable=1;locked=0;connectable=1;container=0;" vertex="1" parent="zRi4qjUtURZeb13-JNOz-1158">
          <mxGeometry x="520" y="450" width="100" height="40" as="geometry" />
        </mxCell>
        <mxCell id="zRi4qjUtURZeb13-JNOz-1009" style="edgeStyle=orthogonalEdgeStyle;rounded=0;orthogonalLoop=1;jettySize=auto;html=1;entryX=0.728;entryY=0.961;entryDx=0;entryDy=0;endArrow=none;endFill=0;exitX=0.25;exitY=0;exitDx=0;exitDy=0;curved=1;entryPerimeter=0;strokeColor=default;movable=1;resizable=1;rotatable=1;deletable=1;editable=1;locked=0;connectable=1;" edge="1" parent="zRi4qjUtURZeb13-JNOz-1158" source="zRi4qjUtURZeb13-JNOz-1005" target="zRi4qjUtURZeb13-JNOz-1006">
          <mxGeometry relative="1" as="geometry">
            <mxPoint x="665" y="350" as="sourcePoint" />
            <mxPoint x="635" y="350" as="targetPoint" />
          </mxGeometry>
        </mxCell>
        <mxCell id="zRi4qjUtURZeb13-JNOz-1010" style="edgeStyle=orthogonalEdgeStyle;rounded=0;orthogonalLoop=1;jettySize=auto;html=1;entryX=0.5;entryY=1;entryDx=0;entryDy=0;endArrow=none;endFill=0;curved=1;movable=1;resizable=1;rotatable=1;deletable=1;editable=1;locked=0;connectable=1;" edge="1" parent="zRi4qjUtURZeb13-JNOz-1158" target="zRi4qjUtURZeb13-JNOz-1007">
          <mxGeometry relative="1" as="geometry">
            <mxPoint x="695" y="360" as="sourcePoint" />
            <mxPoint x="635" y="350" as="targetPoint" />
          </mxGeometry>
        </mxCell>
        <mxCell id="zRi4qjUtURZeb13-JNOz-1011" value="&lt;span style=&quot;color: rgb(70, 73, 93); text-align: left;&quot;&gt;id&lt;/span&gt;" style="ellipse;whiteSpace=wrap;html=1;align=center;movable=1;resizable=1;rotatable=1;deletable=1;editable=1;locked=0;connectable=1;container=0;" vertex="1" parent="zRi4qjUtURZeb13-JNOz-1158">
          <mxGeometry x="585" y="490" width="100" height="40" as="geometry" />
        </mxCell>
        <mxCell id="zRi4qjUtURZeb13-JNOz-1012" value="&lt;span style=&quot;color: rgb(70, 73, 93); text-align: left;&quot;&gt;file_path&lt;/span&gt;" style="ellipse;whiteSpace=wrap;html=1;align=center;movable=1;resizable=1;rotatable=1;deletable=1;editable=1;locked=0;connectable=1;container=0;" vertex="1" parent="zRi4qjUtURZeb13-JNOz-1158">
          <mxGeometry x="755" y="340" width="100" height="40" as="geometry" />
        </mxCell>
        <mxCell id="zRi4qjUtURZeb13-JNOz-1013" style="edgeStyle=orthogonalEdgeStyle;rounded=0;orthogonalLoop=1;jettySize=auto;html=1;entryX=0;entryY=0.5;entryDx=0;entryDy=0;endArrow=none;endFill=0;curved=1;exitX=1;exitY=0.25;exitDx=0;exitDy=0;movable=1;resizable=1;rotatable=1;deletable=1;editable=1;locked=0;connectable=1;" edge="1" parent="zRi4qjUtURZeb13-JNOz-1158" source="zRi4qjUtURZeb13-JNOz-1005" target="zRi4qjUtURZeb13-JNOz-1012">
          <mxGeometry relative="1" as="geometry">
            <mxPoint x="715" y="360" as="sourcePoint" />
            <mxPoint x="745" y="340" as="targetPoint" />
          </mxGeometry>
        </mxCell>
        <mxCell id="zRi4qjUtURZeb13-JNOz-1014" style="edgeStyle=orthogonalEdgeStyle;rounded=0;orthogonalLoop=1;jettySize=auto;html=1;entryX=1;entryY=0.5;entryDx=0;entryDy=0;endArrow=none;endFill=0;curved=1;movable=1;resizable=1;rotatable=1;deletable=1;editable=1;locked=0;connectable=1;" edge="1" parent="zRi4qjUtURZeb13-JNOz-1158" source="zRi4qjUtURZeb13-JNOz-1015" target="zRi4qjUtURZeb13-JNOz-1017">
          <mxGeometry relative="1" as="geometry" />
        </mxCell>
        <mxCell id="zRi4qjUtURZeb13-JNOz-1015" value="book_category" style="whiteSpace=wrap;html=1;align=center;movable=1;resizable=1;rotatable=1;deletable=1;editable=1;locked=0;connectable=1;container=0;" vertex="1" parent="zRi4qjUtURZeb13-JNOz-1158">
          <mxGeometry x="145" y="335" width="100" height="40" as="geometry" />
        </mxCell>
        <mxCell id="zRi4qjUtURZeb13-JNOz-1016" value="&lt;span style=&quot;color: rgb(70, 73, 93); text-align: left;&quot;&gt;category_id&lt;/span&gt;" style="ellipse;whiteSpace=wrap;html=1;align=center;movable=1;resizable=1;rotatable=1;deletable=1;editable=1;locked=0;connectable=1;container=0;" vertex="1" parent="zRi4qjUtURZeb13-JNOz-1158">
          <mxGeometry x="40" y="295" width="100" height="40" as="geometry" />
        </mxCell>
        <mxCell id="zRi4qjUtURZeb13-JNOz-1017" value="&lt;div style=&quot;text-align: left;&quot;&gt;&lt;span style=&quot;background-color: transparent;&quot;&gt;&lt;font color=&quot;#46495d&quot;&gt;book_id&lt;/font&gt;&lt;/span&gt;&lt;/div&gt;" style="ellipse;whiteSpace=wrap;html=1;align=center;movable=1;resizable=1;rotatable=1;deletable=1;editable=1;locked=0;connectable=1;container=0;" vertex="1" parent="zRi4qjUtURZeb13-JNOz-1158">
          <mxGeometry x="20" y="375" width="100" height="40" as="geometry" />
        </mxCell>
        <mxCell id="zRi4qjUtURZeb13-JNOz-1018" style="edgeStyle=orthogonalEdgeStyle;rounded=0;orthogonalLoop=1;jettySize=auto;html=1;entryX=0.728;entryY=0.961;entryDx=0;entryDy=0;endArrow=none;endFill=0;curved=1;entryPerimeter=0;strokeColor=default;movable=1;resizable=1;rotatable=1;deletable=1;editable=1;locked=0;connectable=1;" edge="1" parent="zRi4qjUtURZeb13-JNOz-1158" target="zRi4qjUtURZeb13-JNOz-1016">
          <mxGeometry relative="1" as="geometry">
            <mxPoint x="145" y="345" as="sourcePoint" />
            <mxPoint x="145" y="325" as="targetPoint" />
          </mxGeometry>
        </mxCell>
        <mxCell id="zRi4qjUtURZeb13-JNOz-1019" value="&lt;span style=&quot;color: rgb(70, 73, 93); text-align: left;&quot;&gt;id&lt;/span&gt;" style="ellipse;whiteSpace=wrap;html=1;align=center;movable=1;resizable=1;rotatable=1;deletable=1;editable=1;locked=0;connectable=1;container=0;" vertex="1" parent="zRi4qjUtURZeb13-JNOz-1158">
          <mxGeometry x="115" y="395" width="100" height="40" as="geometry" />
        </mxCell>
        <mxCell id="zRi4qjUtURZeb13-JNOz-1020" style="edgeStyle=orthogonalEdgeStyle;rounded=0;orthogonalLoop=1;jettySize=auto;html=1;entryX=0.5;entryY=0;entryDx=0;entryDy=0;endArrow=none;endFill=0;curved=1;exitX=0.25;exitY=1;exitDx=0;exitDy=0;movable=1;resizable=1;rotatable=1;deletable=1;editable=1;locked=0;connectable=1;" edge="1" parent="zRi4qjUtURZeb13-JNOz-1158" source="zRi4qjUtURZeb13-JNOz-1015" target="zRi4qjUtURZeb13-JNOz-1019">
          <mxGeometry relative="1" as="geometry">
            <mxPoint x="175" y="365" as="sourcePoint" />
            <mxPoint x="135" y="365" as="targetPoint" />
          </mxGeometry>
        </mxCell>
        <mxCell id="zRi4qjUtURZeb13-JNOz-1021" style="edgeStyle=orthogonalEdgeStyle;rounded=0;orthogonalLoop=1;jettySize=auto;html=1;entryX=1;entryY=0.5;entryDx=0;entryDy=0;endArrow=none;endFill=0;curved=1;movable=1;resizable=1;rotatable=1;deletable=1;editable=1;locked=0;connectable=1;" edge="1" parent="zRi4qjUtURZeb13-JNOz-1158" source="zRi4qjUtURZeb13-JNOz-1022" target="zRi4qjUtURZeb13-JNOz-1023">
          <mxGeometry relative="1" as="geometry" />
        </mxCell>
        <mxCell id="zRi4qjUtURZeb13-JNOz-1022" value="category" style="whiteSpace=wrap;html=1;align=center;movable=1;resizable=1;rotatable=1;deletable=1;editable=1;locked=0;connectable=1;container=0;" vertex="1" parent="zRi4qjUtURZeb13-JNOz-1158">
          <mxGeometry x="180" y="530" width="100" height="40" as="geometry" />
        </mxCell>
        <mxCell id="zRi4qjUtURZeb13-JNOz-1023" value="&lt;div style=&quot;text-align: left;&quot;&gt;&lt;span style=&quot;background-color: transparent;&quot;&gt;&lt;font color=&quot;#46495d&quot;&gt;category_name&lt;/font&gt;&lt;/span&gt;&lt;/div&gt;" style="ellipse;whiteSpace=wrap;html=1;align=center;movable=1;resizable=1;rotatable=1;deletable=1;editable=1;locked=0;connectable=1;container=0;" vertex="1" parent="zRi4qjUtURZeb13-JNOz-1158">
          <mxGeometry x="55" y="550" width="100" height="40" as="geometry" />
        </mxCell>
        <mxCell id="zRi4qjUtURZeb13-JNOz-1024" value="&lt;span style=&quot;color: rgb(70, 73, 93); text-align: left;&quot;&gt;id&lt;/span&gt;" style="ellipse;whiteSpace=wrap;html=1;align=center;movable=1;resizable=1;rotatable=1;deletable=1;editable=1;locked=0;connectable=1;container=0;" vertex="1" parent="zRi4qjUtURZeb13-JNOz-1158">
          <mxGeometry x="150" y="590" width="100" height="40" as="geometry" />
        </mxCell>
        <mxCell id="zRi4qjUtURZeb13-JNOz-1025" style="edgeStyle=orthogonalEdgeStyle;rounded=0;orthogonalLoop=1;jettySize=auto;html=1;entryX=0.5;entryY=0;entryDx=0;entryDy=0;endArrow=none;endFill=0;curved=1;exitX=0.25;exitY=1;exitDx=0;exitDy=0;movable=1;resizable=1;rotatable=1;deletable=1;editable=1;locked=0;connectable=1;" edge="1" parent="zRi4qjUtURZeb13-JNOz-1158" source="zRi4qjUtURZeb13-JNOz-1022" target="zRi4qjUtURZeb13-JNOz-1024">
          <mxGeometry relative="1" as="geometry">
            <mxPoint x="210" y="560" as="sourcePoint" />
            <mxPoint x="170" y="560" as="targetPoint" />
          </mxGeometry>
        </mxCell>
        <mxCell id="zRi4qjUtURZeb13-JNOz-1026" value="&lt;span style=&quot;color: rgb(70, 73, 93); text-align: left;&quot;&gt;cover_file_name&lt;/span&gt;" style="ellipse;whiteSpace=wrap;html=1;align=center;movable=1;resizable=1;rotatable=1;deletable=1;editable=1;locked=0;connectable=1;container=0;" vertex="1" parent="zRi4qjUtURZeb13-JNOz-1158">
          <mxGeometry x="800" y="400" width="100" height="40" as="geometry" />
        </mxCell>
        <mxCell id="zRi4qjUtURZeb13-JNOz-1027" style="edgeStyle=orthogonalEdgeStyle;rounded=0;orthogonalLoop=1;jettySize=auto;html=1;entryX=0;entryY=0;entryDx=0;entryDy=0;endArrow=none;endFill=0;curved=1;exitX=1;exitY=0.75;exitDx=0;exitDy=0;movable=1;resizable=1;rotatable=1;deletable=1;editable=1;locked=0;connectable=1;" edge="1" parent="zRi4qjUtURZeb13-JNOz-1158" source="zRi4qjUtURZeb13-JNOz-1005" target="zRi4qjUtURZeb13-JNOz-1026">
          <mxGeometry relative="1" as="geometry">
            <mxPoint x="810" y="440" as="sourcePoint" />
            <mxPoint x="820" y="410" as="targetPoint" />
          </mxGeometry>
        </mxCell>
        <mxCell id="zRi4qjUtURZeb13-JNOz-1028" value="&lt;span style=&quot;color: rgb(70, 73, 93); text-align: left;&quot;&gt;cover-mime_type&lt;/span&gt;" style="ellipse;whiteSpace=wrap;html=1;align=center;movable=1;resizable=1;rotatable=1;deletable=1;editable=1;locked=0;connectable=1;container=0;" vertex="1" parent="zRi4qjUtURZeb13-JNOz-1158">
          <mxGeometry x="810" y="450" width="100" height="40" as="geometry" />
        </mxCell>
        <mxCell id="zRi4qjUtURZeb13-JNOz-1029" style="edgeStyle=orthogonalEdgeStyle;rounded=0;orthogonalLoop=1;jettySize=auto;html=1;entryX=0;entryY=0.5;entryDx=0;entryDy=0;endArrow=none;endFill=0;curved=1;exitX=0.75;exitY=1;exitDx=0;exitDy=0;movable=1;resizable=1;rotatable=1;deletable=1;editable=1;locked=0;connectable=1;" edge="1" parent="zRi4qjUtURZeb13-JNOz-1158" source="zRi4qjUtURZeb13-JNOz-1005" target="zRi4qjUtURZeb13-JNOz-1028">
          <mxGeometry relative="1" as="geometry">
            <mxPoint x="840" y="470" as="sourcePoint" />
            <mxPoint x="850" y="440" as="targetPoint" />
          </mxGeometry>
        </mxCell>
        <mxCell id="zRi4qjUtURZeb13-JNOz-1030" value="&lt;span style=&quot;color: rgb(70, 73, 93); text-align: left;&quot;&gt;cover&lt;/span&gt;" style="ellipse;whiteSpace=wrap;html=1;align=center;movable=1;resizable=1;rotatable=1;deletable=1;editable=1;locked=0;connectable=1;container=0;" vertex="1" parent="zRi4qjUtURZeb13-JNOz-1158">
          <mxGeometry x="785" y="500" width="100" height="40" as="geometry" />
        </mxCell>
        <mxCell id="zRi4qjUtURZeb13-JNOz-1031" style="edgeStyle=orthogonalEdgeStyle;rounded=0;orthogonalLoop=1;jettySize=auto;html=1;entryX=0;entryY=0.5;entryDx=0;entryDy=0;endArrow=none;endFill=0;curved=1;exitX=0.603;exitY=1.05;exitDx=0;exitDy=0;exitPerimeter=0;movable=1;resizable=1;rotatable=1;deletable=1;editable=1;locked=0;connectable=1;" edge="1" parent="zRi4qjUtURZeb13-JNOz-1158" source="zRi4qjUtURZeb13-JNOz-1005" target="zRi4qjUtURZeb13-JNOz-1030">
          <mxGeometry relative="1" as="geometry">
            <mxPoint x="720" y="510" as="sourcePoint" />
            <mxPoint x="730" y="480" as="targetPoint" />
            <Array as="points">
              <mxPoint x="695" y="520" />
            </Array>
          </mxGeometry>
        </mxCell>
        <mxCell id="zRi4qjUtURZeb13-JNOz-1032" value="&lt;span style=&quot;color: rgb(70, 73, 93); text-align: left;&quot;&gt;created_at&lt;/span&gt;" style="ellipse;whiteSpace=wrap;html=1;align=center;movable=1;resizable=1;rotatable=1;deletable=1;editable=1;locked=0;connectable=1;container=0;" vertex="1" parent="zRi4qjUtURZeb13-JNOz-1158">
          <mxGeometry x="645" y="530" width="100" height="40" as="geometry" />
        </mxCell>
        <mxCell id="zRi4qjUtURZeb13-JNOz-1033" style="edgeStyle=orthogonalEdgeStyle;rounded=0;orthogonalLoop=1;jettySize=auto;html=1;exitX=0.5;exitY=1;exitDx=0;exitDy=0;movable=1;resizable=1;rotatable=1;deletable=1;editable=1;locked=0;connectable=1;" edge="1" parent="zRi4qjUtURZeb13-JNOz-1158" source="zRi4qjUtURZeb13-JNOz-1030" target="zRi4qjUtURZeb13-JNOz-1030">
          <mxGeometry relative="1" as="geometry" />
        </mxCell>
        <mxCell id="zRi4qjUtURZeb13-JNOz-1034" value="ditandai" style="shape=rhombus;perimeter=rhombusPerimeter;whiteSpace=wrap;html=1;align=center;movable=1;resizable=1;rotatable=1;deletable=1;editable=1;locked=0;connectable=1;container=0;" vertex="1" parent="zRi4qjUtURZeb13-JNOz-1158">
          <mxGeometry x="280" y="100" width="120" height="60" as="geometry" />
        </mxCell>
        <mxCell id="zRi4qjUtURZeb13-JNOz-1035" value="" style="edgeStyle=orthogonalEdgeStyle;fontSize=12;html=1;endArrow=ERoneToMany;rounded=0;entryX=1;entryY=0.25;entryDx=0;entryDy=0;exitX=0;exitY=0.5;exitDx=0;exitDy=0;movable=1;resizable=1;rotatable=1;deletable=1;editable=1;locked=0;connectable=1;" edge="1" parent="zRi4qjUtURZeb13-JNOz-1158" source="zRi4qjUtURZeb13-JNOz-1034" target="zRi4qjUtURZeb13-JNOz-962">
          <mxGeometry width="100" height="100" relative="1" as="geometry">
            <mxPoint x="330" y="125" as="sourcePoint" />
            <mxPoint x="490" y="130" as="targetPoint" />
          </mxGeometry>
        </mxCell>
        <mxCell id="zRi4qjUtURZeb13-JNOz-1036" value="" style="edgeStyle=orthogonalEdgeStyle;fontSize=12;html=1;endArrow=ERone;endFill=1;rounded=0;entryX=0;entryY=0.25;entryDx=0;entryDy=0;exitX=1;exitY=0.5;exitDx=0;exitDy=0;movable=1;resizable=1;rotatable=1;deletable=1;editable=1;locked=0;connectable=1;" edge="1" parent="zRi4qjUtURZeb13-JNOz-1158" source="zRi4qjUtURZeb13-JNOz-1034" target="zRi4qjUtURZeb13-JNOz-992">
          <mxGeometry width="100" height="100" relative="1" as="geometry">
            <mxPoint x="390" y="260" as="sourcePoint" />
            <mxPoint x="490" y="160" as="targetPoint" />
            <Array as="points">
              <mxPoint x="490" y="130" />
              <mxPoint x="490" y="115" />
            </Array>
          </mxGeometry>
        </mxCell>
        <mxCell id="zRi4qjUtURZeb13-JNOz-1037" value="memiliki" style="shape=rhombus;perimeter=rhombusPerimeter;whiteSpace=wrap;html=1;align=center;movable=1;resizable=1;rotatable=1;deletable=1;editable=1;locked=0;connectable=1;container=0;" vertex="1" parent="zRi4qjUtURZeb13-JNOz-1158">
          <mxGeometry x="434" y="285" width="120" height="60" as="geometry" />
        </mxCell>
        <mxCell id="zRi4qjUtURZeb13-JNOz-1038" value="" style="fontSize=12;html=1;endArrow=ERmany;rounded=0;entryX=0.75;entryY=1;entryDx=0;entryDy=0;exitX=0;exitY=0.5;exitDx=0;exitDy=0;edgeStyle=orthogonalEdgeStyle;curved=0;movable=1;resizable=1;rotatable=1;deletable=1;editable=1;locked=0;connectable=1;" edge="1" parent="zRi4qjUtURZeb13-JNOz-1158" source="zRi4qjUtURZeb13-JNOz-1037" target="zRi4qjUtURZeb13-JNOz-962">
          <mxGeometry width="100" height="100" relative="1" as="geometry">
            <mxPoint x="250" y="260" as="sourcePoint" />
            <mxPoint x="350" y="160" as="targetPoint" />
          </mxGeometry>
        </mxCell>
        <mxCell id="zRi4qjUtURZeb13-JNOz-1039" value="" style="edgeStyle=orthogonalEdgeStyle;fontSize=12;html=1;endArrow=ERone;endFill=1;rounded=0;entryX=0;entryY=0.25;entryDx=0;entryDy=0;exitX=0.5;exitY=1;exitDx=0;exitDy=0;movable=1;resizable=1;rotatable=1;deletable=1;editable=1;locked=0;connectable=1;" edge="1" parent="zRi4qjUtURZeb13-JNOz-1158" source="zRi4qjUtURZeb13-JNOz-1037" target="zRi4qjUtURZeb13-JNOz-1005">
          <mxGeometry width="100" height="100" relative="1" as="geometry">
            <mxPoint x="450" y="265" as="sourcePoint" />
            <mxPoint x="605" y="250" as="targetPoint" />
            <Array as="points">
              <mxPoint x="494" y="370" />
            </Array>
          </mxGeometry>
        </mxCell>
        <mxCell id="zRi4qjUtURZeb13-JNOz-1040" value="terdapat" style="shape=rhombus;perimeter=rhombusPerimeter;whiteSpace=wrap;html=1;align=center;movable=1;resizable=1;rotatable=1;deletable=1;editable=1;locked=0;connectable=1;container=0;" vertex="1" parent="zRi4qjUtURZeb13-JNOz-1158">
          <mxGeometry x="290" y="360" width="120" height="60" as="geometry" />
        </mxCell>
        <mxCell id="zRi4qjUtURZeb13-JNOz-1041" style="edgeStyle=orthogonalEdgeStyle;rounded=0;orthogonalLoop=1;jettySize=auto;html=1;entryX=0.5;entryY=0;entryDx=0;entryDy=0;endArrow=none;endFill=0;curved=1;exitX=0.337;exitY=1.061;exitDx=0;exitDy=0;exitPerimeter=0;movable=1;resizable=1;rotatable=1;deletable=1;editable=1;locked=0;connectable=1;" edge="1" parent="zRi4qjUtURZeb13-JNOz-1158" source="zRi4qjUtURZeb13-JNOz-1005" target="zRi4qjUtURZeb13-JNOz-1011">
          <mxGeometry relative="1" as="geometry">
            <mxPoint x="690" y="430" as="sourcePoint" />
            <mxPoint x="630" y="496" as="targetPoint" />
          </mxGeometry>
        </mxCell>
        <mxCell id="zRi4qjUtURZeb13-JNOz-1042" style="edgeStyle=orthogonalEdgeStyle;rounded=0;orthogonalLoop=1;jettySize=auto;html=1;entryX=0.5;entryY=0;entryDx=0;entryDy=0;endArrow=none;endFill=0;curved=1;exitX=0.5;exitY=1;exitDx=0;exitDy=0;movable=1;resizable=1;rotatable=1;deletable=1;editable=1;locked=0;connectable=1;" edge="1" parent="zRi4qjUtURZeb13-JNOz-1158" source="zRi4qjUtURZeb13-JNOz-1005" target="zRi4qjUtURZeb13-JNOz-1032">
          <mxGeometry relative="1" as="geometry">
            <mxPoint x="690" y="470" as="sourcePoint" />
            <mxPoint x="790" y="590" as="targetPoint" />
          </mxGeometry>
        </mxCell>
        <mxCell id="zRi4qjUtURZeb13-JNOz-1043" value="" style="edgeStyle=orthogonalEdgeStyle;fontSize=12;html=1;endArrow=ERone;endFill=1;rounded=0;entryX=0;entryY=0.75;entryDx=0;entryDy=0;exitX=1;exitY=0.5;exitDx=0;exitDy=0;movable=1;resizable=1;rotatable=1;deletable=1;editable=1;locked=0;connectable=1;" edge="1" parent="zRi4qjUtURZeb13-JNOz-1158" source="zRi4qjUtURZeb13-JNOz-1040" target="zRi4qjUtURZeb13-JNOz-1005">
          <mxGeometry width="100" height="100" relative="1" as="geometry">
            <mxPoint x="470" y="410" as="sourcePoint" />
            <mxPoint x="655" y="620" as="targetPoint" />
            <Array as="points">
              <mxPoint x="490" y="390" />
              <mxPoint x="490" y="390" />
            </Array>
          </mxGeometry>
        </mxCell>
        <mxCell id="zRi4qjUtURZeb13-JNOz-1044" value="" style="fontSize=12;html=1;endArrow=ERmany;rounded=0;entryX=1;entryY=0.5;entryDx=0;entryDy=0;exitX=0;exitY=0.5;exitDx=0;exitDy=0;edgeStyle=orthogonalEdgeStyle;movable=1;resizable=1;rotatable=1;deletable=1;editable=1;locked=0;connectable=1;" edge="1" parent="zRi4qjUtURZeb13-JNOz-1158" source="zRi4qjUtURZeb13-JNOz-1040" target="zRi4qjUtURZeb13-JNOz-1015">
          <mxGeometry width="100" height="100" relative="1" as="geometry">
            <mxPoint x="305" y="375" as="sourcePoint" />
            <mxPoint x="260" y="305" as="targetPoint" />
          </mxGeometry>
        </mxCell>
        <mxCell id="zRi4qjUtURZeb13-JNOz-1045" value="diterapkan" style="shape=rhombus;perimeter=rhombusPerimeter;whiteSpace=wrap;html=1;align=center;movable=1;resizable=1;rotatable=1;deletable=1;editable=1;locked=0;connectable=1;container=0;" vertex="1" parent="zRi4qjUtURZeb13-JNOz-1158">
          <mxGeometry x="290" y="470" width="120" height="60" as="geometry" />
        </mxCell>
        <mxCell id="zRi4qjUtURZeb13-JNOz-1046" value="" style="edgeStyle=orthogonalEdgeStyle;fontSize=12;html=1;endArrow=ERone;endFill=1;rounded=0;entryX=1;entryY=0.5;entryDx=0;entryDy=0;exitX=0.5;exitY=1;exitDx=0;exitDy=0;movable=1;resizable=1;rotatable=1;deletable=1;editable=1;locked=0;connectable=1;" edge="1" parent="zRi4qjUtURZeb13-JNOz-1158" source="zRi4qjUtURZeb13-JNOz-1045" target="zRi4qjUtURZeb13-JNOz-1022">
          <mxGeometry width="100" height="100" relative="1" as="geometry">
            <mxPoint x="310" y="490" as="sourcePoint" />
            <mxPoint x="435" y="470" as="targetPoint" />
            <Array as="points">
              <mxPoint x="350" y="550" />
            </Array>
          </mxGeometry>
        </mxCell>
        <mxCell id="zRi4qjUtURZeb13-JNOz-1047" value="" style="fontSize=12;html=1;endArrow=ERmany;rounded=0;exitX=0;exitY=0.5;exitDx=0;exitDy=0;edgeStyle=orthogonalEdgeStyle;entryX=0.866;entryY=1.084;entryDx=0;entryDy=0;entryPerimeter=0;movable=1;resizable=1;rotatable=1;deletable=1;editable=1;locked=0;connectable=1;" edge="1" parent="zRi4qjUtURZeb13-JNOz-1158" source="zRi4qjUtURZeb13-JNOz-1045" target="zRi4qjUtURZeb13-JNOz-1015">
          <mxGeometry width="100" height="100" relative="1" as="geometry">
            <mxPoint x="415" y="560" as="sourcePoint" />
            <mxPoint x="360" y="590" as="targetPoint" />
          </mxGeometry>
        </mxCell>
        <mxCell id="zRi4qjUtURZeb13-JNOz-1048" style="edgeStyle=orthogonalEdgeStyle;rounded=0;orthogonalLoop=1;jettySize=auto;html=1;exitX=0.5;exitY=1;exitDx=0;exitDy=0;movable=1;resizable=1;rotatable=1;deletable=1;editable=1;locked=0;connectable=1;" edge="1" parent="zRi4qjUtURZeb13-JNOz-1158">
          <mxGeometry relative="1" as="geometry">
            <mxPoint x="1165" y="320" as="sourcePoint" />
            <mxPoint x="1165" y="320" as="targetPoint" />
          </mxGeometry>
        </mxCell>
        <mxCell id="zRi4qjUtURZeb13-JNOz-1049" value="memiliki" style="shape=rhombus;perimeter=rhombusPerimeter;whiteSpace=wrap;html=1;align=center;movable=1;resizable=1;rotatable=1;deletable=1;editable=1;locked=0;connectable=1;container=0;" vertex="1" parent="zRi4qjUtURZeb13-JNOz-1158">
          <mxGeometry x="725" y="140" width="120" height="60" as="geometry" />
        </mxCell>
        <mxCell id="zRi4qjUtURZeb13-JNOz-1050" value="" style="edgeStyle=orthogonalEdgeStyle;fontSize=12;html=1;endArrow=ERoneToMany;rounded=0;entryX=0;entryY=0.5;entryDx=0;entryDy=0;exitX=1;exitY=0.5;exitDx=0;exitDy=0;movable=1;resizable=1;rotatable=1;deletable=1;editable=1;locked=0;connectable=1;" edge="1" parent="zRi4qjUtURZeb13-JNOz-1158" source="zRi4qjUtURZeb13-JNOz-1049" target="zRi4qjUtURZeb13-JNOz-977">
          <mxGeometry width="100" height="100" relative="1" as="geometry">
            <mxPoint x="707.5" y="225" as="sourcePoint" />
            <mxPoint x="637.5" y="230" as="targetPoint" />
          </mxGeometry>
        </mxCell>
        <mxCell id="zRi4qjUtURZeb13-JNOz-1051" value="" style="edgeStyle=orthogonalEdgeStyle;fontSize=12;html=1;endArrow=ERone;endFill=1;rounded=0;entryX=0.893;entryY=1.04;entryDx=0;entryDy=0;exitX=0;exitY=0.5;exitDx=0;exitDy=0;entryPerimeter=0;movable=1;resizable=1;rotatable=1;deletable=1;editable=1;locked=0;connectable=1;" edge="1" parent="zRi4qjUtURZeb13-JNOz-1158" source="zRi4qjUtURZeb13-JNOz-1049" target="zRi4qjUtURZeb13-JNOz-992">
          <mxGeometry width="100" height="100" relative="1" as="geometry">
            <mxPoint x="767.5" y="360" as="sourcePoint" />
            <mxPoint x="962.5" y="215" as="targetPoint" />
            <Array as="points">
              <mxPoint x="674" y="170" />
            </Array>
          </mxGeometry>
        </mxCell>
        <mxCell id="zRi4qjUtURZeb13-JNOz-1052" value="" style="edgeStyle=orthogonalEdgeStyle;fontSize=12;html=1;endArrow=ERone;endFill=1;rounded=0;exitX=0;exitY=0.5;exitDx=0;exitDy=0;movable=1;resizable=1;rotatable=1;deletable=1;editable=1;locked=0;connectable=1;" edge="1" parent="zRi4qjUtURZeb13-JNOz-1158" source="zRi4qjUtURZeb13-JNOz-970">
          <mxGeometry width="100" height="100" relative="1" as="geometry">
            <mxPoint x="808.5" y="453" as="sourcePoint" />
            <mxPoint x="730" y="360" as="targetPoint" />
            <Array as="points">
              <mxPoint x="730" y="300" />
            </Array>
          </mxGeometry>
        </mxCell>
        <mxCell id="zRi4qjUtURZeb13-JNOz-961" style="edgeStyle=orthogonalEdgeStyle;rounded=0;orthogonalLoop=1;jettySize=auto;html=1;entryX=1;entryY=0.5;entryDx=0;entryDy=0;endArrow=none;endFill=0;curved=1;movable=1;resizable=1;rotatable=1;deletable=1;editable=1;locked=0;connectable=1;" edge="1" parent="zRi4qjUtURZeb13-JNOz-1158" source="zRi4qjUtURZeb13-JNOz-962" target="zRi4qjUtURZeb13-JNOz-965">
          <mxGeometry relative="1" as="geometry" />
        </mxCell>
        <mxCell id="zRi4qjUtURZeb13-JNOz-962" value="bookmark" style="whiteSpace=wrap;html=1;align=center;movable=1;resizable=1;rotatable=1;deletable=1;editable=1;locked=0;connectable=1;container=0;" vertex="1" parent="zRi4qjUtURZeb13-JNOz-1158">
          <mxGeometry x="160" y="120" width="100" height="40" as="geometry" />
        </mxCell>
        <mxCell id="zRi4qjUtURZeb13-JNOz-963" value="&lt;span style=&quot;color: rgb(70, 73, 93); text-align: left;&quot;&gt;user_id&lt;/span&gt;" style="ellipse;whiteSpace=wrap;html=1;align=center;movable=1;resizable=1;rotatable=1;deletable=1;editable=1;locked=0;connectable=1;container=0;" vertex="1" parent="zRi4qjUtURZeb13-JNOz-1158">
          <mxGeometry x="80" y="60" width="100" height="40" as="geometry" />
        </mxCell>
        <mxCell id="zRi4qjUtURZeb13-JNOz-964" value="&lt;span style=&quot;color: rgb(70, 73, 93); text-align: left;&quot;&gt;book_id&lt;/span&gt;" style="ellipse;whiteSpace=wrap;html=1;align=center;movable=1;resizable=1;rotatable=1;deletable=1;editable=1;locked=0;connectable=1;container=0;" vertex="1" parent="zRi4qjUtURZeb13-JNOz-1158">
          <mxGeometry x="200" y="60" width="100" height="40" as="geometry" />
        </mxCell>
        <mxCell id="zRi4qjUtURZeb13-JNOz-965" value="&lt;span style=&quot;color: rgb(70, 73, 93); text-align: left;&quot;&gt;created_at&lt;/span&gt;" style="ellipse;whiteSpace=wrap;html=1;align=center;movable=1;resizable=1;rotatable=1;deletable=1;editable=1;locked=0;connectable=1;container=0;" vertex="1" parent="zRi4qjUtURZeb13-JNOz-1158">
          <mxGeometry x="20" y="120" width="100" height="40" as="geometry" />
        </mxCell>
        <mxCell id="zRi4qjUtURZeb13-JNOz-966" style="edgeStyle=orthogonalEdgeStyle;rounded=0;orthogonalLoop=1;jettySize=auto;html=1;entryX=0.728;entryY=0.961;entryDx=0;entryDy=0;endArrow=none;endFill=0;exitX=0.25;exitY=0;exitDx=0;exitDy=0;curved=1;entryPerimeter=0;strokeColor=default;movable=1;resizable=1;rotatable=1;deletable=1;editable=1;locked=0;connectable=1;" edge="1" parent="zRi4qjUtURZeb13-JNOz-1158" source="zRi4qjUtURZeb13-JNOz-962" target="zRi4qjUtURZeb13-JNOz-963">
          <mxGeometry relative="1" as="geometry">
            <mxPoint x="190" y="110" as="sourcePoint" />
            <mxPoint x="160" y="110" as="targetPoint" />
          </mxGeometry>
        </mxCell>
        <mxCell id="zRi4qjUtURZeb13-JNOz-967" style="edgeStyle=orthogonalEdgeStyle;rounded=0;orthogonalLoop=1;jettySize=auto;html=1;entryX=0.5;entryY=1;entryDx=0;entryDy=0;endArrow=none;endFill=0;curved=1;movable=1;resizable=1;rotatable=1;deletable=1;editable=1;locked=0;connectable=1;" edge="1" parent="zRi4qjUtURZeb13-JNOz-1158" target="zRi4qjUtURZeb13-JNOz-964">
          <mxGeometry relative="1" as="geometry">
            <mxPoint x="220" y="120" as="sourcePoint" />
            <mxPoint x="160" y="110" as="targetPoint" />
          </mxGeometry>
        </mxCell>
        <mxCell id="zRi4qjUtURZeb13-JNOz-970" value="memiliki" style="shape=rhombus;perimeter=rhombusPerimeter;whiteSpace=wrap;html=1;align=center;movable=1;resizable=1;rotatable=1;deletable=1;editable=1;locked=0;connectable=1;container=0;" vertex="1" parent="zRi4qjUtURZeb13-JNOz-1158">
          <mxGeometry x="760" y="270" width="120" height="60" as="geometry" />
        </mxCell>
        <mxCell id="zRi4qjUtURZeb13-JNOz-972" value="&lt;span style=&quot;color: rgb(70, 73, 93); text-align: left;&quot;&gt;id&lt;/span&gt;" style="ellipse;whiteSpace=wrap;html=1;align=center;movable=1;resizable=1;rotatable=1;deletable=1;editable=1;locked=0;connectable=1;container=0;" vertex="1" parent="zRi4qjUtURZeb13-JNOz-1158">
          <mxGeometry x="1050" y="30" width="100" height="40" as="geometry" />
        </mxCell>
        <mxCell id="zRi4qjUtURZeb13-JNOz-973" value="&lt;span style=&quot;color: rgb(70, 73, 93); text-align: left;&quot;&gt;location_current&lt;/span&gt;" style="ellipse;whiteSpace=wrap;html=1;align=center;movable=1;resizable=1;rotatable=1;deletable=1;editable=1;locked=0;connectable=1;container=0;" vertex="1" parent="zRi4qjUtURZeb13-JNOz-1158">
          <mxGeometry x="1140" y="60" width="100" height="40" as="geometry" />
        </mxCell>
        <mxCell id="zRi4qjUtURZeb13-JNOz-974" value="&lt;span style=&quot;color: rgb(70, 73, 93); text-align: left;&quot;&gt;location_total&lt;/span&gt;" style="ellipse;whiteSpace=wrap;html=1;align=center;movable=1;resizable=1;rotatable=1;deletable=1;editable=1;locked=0;connectable=1;container=0;" vertex="1" parent="zRi4qjUtURZeb13-JNOz-1158">
          <mxGeometry x="1140" y="110" width="100" height="40" as="geometry" />
        </mxCell>
        <mxCell id="zRi4qjUtURZeb13-JNOz-975" value="&lt;span style=&quot;color: rgb(70, 73, 93); text-align: left;&quot;&gt;last_cfi&lt;/span&gt;" style="ellipse;whiteSpace=wrap;html=1;align=center;movable=1;resizable=1;rotatable=1;deletable=1;editable=1;locked=0;connectable=1;container=0;" vertex="1" parent="zRi4qjUtURZeb13-JNOz-1158">
          <mxGeometry x="1140" y="160" width="100" height="40" as="geometry" />
        </mxCell>
        <mxCell id="zRi4qjUtURZeb13-JNOz-976" value="&lt;span style=&quot;color: rgb(70, 73, 93); text-align: left;&quot;&gt;updated_at&lt;/span&gt;" style="ellipse;whiteSpace=wrap;html=1;align=center;movable=1;resizable=1;rotatable=1;deletable=1;editable=1;locked=0;connectable=1;container=0;" vertex="1" parent="zRi4qjUtURZeb13-JNOz-1158">
          <mxGeometry x="1040" y="190" width="100" height="40" as="geometry" />
        </mxCell>
        <mxCell id="zRi4qjUtURZeb13-JNOz-977" value="reading_progress" style="whiteSpace=wrap;html=1;align=center;movable=1;resizable=1;rotatable=1;deletable=1;editable=1;locked=0;connectable=1;container=0;" vertex="1" parent="zRi4qjUtURZeb13-JNOz-1158">
          <mxGeometry x="975" y="130" width="100" height="40" as="geometry" />
        </mxCell>
        <mxCell id="zRi4qjUtURZeb13-JNOz-978" value="" style="edgeStyle=orthogonalEdgeStyle;fontSize=12;html=1;endArrow=ERoneToMany;rounded=0;exitX=1;exitY=0.5;exitDx=0;exitDy=0;movable=1;resizable=1;rotatable=1;deletable=1;editable=1;locked=0;connectable=1;" edge="1" parent="zRi4qjUtURZeb13-JNOz-1158" source="zRi4qjUtURZeb13-JNOz-970">
          <mxGeometry width="100" height="100" relative="1" as="geometry">
            <mxPoint x="890" y="300" as="sourcePoint" />
            <mxPoint x="990" y="170" as="targetPoint" />
            <Array as="points">
              <mxPoint x="990" y="300" />
              <mxPoint x="990" y="170" />
            </Array>
          </mxGeometry>
        </mxCell>
        <mxCell id="zRi4qjUtURZeb13-JNOz-979" value="&lt;span style=&quot;color: rgb(70, 73, 93); text-align: left;&quot;&gt;user_id&lt;/span&gt;" style="ellipse;whiteSpace=wrap;html=1;align=center;movable=1;resizable=1;rotatable=1;deletable=1;editable=1;locked=0;connectable=1;container=0;" vertex="1" parent="zRi4qjUtURZeb13-JNOz-1158">
          <mxGeometry x="900" y="80" width="100" height="40" as="geometry" />
        </mxCell>
        <mxCell id="zRi4qjUtURZeb13-JNOz-980" value="&lt;span style=&quot;color: rgb(70, 73, 93); text-align: left;&quot;&gt;book_id&lt;/span&gt;" style="ellipse;whiteSpace=wrap;html=1;align=center;movable=1;resizable=1;rotatable=1;deletable=1;editable=1;locked=0;connectable=1;container=0;" vertex="1" parent="zRi4qjUtURZeb13-JNOz-1158">
          <mxGeometry x="940" y="30" width="100" height="40" as="geometry" />
        </mxCell>
        <mxCell id="zRi4qjUtURZeb13-JNOz-981" style="edgeStyle=orthogonalEdgeStyle;rounded=0;orthogonalLoop=1;jettySize=auto;html=1;entryX=0.728;entryY=0.961;entryDx=0;entryDy=0;endArrow=none;endFill=0;exitX=0.25;exitY=0;exitDx=0;exitDy=0;curved=1;entryPerimeter=0;strokeColor=default;movable=1;resizable=1;rotatable=1;deletable=1;editable=1;locked=0;connectable=1;" edge="1" parent="zRi4qjUtURZeb13-JNOz-1158" source="zRi4qjUtURZeb13-JNOz-977" target="zRi4qjUtURZeb13-JNOz-979">
          <mxGeometry relative="1" as="geometry">
            <mxPoint x="1005" y="120" as="sourcePoint" />
            <mxPoint x="975" y="120" as="targetPoint" />
          </mxGeometry>
        </mxCell>
        <mxCell id="zRi4qjUtURZeb13-JNOz-982" style="edgeStyle=orthogonalEdgeStyle;rounded=0;orthogonalLoop=1;jettySize=auto;html=1;entryX=0.633;entryY=1.008;entryDx=0;entryDy=0;endArrow=none;endFill=0;curved=1;movable=1;resizable=1;rotatable=1;deletable=1;editable=1;locked=0;connectable=1;entryPerimeter=0;" edge="1" parent="zRi4qjUtURZeb13-JNOz-1158" target="zRi4qjUtURZeb13-JNOz-980">
          <mxGeometry relative="1" as="geometry">
            <mxPoint x="1035" y="130" as="sourcePoint" />
            <mxPoint x="975" y="120" as="targetPoint" />
          </mxGeometry>
        </mxCell>
        <mxCell id="zRi4qjUtURZeb13-JNOz-983" style="edgeStyle=orthogonalEdgeStyle;rounded=0;orthogonalLoop=1;jettySize=auto;html=1;entryX=0;entryY=0.5;entryDx=0;entryDy=0;endArrow=none;endFill=0;curved=1;exitX=1;exitY=0.25;exitDx=0;exitDy=0;movable=1;resizable=1;rotatable=1;deletable=1;editable=1;locked=0;connectable=1;" edge="1" parent="zRi4qjUtURZeb13-JNOz-1158" source="zRi4qjUtURZeb13-JNOz-977" target="zRi4qjUtURZeb13-JNOz-973">
          <mxGeometry relative="1" as="geometry">
            <mxPoint x="1055" y="130" as="sourcePoint" />
            <mxPoint x="1085" y="110" as="targetPoint" />
          </mxGeometry>
        </mxCell>
        <mxCell id="zRi4qjUtURZeb13-JNOz-984" style="edgeStyle=orthogonalEdgeStyle;rounded=0;orthogonalLoop=1;jettySize=auto;html=1;entryX=0;entryY=0.5;entryDx=0;entryDy=0;endArrow=none;endFill=0;curved=1;exitX=1;exitY=0.75;exitDx=0;exitDy=0;movable=1;resizable=1;rotatable=1;deletable=1;editable=1;locked=0;connectable=1;" edge="1" parent="zRi4qjUtURZeb13-JNOz-1158" source="zRi4qjUtURZeb13-JNOz-977" target="zRi4qjUtURZeb13-JNOz-974">
          <mxGeometry relative="1" as="geometry">
            <mxPoint x="1150" y="210" as="sourcePoint" />
            <mxPoint x="1160" y="180" as="targetPoint" />
          </mxGeometry>
        </mxCell>
        <mxCell id="zRi4qjUtURZeb13-JNOz-985" style="edgeStyle=orthogonalEdgeStyle;rounded=0;orthogonalLoop=1;jettySize=auto;html=1;entryX=0;entryY=0.5;entryDx=0;entryDy=0;endArrow=none;endFill=0;curved=1;exitX=1;exitY=1;exitDx=0;exitDy=0;movable=1;resizable=1;rotatable=1;deletable=1;editable=1;locked=0;connectable=1;" edge="1" parent="zRi4qjUtURZeb13-JNOz-1158" source="zRi4qjUtURZeb13-JNOz-977" target="zRi4qjUtURZeb13-JNOz-975">
          <mxGeometry relative="1" as="geometry">
            <mxPoint x="1180" y="240" as="sourcePoint" />
            <mxPoint x="1190" y="210" as="targetPoint" />
            <Array as="points">
              <mxPoint x="1075" y="180" />
            </Array>
          </mxGeometry>
        </mxCell>
        <mxCell id="zRi4qjUtURZeb13-JNOz-986" style="edgeStyle=orthogonalEdgeStyle;rounded=0;orthogonalLoop=1;jettySize=auto;html=1;entryX=0;entryY=0;entryDx=0;entryDy=0;endArrow=none;endFill=0;curved=1;exitX=0.5;exitY=1;exitDx=0;exitDy=0;movable=1;resizable=1;rotatable=1;deletable=1;editable=1;locked=0;connectable=1;" edge="1" parent="zRi4qjUtURZeb13-JNOz-1158" source="zRi4qjUtURZeb13-JNOz-977" target="zRi4qjUtURZeb13-JNOz-976">
          <mxGeometry relative="1" as="geometry">
            <mxPoint x="1060" y="210" as="sourcePoint" />
            <mxPoint x="1110" y="280" as="targetPoint" />
            <Array as="points">
              <mxPoint x="1040" y="170" />
              <mxPoint x="1040" y="196" />
            </Array>
          </mxGeometry>
        </mxCell>
        <mxCell id="zRi4qjUtURZeb13-JNOz-990" style="edgeStyle=orthogonalEdgeStyle;rounded=0;orthogonalLoop=1;jettySize=auto;html=1;entryX=0.5;entryY=1;entryDx=0;entryDy=0;endArrow=none;endFill=0;curved=1;movable=1;resizable=1;rotatable=1;deletable=1;editable=1;locked=0;connectable=1;exitX=0.75;exitY=0;exitDx=0;exitDy=0;" edge="1" parent="zRi4qjUtURZeb13-JNOz-1158" source="zRi4qjUtURZeb13-JNOz-977" target="zRi4qjUtURZeb13-JNOz-972">
          <mxGeometry relative="1" as="geometry">
            <mxPoint x="1052" y="160" as="sourcePoint" />
            <mxPoint x="1020" y="100" as="targetPoint" />
          </mxGeometry>
        </mxCell>
        <mxCell id="zRi4qjUtURZeb13-JNOz-1159" value="" style="swimlane;startSize=0;strokeColor=#788AA3;fontColor=#46495D;fillColor=#B2C9AB;" vertex="1" parent="1">
          <mxGeometry x="760" y="90" width="770" height="600" as="geometry" />
        </mxCell>
        <mxCell id="zRi4qjUtURZeb13-JNOz-1160" value="users" style="shape=table;startSize=30;container=1;collapsible=1;childLayout=tableLayout;fixedRows=1;rowLines=0;fontStyle=1;align=center;resizeLast=1;html=1;labelBackgroundColor=none;fillColor=#B2C9AB;strokeColor=#788AA3;fontColor=#46495D;" vertex="1" parent="zRi4qjUtURZeb13-JNOz-1159">
          <mxGeometry x="290" y="54" width="180" height="180" as="geometry">
            <mxRectangle x="330" y="80" width="70" height="30" as="alternateBounds" />
          </mxGeometry>
        </mxCell>
        <mxCell id="zRi4qjUtURZeb13-JNOz-1161" value="" style="shape=tableRow;horizontal=0;startSize=0;swimlaneHead=0;swimlaneBody=0;fillColor=none;collapsible=0;dropTarget=0;points=[[0,0.5],[1,0.5]];portConstraint=eastwest;top=0;left=0;right=0;bottom=1;labelBackgroundColor=none;strokeColor=#788AA3;fontColor=#46495D;" vertex="1" parent="zRi4qjUtURZeb13-JNOz-1160">
          <mxGeometry y="30" width="180" height="30" as="geometry" />
        </mxCell>
        <mxCell id="zRi4qjUtURZeb13-JNOz-1162" value="PK" style="shape=partialRectangle;connectable=0;fillColor=none;top=0;left=0;bottom=0;right=0;fontStyle=1;overflow=hidden;whiteSpace=wrap;html=1;labelBackgroundColor=none;strokeColor=#788AA3;fontColor=#46495D;" vertex="1" parent="zRi4qjUtURZeb13-JNOz-1161">
          <mxGeometry width="30" height="30" as="geometry">
            <mxRectangle width="30" height="30" as="alternateBounds" />
          </mxGeometry>
        </mxCell>
        <mxCell id="zRi4qjUtURZeb13-JNOz-1163" value="id" style="shape=partialRectangle;connectable=0;fillColor=none;top=0;left=0;bottom=0;right=0;align=left;spacingLeft=6;fontStyle=5;overflow=hidden;whiteSpace=wrap;html=1;labelBackgroundColor=none;strokeColor=#788AA3;fontColor=#46495D;" vertex="1" parent="zRi4qjUtURZeb13-JNOz-1161">
          <mxGeometry x="30" width="150" height="30" as="geometry">
            <mxRectangle width="150" height="30" as="alternateBounds" />
          </mxGeometry>
        </mxCell>
        <mxCell id="zRi4qjUtURZeb13-JNOz-1164" value="" style="shape=tableRow;horizontal=0;startSize=0;swimlaneHead=0;swimlaneBody=0;fillColor=none;collapsible=0;dropTarget=0;points=[[0,0.5],[1,0.5]];portConstraint=eastwest;top=0;left=0;right=0;bottom=0;labelBackgroundColor=none;strokeColor=#788AA3;fontColor=#46495D;" vertex="1" parent="zRi4qjUtURZeb13-JNOz-1160">
          <mxGeometry y="60" width="180" height="30" as="geometry" />
        </mxCell>
        <mxCell id="zRi4qjUtURZeb13-JNOz-1165" value="" style="shape=partialRectangle;connectable=0;fillColor=none;top=0;left=0;bottom=0;right=0;editable=1;overflow=hidden;whiteSpace=wrap;html=1;labelBackgroundColor=none;strokeColor=#788AA3;fontColor=#46495D;" vertex="1" parent="zRi4qjUtURZeb13-JNOz-1164">
          <mxGeometry width="30" height="30" as="geometry">
            <mxRectangle width="30" height="30" as="alternateBounds" />
          </mxGeometry>
        </mxCell>
        <mxCell id="zRi4qjUtURZeb13-JNOz-1166" value="username" style="shape=partialRectangle;connectable=0;fillColor=none;top=0;left=0;bottom=0;right=0;align=left;spacingLeft=6;overflow=hidden;whiteSpace=wrap;html=1;labelBackgroundColor=none;strokeColor=#788AA3;fontColor=#46495D;" vertex="1" parent="zRi4qjUtURZeb13-JNOz-1164">
          <mxGeometry x="30" width="150" height="30" as="geometry">
            <mxRectangle width="150" height="30" as="alternateBounds" />
          </mxGeometry>
        </mxCell>
        <mxCell id="zRi4qjUtURZeb13-JNOz-1167" value="" style="shape=tableRow;horizontal=0;startSize=0;swimlaneHead=0;swimlaneBody=0;fillColor=none;collapsible=0;dropTarget=0;points=[[0,0.5],[1,0.5]];portConstraint=eastwest;top=0;left=0;right=0;bottom=0;labelBackgroundColor=none;strokeColor=#788AA3;fontColor=#46495D;" vertex="1" parent="zRi4qjUtURZeb13-JNOz-1160">
          <mxGeometry y="90" width="180" height="30" as="geometry" />
        </mxCell>
        <mxCell id="zRi4qjUtURZeb13-JNOz-1168" value="" style="shape=partialRectangle;connectable=0;fillColor=none;top=0;left=0;bottom=0;right=0;editable=1;overflow=hidden;whiteSpace=wrap;html=1;labelBackgroundColor=none;strokeColor=#788AA3;fontColor=#46495D;" vertex="1" parent="zRi4qjUtURZeb13-JNOz-1167">
          <mxGeometry width="30" height="30" as="geometry">
            <mxRectangle width="30" height="30" as="alternateBounds" />
          </mxGeometry>
        </mxCell>
        <mxCell id="zRi4qjUtURZeb13-JNOz-1169" value="password" style="shape=partialRectangle;connectable=0;fillColor=none;top=0;left=0;bottom=0;right=0;align=left;spacingLeft=6;overflow=hidden;whiteSpace=wrap;html=1;labelBackgroundColor=none;strokeColor=#788AA3;fontColor=#46495D;" vertex="1" parent="zRi4qjUtURZeb13-JNOz-1167">
          <mxGeometry x="30" width="150" height="30" as="geometry">
            <mxRectangle width="150" height="30" as="alternateBounds" />
          </mxGeometry>
        </mxCell>
        <mxCell id="zRi4qjUtURZeb13-JNOz-1170" value="" style="shape=tableRow;horizontal=0;startSize=0;swimlaneHead=0;swimlaneBody=0;fillColor=none;collapsible=0;dropTarget=0;points=[[0,0.5],[1,0.5]];portConstraint=eastwest;top=0;left=0;right=0;bottom=0;labelBackgroundColor=none;strokeColor=#788AA3;fontColor=#46495D;" vertex="1" parent="zRi4qjUtURZeb13-JNOz-1160">
          <mxGeometry y="120" width="180" height="30" as="geometry" />
        </mxCell>
        <mxCell id="zRi4qjUtURZeb13-JNOz-1171" value="" style="shape=partialRectangle;connectable=0;fillColor=none;top=0;left=0;bottom=0;right=0;editable=1;overflow=hidden;whiteSpace=wrap;html=1;labelBackgroundColor=none;strokeColor=#788AA3;fontColor=#46495D;" vertex="1" parent="zRi4qjUtURZeb13-JNOz-1170">
          <mxGeometry width="30" height="30" as="geometry">
            <mxRectangle width="30" height="30" as="alternateBounds" />
          </mxGeometry>
        </mxCell>
        <mxCell id="zRi4qjUtURZeb13-JNOz-1172" value="role" style="shape=partialRectangle;connectable=0;fillColor=none;top=0;left=0;bottom=0;right=0;align=left;spacingLeft=6;overflow=hidden;whiteSpace=wrap;html=1;labelBackgroundColor=none;strokeColor=#788AA3;fontColor=#46495D;" vertex="1" parent="zRi4qjUtURZeb13-JNOz-1170">
          <mxGeometry x="30" width="150" height="30" as="geometry">
            <mxRectangle width="150" height="30" as="alternateBounds" />
          </mxGeometry>
        </mxCell>
        <mxCell id="zRi4qjUtURZeb13-JNOz-1173" style="shape=tableRow;horizontal=0;startSize=0;swimlaneHead=0;swimlaneBody=0;fillColor=none;collapsible=0;dropTarget=0;points=[[0,0.5],[1,0.5]];portConstraint=eastwest;top=0;left=0;right=0;bottom=0;labelBackgroundColor=none;strokeColor=#788AA3;fontColor=#46495D;" vertex="1" parent="zRi4qjUtURZeb13-JNOz-1160">
          <mxGeometry y="150" width="180" height="30" as="geometry" />
        </mxCell>
        <mxCell id="zRi4qjUtURZeb13-JNOz-1174" style="shape=partialRectangle;connectable=0;fillColor=none;top=0;left=0;bottom=0;right=0;editable=1;overflow=hidden;whiteSpace=wrap;html=1;labelBackgroundColor=none;strokeColor=#788AA3;fontColor=#46495D;" vertex="1" parent="zRi4qjUtURZeb13-JNOz-1173">
          <mxGeometry width="30" height="30" as="geometry">
            <mxRectangle width="30" height="30" as="alternateBounds" />
          </mxGeometry>
        </mxCell>
        <mxCell id="zRi4qjUtURZeb13-JNOz-1175" value="created_at" style="shape=partialRectangle;connectable=0;fillColor=none;top=0;left=0;bottom=0;right=0;align=left;spacingLeft=6;overflow=hidden;whiteSpace=wrap;html=1;labelBackgroundColor=none;strokeColor=#788AA3;fontColor=#46495D;" vertex="1" parent="zRi4qjUtURZeb13-JNOz-1173">
          <mxGeometry x="30" width="150" height="30" as="geometry">
            <mxRectangle width="150" height="30" as="alternateBounds" />
          </mxGeometry>
        </mxCell>
        <mxCell id="zRi4qjUtURZeb13-JNOz-1176" value="books" style="shape=table;startSize=30;container=1;collapsible=1;childLayout=tableLayout;fixedRows=1;rowLines=0;fontStyle=1;align=center;resizeLast=1;html=1;labelBackgroundColor=none;fillColor=#B2C9AB;strokeColor=#788AA3;fontColor=#46495D;" vertex="1" parent="zRi4qjUtURZeb13-JNOz-1159">
          <mxGeometry x="290" y="254" width="210" height="330" as="geometry" />
        </mxCell>
        <mxCell id="zRi4qjUtURZeb13-JNOz-1177" value="" style="shape=tableRow;horizontal=0;startSize=0;swimlaneHead=0;swimlaneBody=0;fillColor=none;collapsible=0;dropTarget=0;points=[[0,0.5],[1,0.5]];portConstraint=eastwest;top=0;left=0;right=0;bottom=1;labelBackgroundColor=none;strokeColor=#788AA3;fontColor=#46495D;" vertex="1" parent="zRi4qjUtURZeb13-JNOz-1176">
          <mxGeometry y="30" width="210" height="30" as="geometry" />
        </mxCell>
        <mxCell id="zRi4qjUtURZeb13-JNOz-1178" value="PK" style="shape=partialRectangle;connectable=0;fillColor=none;top=0;left=0;bottom=0;right=0;fontStyle=1;overflow=hidden;whiteSpace=wrap;html=1;labelBackgroundColor=none;strokeColor=#788AA3;fontColor=#46495D;" vertex="1" parent="zRi4qjUtURZeb13-JNOz-1177">
          <mxGeometry width="30" height="30" as="geometry">
            <mxRectangle width="30" height="30" as="alternateBounds" />
          </mxGeometry>
        </mxCell>
        <mxCell id="zRi4qjUtURZeb13-JNOz-1179" value="id" style="shape=partialRectangle;connectable=0;fillColor=none;top=0;left=0;bottom=0;right=0;align=left;spacingLeft=6;fontStyle=5;overflow=hidden;whiteSpace=wrap;html=1;labelBackgroundColor=none;strokeColor=#788AA3;fontColor=#46495D;" vertex="1" parent="zRi4qjUtURZeb13-JNOz-1177">
          <mxGeometry x="30" width="180" height="30" as="geometry">
            <mxRectangle width="180" height="30" as="alternateBounds" />
          </mxGeometry>
        </mxCell>
        <mxCell id="zRi4qjUtURZeb13-JNOz-1180" value="" style="shape=tableRow;horizontal=0;startSize=0;swimlaneHead=0;swimlaneBody=0;fillColor=none;collapsible=0;dropTarget=0;points=[[0,0.5],[1,0.5]];portConstraint=eastwest;top=0;left=0;right=0;bottom=0;labelBackgroundColor=none;strokeColor=#788AA3;fontColor=#46495D;" vertex="1" parent="zRi4qjUtURZeb13-JNOz-1176">
          <mxGeometry y="60" width="210" height="30" as="geometry" />
        </mxCell>
        <mxCell id="zRi4qjUtURZeb13-JNOz-1181" value="" style="shape=partialRectangle;connectable=0;fillColor=none;top=0;left=0;bottom=0;right=0;editable=1;overflow=hidden;whiteSpace=wrap;html=1;labelBackgroundColor=none;strokeColor=#788AA3;fontColor=#46495D;" vertex="1" parent="zRi4qjUtURZeb13-JNOz-1180">
          <mxGeometry width="30" height="30" as="geometry">
            <mxRectangle width="30" height="30" as="alternateBounds" />
          </mxGeometry>
        </mxCell>
        <mxCell id="zRi4qjUtURZeb13-JNOz-1182" value="title" style="shape=partialRectangle;connectable=0;fillColor=none;top=0;left=0;bottom=0;right=0;align=left;spacingLeft=6;overflow=hidden;whiteSpace=wrap;html=1;labelBackgroundColor=none;strokeColor=#788AA3;fontColor=#46495D;" vertex="1" parent="zRi4qjUtURZeb13-JNOz-1180">
          <mxGeometry x="30" width="180" height="30" as="geometry">
            <mxRectangle width="180" height="30" as="alternateBounds" />
          </mxGeometry>
        </mxCell>
        <mxCell id="zRi4qjUtURZeb13-JNOz-1183" value="" style="shape=tableRow;horizontal=0;startSize=0;swimlaneHead=0;swimlaneBody=0;fillColor=none;collapsible=0;dropTarget=0;points=[[0,0.5],[1,0.5]];portConstraint=eastwest;top=0;left=0;right=0;bottom=0;labelBackgroundColor=none;strokeColor=#788AA3;fontColor=#46495D;" vertex="1" parent="zRi4qjUtURZeb13-JNOz-1176">
          <mxGeometry y="90" width="210" height="30" as="geometry" />
        </mxCell>
        <mxCell id="zRi4qjUtURZeb13-JNOz-1184" value="" style="shape=partialRectangle;connectable=0;fillColor=none;top=0;left=0;bottom=0;right=0;editable=1;overflow=hidden;whiteSpace=wrap;html=1;labelBackgroundColor=none;strokeColor=#788AA3;fontColor=#46495D;" vertex="1" parent="zRi4qjUtURZeb13-JNOz-1183">
          <mxGeometry width="30" height="30" as="geometry">
            <mxRectangle width="30" height="30" as="alternateBounds" />
          </mxGeometry>
        </mxCell>
        <mxCell id="zRi4qjUtURZeb13-JNOz-1185" value="writer" style="shape=partialRectangle;connectable=0;fillColor=none;top=0;left=0;bottom=0;right=0;align=left;spacingLeft=6;overflow=hidden;whiteSpace=wrap;html=1;labelBackgroundColor=none;strokeColor=#788AA3;fontColor=#46495D;" vertex="1" parent="zRi4qjUtURZeb13-JNOz-1183">
          <mxGeometry x="30" width="180" height="30" as="geometry">
            <mxRectangle width="180" height="30" as="alternateBounds" />
          </mxGeometry>
        </mxCell>
        <mxCell id="zRi4qjUtURZeb13-JNOz-1186" value="" style="shape=tableRow;horizontal=0;startSize=0;swimlaneHead=0;swimlaneBody=0;fillColor=none;collapsible=0;dropTarget=0;points=[[0,0.5],[1,0.5]];portConstraint=eastwest;top=0;left=0;right=0;bottom=0;labelBackgroundColor=none;strokeColor=#788AA3;fontColor=#46495D;" vertex="1" parent="zRi4qjUtURZeb13-JNOz-1176">
          <mxGeometry y="120" width="210" height="40" as="geometry" />
        </mxCell>
        <mxCell id="zRi4qjUtURZeb13-JNOz-1187" value="" style="shape=partialRectangle;connectable=0;fillColor=none;top=0;left=0;bottom=0;right=0;editable=1;overflow=hidden;whiteSpace=wrap;html=1;labelBackgroundColor=none;strokeColor=#788AA3;fontColor=#46495D;" vertex="1" parent="zRi4qjUtURZeb13-JNOz-1186">
          <mxGeometry width="30" height="40" as="geometry">
            <mxRectangle width="30" height="40" as="alternateBounds" />
          </mxGeometry>
        </mxCell>
        <mxCell id="zRi4qjUtURZeb13-JNOz-1188" value="&lt;font&gt;file_mime_type &lt;i&gt;(application/epub+zip)&lt;/i&gt;&lt;/font&gt;" style="shape=partialRectangle;connectable=0;fillColor=none;top=0;left=0;bottom=0;right=0;align=left;spacingLeft=6;overflow=hidden;whiteSpace=wrap;html=1;labelBackgroundColor=none;strokeColor=#788AA3;fontColor=#46495D;" vertex="1" parent="zRi4qjUtURZeb13-JNOz-1186">
          <mxGeometry x="30" width="180" height="40" as="geometry">
            <mxRectangle width="180" height="40" as="alternateBounds" />
          </mxGeometry>
        </mxCell>
        <mxCell id="zRi4qjUtURZeb13-JNOz-1189" style="shape=tableRow;horizontal=0;startSize=0;swimlaneHead=0;swimlaneBody=0;fillColor=none;collapsible=0;dropTarget=0;points=[[0,0.5],[1,0.5]];portConstraint=eastwest;top=0;left=0;right=0;bottom=0;labelBackgroundColor=none;strokeColor=#788AA3;fontColor=#46495D;" vertex="1" parent="zRi4qjUtURZeb13-JNOz-1176">
          <mxGeometry y="160" width="210" height="40" as="geometry" />
        </mxCell>
        <mxCell id="zRi4qjUtURZeb13-JNOz-1190" style="shape=partialRectangle;connectable=0;fillColor=none;top=0;left=0;bottom=0;right=0;editable=1;overflow=hidden;whiteSpace=wrap;html=1;labelBackgroundColor=none;strokeColor=#788AA3;fontColor=#46495D;" vertex="1" parent="zRi4qjUtURZeb13-JNOz-1189">
          <mxGeometry width="30" height="40" as="geometry">
            <mxRectangle width="30" height="40" as="alternateBounds" />
          </mxGeometry>
        </mxCell>
        <mxCell id="zRi4qjUtURZeb13-JNOz-1191" value="file_path&lt;div&gt;&lt;i&gt;(./assets/epub/file_name.epub)&lt;/i&gt;&lt;/div&gt;" style="shape=partialRectangle;connectable=0;fillColor=none;top=0;left=0;bottom=0;right=0;align=left;spacingLeft=6;overflow=hidden;whiteSpace=wrap;html=1;labelBackgroundColor=none;strokeColor=#788AA3;fontColor=#46495D;" vertex="1" parent="zRi4qjUtURZeb13-JNOz-1189">
          <mxGeometry x="30" width="180" height="40" as="geometry">
            <mxRectangle width="180" height="40" as="alternateBounds" />
          </mxGeometry>
        </mxCell>
        <mxCell id="zRi4qjUtURZeb13-JNOz-1192" style="shape=tableRow;horizontal=0;startSize=0;swimlaneHead=0;swimlaneBody=0;fillColor=none;collapsible=0;dropTarget=0;points=[[0,0.5],[1,0.5]];portConstraint=eastwest;top=0;left=0;right=0;bottom=0;labelBackgroundColor=none;strokeColor=#788AA3;fontColor=#46495D;" vertex="1" parent="zRi4qjUtURZeb13-JNOz-1176">
          <mxGeometry y="200" width="210" height="30" as="geometry" />
        </mxCell>
        <mxCell id="zRi4qjUtURZeb13-JNOz-1193" style="shape=partialRectangle;connectable=0;fillColor=none;top=0;left=0;bottom=0;right=0;editable=1;overflow=hidden;whiteSpace=wrap;html=1;labelBackgroundColor=none;strokeColor=#788AA3;fontColor=#46495D;" vertex="1" parent="zRi4qjUtURZeb13-JNOz-1192">
          <mxGeometry width="30" height="30" as="geometry">
            <mxRectangle width="30" height="30" as="alternateBounds" />
          </mxGeometry>
        </mxCell>
        <mxCell id="zRi4qjUtURZeb13-JNOz-1194" value="cover_file_name" style="shape=partialRectangle;connectable=0;fillColor=none;top=0;left=0;bottom=0;right=0;align=left;spacingLeft=6;overflow=hidden;whiteSpace=wrap;html=1;labelBackgroundColor=none;strokeColor=#788AA3;fontColor=#46495D;" vertex="1" parent="zRi4qjUtURZeb13-JNOz-1192">
          <mxGeometry x="30" width="180" height="30" as="geometry">
            <mxRectangle width="180" height="30" as="alternateBounds" />
          </mxGeometry>
        </mxCell>
        <mxCell id="zRi4qjUtURZeb13-JNOz-1195" style="shape=tableRow;horizontal=0;startSize=0;swimlaneHead=0;swimlaneBody=0;fillColor=none;collapsible=0;dropTarget=0;points=[[0,0.5],[1,0.5]];portConstraint=eastwest;top=0;left=0;right=0;bottom=0;labelBackgroundColor=none;strokeColor=#788AA3;fontColor=#46495D;" vertex="1" parent="zRi4qjUtURZeb13-JNOz-1176">
          <mxGeometry y="230" width="210" height="40" as="geometry" />
        </mxCell>
        <mxCell id="zRi4qjUtURZeb13-JNOz-1196" style="shape=partialRectangle;connectable=0;fillColor=none;top=0;left=0;bottom=0;right=0;editable=1;overflow=hidden;whiteSpace=wrap;html=1;labelBackgroundColor=none;strokeColor=#788AA3;fontColor=#46495D;" vertex="1" parent="zRi4qjUtURZeb13-JNOz-1195">
          <mxGeometry width="30" height="40" as="geometry">
            <mxRectangle width="30" height="40" as="alternateBounds" />
          </mxGeometry>
        </mxCell>
        <mxCell id="zRi4qjUtURZeb13-JNOz-1197" value="cover-mime_type&lt;div&gt;&lt;i&gt;(image/jpg)&lt;/i&gt;&lt;/div&gt;" style="shape=partialRectangle;connectable=0;fillColor=none;top=0;left=0;bottom=0;right=0;align=left;spacingLeft=6;overflow=hidden;whiteSpace=wrap;html=1;labelBackgroundColor=none;strokeColor=#788AA3;fontColor=#46495D;" vertex="1" parent="zRi4qjUtURZeb13-JNOz-1195">
          <mxGeometry x="30" width="180" height="40" as="geometry">
            <mxRectangle width="180" height="40" as="alternateBounds" />
          </mxGeometry>
        </mxCell>
        <mxCell id="zRi4qjUtURZeb13-JNOz-1198" style="shape=tableRow;horizontal=0;startSize=0;swimlaneHead=0;swimlaneBody=0;fillColor=none;collapsible=0;dropTarget=0;points=[[0,0.5],[1,0.5]];portConstraint=eastwest;top=0;left=0;right=0;bottom=0;labelBackgroundColor=none;strokeColor=#788AA3;fontColor=#46495D;" vertex="1" parent="zRi4qjUtURZeb13-JNOz-1176">
          <mxGeometry y="270" width="210" height="30" as="geometry" />
        </mxCell>
        <mxCell id="zRi4qjUtURZeb13-JNOz-1199" style="shape=partialRectangle;connectable=0;fillColor=none;top=0;left=0;bottom=0;right=0;editable=1;overflow=hidden;whiteSpace=wrap;html=1;labelBackgroundColor=none;strokeColor=#788AA3;fontColor=#46495D;" vertex="1" parent="zRi4qjUtURZeb13-JNOz-1198">
          <mxGeometry width="30" height="30" as="geometry">
            <mxRectangle width="30" height="30" as="alternateBounds" />
          </mxGeometry>
        </mxCell>
        <mxCell id="zRi4qjUtURZeb13-JNOz-1200" value="cover" style="shape=partialRectangle;connectable=0;fillColor=none;top=0;left=0;bottom=0;right=0;align=left;spacingLeft=6;overflow=hidden;whiteSpace=wrap;html=1;labelBackgroundColor=none;strokeColor=#788AA3;fontColor=#46495D;" vertex="1" parent="zRi4qjUtURZeb13-JNOz-1198">
          <mxGeometry x="30" width="180" height="30" as="geometry">
            <mxRectangle width="180" height="30" as="alternateBounds" />
          </mxGeometry>
        </mxCell>
        <mxCell id="zRi4qjUtURZeb13-JNOz-1201" style="shape=tableRow;horizontal=0;startSize=0;swimlaneHead=0;swimlaneBody=0;fillColor=none;collapsible=0;dropTarget=0;points=[[0,0.5],[1,0.5]];portConstraint=eastwest;top=0;left=0;right=0;bottom=0;labelBackgroundColor=none;strokeColor=#788AA3;fontColor=#46495D;" vertex="1" parent="zRi4qjUtURZeb13-JNOz-1176">
          <mxGeometry y="300" width="210" height="30" as="geometry" />
        </mxCell>
        <mxCell id="zRi4qjUtURZeb13-JNOz-1202" style="shape=partialRectangle;connectable=0;fillColor=none;top=0;left=0;bottom=0;right=0;editable=1;overflow=hidden;whiteSpace=wrap;html=1;labelBackgroundColor=none;strokeColor=#788AA3;fontColor=#46495D;" vertex="1" parent="zRi4qjUtURZeb13-JNOz-1201">
          <mxGeometry width="30" height="30" as="geometry">
            <mxRectangle width="30" height="30" as="alternateBounds" />
          </mxGeometry>
        </mxCell>
        <mxCell id="zRi4qjUtURZeb13-JNOz-1203" value="created_at" style="shape=partialRectangle;connectable=0;fillColor=none;top=0;left=0;bottom=0;right=0;align=left;spacingLeft=6;overflow=hidden;whiteSpace=wrap;html=1;labelBackgroundColor=none;strokeColor=#788AA3;fontColor=#46495D;" vertex="1" parent="zRi4qjUtURZeb13-JNOz-1201">
          <mxGeometry x="30" width="180" height="30" as="geometry">
            <mxRectangle width="180" height="30" as="alternateBounds" />
          </mxGeometry>
        </mxCell>
        <mxCell id="zRi4qjUtURZeb13-JNOz-1204" value="reading_progress" style="shape=table;startSize=30;container=1;collapsible=1;childLayout=tableLayout;fixedRows=1;rowLines=0;fontStyle=1;align=center;resizeLast=1;html=1;labelBackgroundColor=none;fillColor=#B2C9AB;strokeColor=#788AA3;fontColor=#46495D;" vertex="1" parent="zRi4qjUtURZeb13-JNOz-1159">
          <mxGeometry x="570" y="194" width="180" height="240" as="geometry" />
        </mxCell>
        <mxCell id="zRi4qjUtURZeb13-JNOz-1205" value="" style="shape=tableRow;horizontal=0;startSize=0;swimlaneHead=0;swimlaneBody=0;fillColor=none;collapsible=0;dropTarget=0;points=[[0,0.5],[1,0.5]];portConstraint=eastwest;top=0;left=0;right=0;bottom=1;labelBackgroundColor=none;strokeColor=#788AA3;fontColor=#46495D;" vertex="1" parent="zRi4qjUtURZeb13-JNOz-1204">
          <mxGeometry y="30" width="180" height="30" as="geometry" />
        </mxCell>
        <mxCell id="zRi4qjUtURZeb13-JNOz-1206" value="PK" style="shape=partialRectangle;connectable=0;fillColor=none;top=0;left=0;bottom=0;right=0;fontStyle=1;overflow=hidden;whiteSpace=wrap;html=1;labelBackgroundColor=none;strokeColor=#788AA3;fontColor=#46495D;" vertex="1" parent="zRi4qjUtURZeb13-JNOz-1205">
          <mxGeometry width="30" height="30" as="geometry">
            <mxRectangle width="30" height="30" as="alternateBounds" />
          </mxGeometry>
        </mxCell>
        <mxCell id="zRi4qjUtURZeb13-JNOz-1207" value="id" style="shape=partialRectangle;connectable=0;fillColor=none;top=0;left=0;bottom=0;right=0;align=left;spacingLeft=6;fontStyle=5;overflow=hidden;whiteSpace=wrap;html=1;labelBackgroundColor=none;strokeColor=#788AA3;fontColor=#46495D;" vertex="1" parent="zRi4qjUtURZeb13-JNOz-1205">
          <mxGeometry x="30" width="150" height="30" as="geometry">
            <mxRectangle width="150" height="30" as="alternateBounds" />
          </mxGeometry>
        </mxCell>
        <mxCell id="zRi4qjUtURZeb13-JNOz-1208" value="" style="shape=tableRow;horizontal=0;startSize=0;swimlaneHead=0;swimlaneBody=0;fillColor=none;collapsible=0;dropTarget=0;points=[[0,0.5],[1,0.5]];portConstraint=eastwest;top=0;left=0;right=0;bottom=0;labelBackgroundColor=none;strokeColor=#788AA3;fontColor=#46495D;" vertex="1" parent="zRi4qjUtURZeb13-JNOz-1204">
          <mxGeometry y="60" width="180" height="30" as="geometry" />
        </mxCell>
        <mxCell id="zRi4qjUtURZeb13-JNOz-1209" value="FK" style="shape=partialRectangle;connectable=0;fillColor=none;top=0;left=0;bottom=0;right=0;editable=1;overflow=hidden;whiteSpace=wrap;html=1;labelBackgroundColor=none;strokeColor=#788AA3;fontColor=#46495D;" vertex="1" parent="zRi4qjUtURZeb13-JNOz-1208">
          <mxGeometry width="30" height="30" as="geometry">
            <mxRectangle width="30" height="30" as="alternateBounds" />
          </mxGeometry>
        </mxCell>
        <mxCell id="zRi4qjUtURZeb13-JNOz-1210" value="user_id" style="shape=partialRectangle;connectable=0;fillColor=none;top=0;left=0;bottom=0;right=0;align=left;spacingLeft=6;overflow=hidden;whiteSpace=wrap;html=1;labelBackgroundColor=none;strokeColor=#788AA3;fontColor=#46495D;" vertex="1" parent="zRi4qjUtURZeb13-JNOz-1208">
          <mxGeometry x="30" width="150" height="30" as="geometry">
            <mxRectangle width="150" height="30" as="alternateBounds" />
          </mxGeometry>
        </mxCell>
        <mxCell id="zRi4qjUtURZeb13-JNOz-1211" value="" style="shape=tableRow;horizontal=0;startSize=0;swimlaneHead=0;swimlaneBody=0;fillColor=none;collapsible=0;dropTarget=0;points=[[0,0.5],[1,0.5]];portConstraint=eastwest;top=0;left=0;right=0;bottom=0;labelBackgroundColor=none;strokeColor=#788AA3;fontColor=#46495D;" vertex="1" parent="zRi4qjUtURZeb13-JNOz-1204">
          <mxGeometry y="90" width="180" height="30" as="geometry" />
        </mxCell>
        <mxCell id="zRi4qjUtURZeb13-JNOz-1212" value="FK" style="shape=partialRectangle;connectable=0;fillColor=none;top=0;left=0;bottom=0;right=0;editable=1;overflow=hidden;whiteSpace=wrap;html=1;labelBackgroundColor=none;strokeColor=#788AA3;fontColor=#46495D;" vertex="1" parent="zRi4qjUtURZeb13-JNOz-1211">
          <mxGeometry width="30" height="30" as="geometry">
            <mxRectangle width="30" height="30" as="alternateBounds" />
          </mxGeometry>
        </mxCell>
        <mxCell id="zRi4qjUtURZeb13-JNOz-1213" value="book_id" style="shape=partialRectangle;connectable=0;fillColor=none;top=0;left=0;bottom=0;right=0;align=left;spacingLeft=6;overflow=hidden;whiteSpace=wrap;html=1;labelBackgroundColor=none;strokeColor=#788AA3;fontColor=#46495D;" vertex="1" parent="zRi4qjUtURZeb13-JNOz-1211">
          <mxGeometry x="30" width="150" height="30" as="geometry">
            <mxRectangle width="150" height="30" as="alternateBounds" />
          </mxGeometry>
        </mxCell>
        <mxCell id="zRi4qjUtURZeb13-JNOz-1214" value="" style="shape=tableRow;horizontal=0;startSize=0;swimlaneHead=0;swimlaneBody=0;fillColor=none;collapsible=0;dropTarget=0;points=[[0,0.5],[1,0.5]];portConstraint=eastwest;top=0;left=0;right=0;bottom=0;labelBackgroundColor=none;strokeColor=#788AA3;fontColor=#46495D;" vertex="1" parent="zRi4qjUtURZeb13-JNOz-1204">
          <mxGeometry y="120" width="180" height="30" as="geometry" />
        </mxCell>
        <mxCell id="zRi4qjUtURZeb13-JNOz-1215" value="" style="shape=partialRectangle;connectable=0;fillColor=none;top=0;left=0;bottom=0;right=0;editable=1;overflow=hidden;whiteSpace=wrap;html=1;labelBackgroundColor=none;strokeColor=#788AA3;fontColor=#46495D;" vertex="1" parent="zRi4qjUtURZeb13-JNOz-1214">
          <mxGeometry width="30" height="30" as="geometry">
            <mxRectangle width="30" height="30" as="alternateBounds" />
          </mxGeometry>
        </mxCell>
        <mxCell id="zRi4qjUtURZeb13-JNOz-1216" value="last_cfi" style="shape=partialRectangle;connectable=0;fillColor=none;top=0;left=0;bottom=0;right=0;align=left;spacingLeft=6;overflow=hidden;whiteSpace=wrap;html=1;labelBackgroundColor=none;strokeColor=#788AA3;fontColor=#46495D;" vertex="1" parent="zRi4qjUtURZeb13-JNOz-1214">
          <mxGeometry x="30" width="150" height="30" as="geometry">
            <mxRectangle width="150" height="30" as="alternateBounds" />
          </mxGeometry>
        </mxCell>
        <mxCell id="zRi4qjUtURZeb13-JNOz-1217" style="shape=tableRow;horizontal=0;startSize=0;swimlaneHead=0;swimlaneBody=0;fillColor=none;collapsible=0;dropTarget=0;points=[[0,0.5],[1,0.5]];portConstraint=eastwest;top=0;left=0;right=0;bottom=0;labelBackgroundColor=none;strokeColor=#788AA3;fontColor=#46495D;" vertex="1" parent="zRi4qjUtURZeb13-JNOz-1204">
          <mxGeometry y="150" width="180" height="30" as="geometry" />
        </mxCell>
        <mxCell id="zRi4qjUtURZeb13-JNOz-1218" style="shape=partialRectangle;connectable=0;fillColor=none;top=0;left=0;bottom=0;right=0;editable=1;overflow=hidden;whiteSpace=wrap;html=1;labelBackgroundColor=none;strokeColor=#788AA3;fontColor=#46495D;" vertex="1" parent="zRi4qjUtURZeb13-JNOz-1217">
          <mxGeometry width="30" height="30" as="geometry">
            <mxRectangle width="30" height="30" as="alternateBounds" />
          </mxGeometry>
        </mxCell>
        <mxCell id="zRi4qjUtURZeb13-JNOz-1219" value="location_current" style="shape=partialRectangle;connectable=0;fillColor=none;top=0;left=0;bottom=0;right=0;align=left;spacingLeft=6;overflow=hidden;whiteSpace=wrap;html=1;labelBackgroundColor=none;strokeColor=#788AA3;fontColor=#46495D;" vertex="1" parent="zRi4qjUtURZeb13-JNOz-1217">
          <mxGeometry x="30" width="150" height="30" as="geometry">
            <mxRectangle width="150" height="30" as="alternateBounds" />
          </mxGeometry>
        </mxCell>
        <mxCell id="zRi4qjUtURZeb13-JNOz-1220" style="shape=tableRow;horizontal=0;startSize=0;swimlaneHead=0;swimlaneBody=0;fillColor=none;collapsible=0;dropTarget=0;points=[[0,0.5],[1,0.5]];portConstraint=eastwest;top=0;left=0;right=0;bottom=0;labelBackgroundColor=none;strokeColor=#788AA3;fontColor=#46495D;" vertex="1" parent="zRi4qjUtURZeb13-JNOz-1204">
          <mxGeometry y="180" width="180" height="30" as="geometry" />
        </mxCell>
        <mxCell id="zRi4qjUtURZeb13-JNOz-1221" style="shape=partialRectangle;connectable=0;fillColor=none;top=0;left=0;bottom=0;right=0;editable=1;overflow=hidden;whiteSpace=wrap;html=1;labelBackgroundColor=none;strokeColor=#788AA3;fontColor=#46495D;" vertex="1" parent="zRi4qjUtURZeb13-JNOz-1220">
          <mxGeometry width="30" height="30" as="geometry">
            <mxRectangle width="30" height="30" as="alternateBounds" />
          </mxGeometry>
        </mxCell>
        <mxCell id="zRi4qjUtURZeb13-JNOz-1222" value="location_total" style="shape=partialRectangle;connectable=0;fillColor=none;top=0;left=0;bottom=0;right=0;align=left;spacingLeft=6;overflow=hidden;whiteSpace=wrap;html=1;labelBackgroundColor=none;strokeColor=#788AA3;fontColor=#46495D;" vertex="1" parent="zRi4qjUtURZeb13-JNOz-1220">
          <mxGeometry x="30" width="150" height="30" as="geometry">
            <mxRectangle width="150" height="30" as="alternateBounds" />
          </mxGeometry>
        </mxCell>
        <mxCell id="zRi4qjUtURZeb13-JNOz-1223" style="shape=tableRow;horizontal=0;startSize=0;swimlaneHead=0;swimlaneBody=0;fillColor=none;collapsible=0;dropTarget=0;points=[[0,0.5],[1,0.5]];portConstraint=eastwest;top=0;left=0;right=0;bottom=0;labelBackgroundColor=none;strokeColor=#788AA3;fontColor=#46495D;" vertex="1" parent="zRi4qjUtURZeb13-JNOz-1204">
          <mxGeometry y="210" width="180" height="30" as="geometry" />
        </mxCell>
        <mxCell id="zRi4qjUtURZeb13-JNOz-1224" style="shape=partialRectangle;connectable=0;fillColor=none;top=0;left=0;bottom=0;right=0;editable=1;overflow=hidden;whiteSpace=wrap;html=1;labelBackgroundColor=none;strokeColor=#788AA3;fontColor=#46495D;" vertex="1" parent="zRi4qjUtURZeb13-JNOz-1223">
          <mxGeometry width="30" height="30" as="geometry">
            <mxRectangle width="30" height="30" as="alternateBounds" />
          </mxGeometry>
        </mxCell>
        <mxCell id="zRi4qjUtURZeb13-JNOz-1225" value="updated_at" style="shape=partialRectangle;connectable=0;fillColor=none;top=0;left=0;bottom=0;right=0;align=left;spacingLeft=6;overflow=hidden;whiteSpace=wrap;html=1;labelBackgroundColor=none;strokeColor=#788AA3;fontColor=#46495D;" vertex="1" parent="zRi4qjUtURZeb13-JNOz-1223">
          <mxGeometry x="30" width="150" height="30" as="geometry">
            <mxRectangle width="150" height="30" as="alternateBounds" />
          </mxGeometry>
        </mxCell>
        <mxCell id="zRi4qjUtURZeb13-JNOz-1226" style="edgeStyle=orthogonalEdgeStyle;rounded=0;orthogonalLoop=1;jettySize=auto;html=1;entryX=1;entryY=0.5;entryDx=0;entryDy=0;labelBackgroundColor=none;fontColor=default;strokeColor=#788AA3;" edge="1" parent="zRi4qjUtURZeb13-JNOz-1159" source="zRi4qjUtURZeb13-JNOz-1211" target="zRi4qjUtURZeb13-JNOz-1177">
          <mxGeometry relative="1" as="geometry" />
        </mxCell>
        <mxCell id="zRi4qjUtURZeb13-JNOz-1227" value="bookmark" style="shape=table;startSize=30;container=1;collapsible=1;childLayout=tableLayout;fixedRows=1;rowLines=0;fontStyle=1;align=center;resizeLast=1;html=1;labelBackgroundColor=none;fillColor=#B2C9AB;strokeColor=#788AA3;fontColor=#46495D;" vertex="1" parent="zRi4qjUtURZeb13-JNOz-1159">
          <mxGeometry x="20" y="24" width="180" height="150" as="geometry" />
        </mxCell>
        <mxCell id="zRi4qjUtURZeb13-JNOz-1228" value="" style="shape=tableRow;horizontal=0;startSize=0;swimlaneHead=0;swimlaneBody=0;fillColor=none;collapsible=0;dropTarget=0;points=[[0,0.5],[1,0.5]];portConstraint=eastwest;top=0;left=0;right=0;bottom=1;labelBackgroundColor=none;strokeColor=#788AA3;fontColor=#46495D;" vertex="1" parent="zRi4qjUtURZeb13-JNOz-1227">
          <mxGeometry y="30" width="180" height="30" as="geometry" />
        </mxCell>
        <mxCell id="zRi4qjUtURZeb13-JNOz-1229" value="PK" style="shape=partialRectangle;connectable=0;fillColor=none;top=0;left=0;bottom=0;right=0;fontStyle=1;overflow=hidden;whiteSpace=wrap;html=1;labelBackgroundColor=none;strokeColor=#788AA3;fontColor=#46495D;" vertex="1" parent="zRi4qjUtURZeb13-JNOz-1228">
          <mxGeometry width="30" height="30" as="geometry">
            <mxRectangle width="30" height="30" as="alternateBounds" />
          </mxGeometry>
        </mxCell>
        <mxCell id="zRi4qjUtURZeb13-JNOz-1230" value="id" style="shape=partialRectangle;connectable=0;fillColor=none;top=0;left=0;bottom=0;right=0;align=left;spacingLeft=6;fontStyle=5;overflow=hidden;whiteSpace=wrap;html=1;labelBackgroundColor=none;strokeColor=#788AA3;fontColor=#46495D;" vertex="1" parent="zRi4qjUtURZeb13-JNOz-1228">
          <mxGeometry x="30" width="150" height="30" as="geometry">
            <mxRectangle width="150" height="30" as="alternateBounds" />
          </mxGeometry>
        </mxCell>
        <mxCell id="zRi4qjUtURZeb13-JNOz-1231" value="" style="shape=tableRow;horizontal=0;startSize=0;swimlaneHead=0;swimlaneBody=0;fillColor=none;collapsible=0;dropTarget=0;points=[[0,0.5],[1,0.5]];portConstraint=eastwest;top=0;left=0;right=0;bottom=0;labelBackgroundColor=none;strokeColor=#788AA3;fontColor=#46495D;" vertex="1" parent="zRi4qjUtURZeb13-JNOz-1227">
          <mxGeometry y="60" width="180" height="30" as="geometry" />
        </mxCell>
        <mxCell id="zRi4qjUtURZeb13-JNOz-1232" value="FK" style="shape=partialRectangle;connectable=0;fillColor=none;top=0;left=0;bottom=0;right=0;editable=1;overflow=hidden;whiteSpace=wrap;html=1;labelBackgroundColor=none;strokeColor=#788AA3;fontColor=#46495D;" vertex="1" parent="zRi4qjUtURZeb13-JNOz-1231">
          <mxGeometry width="30" height="30" as="geometry">
            <mxRectangle width="30" height="30" as="alternateBounds" />
          </mxGeometry>
        </mxCell>
        <mxCell id="zRi4qjUtURZeb13-JNOz-1233" value="user_id" style="shape=partialRectangle;connectable=0;fillColor=none;top=0;left=0;bottom=0;right=0;align=left;spacingLeft=6;overflow=hidden;whiteSpace=wrap;html=1;labelBackgroundColor=none;strokeColor=#788AA3;fontColor=#46495D;" vertex="1" parent="zRi4qjUtURZeb13-JNOz-1231">
          <mxGeometry x="30" width="150" height="30" as="geometry">
            <mxRectangle width="150" height="30" as="alternateBounds" />
          </mxGeometry>
        </mxCell>
        <mxCell id="zRi4qjUtURZeb13-JNOz-1234" value="" style="shape=tableRow;horizontal=0;startSize=0;swimlaneHead=0;swimlaneBody=0;fillColor=none;collapsible=0;dropTarget=0;points=[[0,0.5],[1,0.5]];portConstraint=eastwest;top=0;left=0;right=0;bottom=0;labelBackgroundColor=none;strokeColor=#788AA3;fontColor=#46495D;" vertex="1" parent="zRi4qjUtURZeb13-JNOz-1227">
          <mxGeometry y="90" width="180" height="30" as="geometry" />
        </mxCell>
        <mxCell id="zRi4qjUtURZeb13-JNOz-1235" value="FK" style="shape=partialRectangle;connectable=0;fillColor=none;top=0;left=0;bottom=0;right=0;editable=1;overflow=hidden;whiteSpace=wrap;html=1;labelBackgroundColor=none;strokeColor=#788AA3;fontColor=#46495D;" vertex="1" parent="zRi4qjUtURZeb13-JNOz-1234">
          <mxGeometry width="30" height="30" as="geometry">
            <mxRectangle width="30" height="30" as="alternateBounds" />
          </mxGeometry>
        </mxCell>
        <mxCell id="zRi4qjUtURZeb13-JNOz-1236" value="book_id" style="shape=partialRectangle;connectable=0;fillColor=none;top=0;left=0;bottom=0;right=0;align=left;spacingLeft=6;overflow=hidden;whiteSpace=wrap;html=1;labelBackgroundColor=none;strokeColor=#788AA3;fontColor=#46495D;" vertex="1" parent="zRi4qjUtURZeb13-JNOz-1234">
          <mxGeometry x="30" width="150" height="30" as="geometry">
            <mxRectangle width="150" height="30" as="alternateBounds" />
          </mxGeometry>
        </mxCell>
        <mxCell id="zRi4qjUtURZeb13-JNOz-1237" value="" style="shape=tableRow;horizontal=0;startSize=0;swimlaneHead=0;swimlaneBody=0;fillColor=none;collapsible=0;dropTarget=0;points=[[0,0.5],[1,0.5]];portConstraint=eastwest;top=0;left=0;right=0;bottom=0;labelBackgroundColor=none;strokeColor=#788AA3;fontColor=#46495D;" vertex="1" parent="zRi4qjUtURZeb13-JNOz-1227">
          <mxGeometry y="120" width="180" height="30" as="geometry" />
        </mxCell>
        <mxCell id="zRi4qjUtURZeb13-JNOz-1238" value="" style="shape=partialRectangle;connectable=0;fillColor=none;top=0;left=0;bottom=0;right=0;editable=1;overflow=hidden;whiteSpace=wrap;html=1;labelBackgroundColor=none;strokeColor=#788AA3;fontColor=#46495D;" vertex="1" parent="zRi4qjUtURZeb13-JNOz-1237">
          <mxGeometry width="30" height="30" as="geometry">
            <mxRectangle width="30" height="30" as="alternateBounds" />
          </mxGeometry>
        </mxCell>
        <mxCell id="zRi4qjUtURZeb13-JNOz-1239" value="created_at" style="shape=partialRectangle;connectable=0;fillColor=none;top=0;left=0;bottom=0;right=0;align=left;spacingLeft=6;overflow=hidden;whiteSpace=wrap;html=1;labelBackgroundColor=none;strokeColor=#788AA3;fontColor=#46495D;" vertex="1" parent="zRi4qjUtURZeb13-JNOz-1237">
          <mxGeometry x="30" width="150" height="30" as="geometry">
            <mxRectangle width="150" height="30" as="alternateBounds" />
          </mxGeometry>
        </mxCell>
        <mxCell id="zRi4qjUtURZeb13-JNOz-1240" style="edgeStyle=orthogonalEdgeStyle;rounded=0;orthogonalLoop=1;jettySize=auto;html=1;entryX=0;entryY=0.5;entryDx=0;entryDy=0;labelBackgroundColor=none;fontColor=default;strokeColor=#788AA3;" edge="1" parent="zRi4qjUtURZeb13-JNOz-1159" source="zRi4qjUtURZeb13-JNOz-1231" target="zRi4qjUtURZeb13-JNOz-1161">
          <mxGeometry relative="1" as="geometry" />
        </mxCell>
        <mxCell id="zRi4qjUtURZeb13-JNOz-1241" style="edgeStyle=orthogonalEdgeStyle;rounded=0;orthogonalLoop=1;jettySize=auto;html=1;entryX=0;entryY=0.5;entryDx=0;entryDy=0;labelBackgroundColor=none;fontColor=default;strokeColor=#788AA3;" edge="1" parent="zRi4qjUtURZeb13-JNOz-1159" source="zRi4qjUtURZeb13-JNOz-1234" target="zRi4qjUtURZeb13-JNOz-1177">
          <mxGeometry relative="1" as="geometry">
            <Array as="points">
              <mxPoint x="240.07999999999998" y="129" />
              <mxPoint x="240.07999999999998" y="299" />
            </Array>
          </mxGeometry>
        </mxCell>
        <mxCell id="zRi4qjUtURZeb13-JNOz-1242" style="edgeStyle=orthogonalEdgeStyle;rounded=0;orthogonalLoop=1;jettySize=auto;html=1;entryX=1;entryY=0.5;entryDx=0;entryDy=0;labelBackgroundColor=none;fontColor=default;strokeColor=#788AA3;" edge="1" parent="zRi4qjUtURZeb13-JNOz-1159" source="zRi4qjUtURZeb13-JNOz-1208" target="zRi4qjUtURZeb13-JNOz-1161">
          <mxGeometry relative="1" as="geometry">
            <Array as="points">
              <mxPoint x="540" y="269" />
              <mxPoint x="540" y="99" />
            </Array>
          </mxGeometry>
        </mxCell>
        <mxCell id="zRi4qjUtURZeb13-JNOz-1243" value="category" style="shape=table;startSize=30;container=1;collapsible=1;childLayout=tableLayout;fixedRows=1;rowLines=0;fontStyle=1;align=center;resizeLast=1;html=1;labelBackgroundColor=none;fillColor=#B2C9AB;strokeColor=#788AA3;fontColor=#46495D;" vertex="1" parent="zRi4qjUtURZeb13-JNOz-1159">
          <mxGeometry x="20" y="454" width="180.08" height="90" as="geometry" />
        </mxCell>
        <mxCell id="zRi4qjUtURZeb13-JNOz-1244" value="" style="shape=tableRow;horizontal=0;startSize=0;swimlaneHead=0;swimlaneBody=0;fillColor=none;collapsible=0;dropTarget=0;points=[[0,0.5],[1,0.5]];portConstraint=eastwest;top=0;left=0;right=0;bottom=1;labelBackgroundColor=none;strokeColor=#788AA3;fontColor=#46495D;" vertex="1" parent="zRi4qjUtURZeb13-JNOz-1243">
          <mxGeometry y="30" width="180.08" height="30" as="geometry" />
        </mxCell>
        <mxCell id="zRi4qjUtURZeb13-JNOz-1245" value="PK" style="shape=partialRectangle;connectable=0;fillColor=none;top=0;left=0;bottom=0;right=0;fontStyle=1;overflow=hidden;whiteSpace=wrap;html=1;labelBackgroundColor=none;strokeColor=#788AA3;fontColor=#46495D;" vertex="1" parent="zRi4qjUtURZeb13-JNOz-1244">
          <mxGeometry width="30" height="30" as="geometry">
            <mxRectangle width="30" height="30" as="alternateBounds" />
          </mxGeometry>
        </mxCell>
        <mxCell id="zRi4qjUtURZeb13-JNOz-1246" value="id" style="shape=partialRectangle;connectable=0;fillColor=none;top=0;left=0;bottom=0;right=0;align=left;spacingLeft=6;fontStyle=5;overflow=hidden;whiteSpace=wrap;html=1;labelBackgroundColor=none;strokeColor=#788AA3;fontColor=#46495D;" vertex="1" parent="zRi4qjUtURZeb13-JNOz-1244">
          <mxGeometry x="30" width="150.08" height="30" as="geometry">
            <mxRectangle width="150.08" height="30" as="alternateBounds" />
          </mxGeometry>
        </mxCell>
        <mxCell id="zRi4qjUtURZeb13-JNOz-1247" value="" style="shape=tableRow;horizontal=0;startSize=0;swimlaneHead=0;swimlaneBody=0;fillColor=none;collapsible=0;dropTarget=0;points=[[0,0.5],[1,0.5]];portConstraint=eastwest;top=0;left=0;right=0;bottom=0;labelBackgroundColor=none;strokeColor=#788AA3;fontColor=#46495D;" vertex="1" parent="zRi4qjUtURZeb13-JNOz-1243">
          <mxGeometry y="60" width="180.08" height="30" as="geometry" />
        </mxCell>
        <mxCell id="zRi4qjUtURZeb13-JNOz-1248" value="" style="shape=partialRectangle;connectable=0;fillColor=none;top=0;left=0;bottom=0;right=0;editable=1;overflow=hidden;whiteSpace=wrap;html=1;labelBackgroundColor=none;strokeColor=#788AA3;fontColor=#46495D;" vertex="1" parent="zRi4qjUtURZeb13-JNOz-1247">
          <mxGeometry width="30" height="30" as="geometry">
            <mxRectangle width="30" height="30" as="alternateBounds" />
          </mxGeometry>
        </mxCell>
        <mxCell id="zRi4qjUtURZeb13-JNOz-1249" value="category_name" style="shape=partialRectangle;connectable=0;fillColor=none;top=0;left=0;bottom=0;right=0;align=left;spacingLeft=6;overflow=hidden;whiteSpace=wrap;html=1;labelBackgroundColor=none;strokeColor=#788AA3;fontColor=#46495D;" vertex="1" parent="zRi4qjUtURZeb13-JNOz-1247">
          <mxGeometry x="30" width="150.08" height="30" as="geometry">
            <mxRectangle width="150.08" height="30" as="alternateBounds" />
          </mxGeometry>
        </mxCell>
        <mxCell id="zRi4qjUtURZeb13-JNOz-1250" value="book_category" style="shape=table;startSize=30;container=1;collapsible=1;childLayout=tableLayout;fixedRows=1;rowLines=0;fontStyle=1;align=center;resizeLast=1;html=1;labelBackgroundColor=none;fillColor=#B2C9AB;strokeColor=#788AA3;fontColor=#46495D;" vertex="1" parent="zRi4qjUtURZeb13-JNOz-1159">
          <mxGeometry x="20" y="274" width="180" height="120" as="geometry" />
        </mxCell>
        <mxCell id="zRi4qjUtURZeb13-JNOz-1251" value="" style="shape=tableRow;horizontal=0;startSize=0;swimlaneHead=0;swimlaneBody=0;fillColor=none;collapsible=0;dropTarget=0;points=[[0,0.5],[1,0.5]];portConstraint=eastwest;top=0;left=0;right=0;bottom=1;labelBackgroundColor=none;strokeColor=#788AA3;fontColor=#46495D;" vertex="1" parent="zRi4qjUtURZeb13-JNOz-1250">
          <mxGeometry y="30" width="180" height="30" as="geometry" />
        </mxCell>
        <mxCell id="zRi4qjUtURZeb13-JNOz-1252" value="PK" style="shape=partialRectangle;connectable=0;fillColor=none;top=0;left=0;bottom=0;right=0;fontStyle=1;overflow=hidden;whiteSpace=wrap;html=1;labelBackgroundColor=none;strokeColor=#788AA3;fontColor=#46495D;" vertex="1" parent="zRi4qjUtURZeb13-JNOz-1251">
          <mxGeometry width="30" height="30" as="geometry">
            <mxRectangle width="30" height="30" as="alternateBounds" />
          </mxGeometry>
        </mxCell>
        <mxCell id="zRi4qjUtURZeb13-JNOz-1253" value="id" style="shape=partialRectangle;connectable=0;fillColor=none;top=0;left=0;bottom=0;right=0;align=left;spacingLeft=6;fontStyle=5;overflow=hidden;whiteSpace=wrap;html=1;labelBackgroundColor=none;strokeColor=#788AA3;fontColor=#46495D;" vertex="1" parent="zRi4qjUtURZeb13-JNOz-1251">
          <mxGeometry x="30" width="150" height="30" as="geometry">
            <mxRectangle width="150" height="30" as="alternateBounds" />
          </mxGeometry>
        </mxCell>
        <mxCell id="zRi4qjUtURZeb13-JNOz-1254" value="" style="shape=tableRow;horizontal=0;startSize=0;swimlaneHead=0;swimlaneBody=0;fillColor=none;collapsible=0;dropTarget=0;points=[[0,0.5],[1,0.5]];portConstraint=eastwest;top=0;left=0;right=0;bottom=0;labelBackgroundColor=none;strokeColor=#788AA3;fontColor=#46495D;" vertex="1" parent="zRi4qjUtURZeb13-JNOz-1250">
          <mxGeometry y="60" width="180" height="30" as="geometry" />
        </mxCell>
        <mxCell id="zRi4qjUtURZeb13-JNOz-1255" value="FK" style="shape=partialRectangle;connectable=0;fillColor=none;top=0;left=0;bottom=0;right=0;editable=1;overflow=hidden;whiteSpace=wrap;html=1;labelBackgroundColor=none;strokeColor=#788AA3;fontColor=#46495D;" vertex="1" parent="zRi4qjUtURZeb13-JNOz-1254">
          <mxGeometry width="30" height="30" as="geometry">
            <mxRectangle width="30" height="30" as="alternateBounds" />
          </mxGeometry>
        </mxCell>
        <mxCell id="zRi4qjUtURZeb13-JNOz-1256" value="book_id" style="shape=partialRectangle;connectable=0;fillColor=none;top=0;left=0;bottom=0;right=0;align=left;spacingLeft=6;overflow=hidden;whiteSpace=wrap;html=1;labelBackgroundColor=none;strokeColor=#788AA3;fontColor=#46495D;" vertex="1" parent="zRi4qjUtURZeb13-JNOz-1254">
          <mxGeometry x="30" width="150" height="30" as="geometry">
            <mxRectangle width="150" height="30" as="alternateBounds" />
          </mxGeometry>
        </mxCell>
        <mxCell id="zRi4qjUtURZeb13-JNOz-1257" value="" style="shape=tableRow;horizontal=0;startSize=0;swimlaneHead=0;swimlaneBody=0;fillColor=none;collapsible=0;dropTarget=0;points=[[0,0.5],[1,0.5]];portConstraint=eastwest;top=0;left=0;right=0;bottom=0;labelBackgroundColor=none;strokeColor=#788AA3;fontColor=#46495D;" vertex="1" parent="zRi4qjUtURZeb13-JNOz-1250">
          <mxGeometry y="90" width="180" height="30" as="geometry" />
        </mxCell>
        <mxCell id="zRi4qjUtURZeb13-JNOz-1258" value="FK" style="shape=partialRectangle;connectable=0;fillColor=none;top=0;left=0;bottom=0;right=0;editable=1;overflow=hidden;whiteSpace=wrap;html=1;labelBackgroundColor=none;strokeColor=#788AA3;fontColor=#46495D;" vertex="1" parent="zRi4qjUtURZeb13-JNOz-1257">
          <mxGeometry width="30" height="30" as="geometry">
            <mxRectangle width="30" height="30" as="alternateBounds" />
          </mxGeometry>
        </mxCell>
        <mxCell id="zRi4qjUtURZeb13-JNOz-1259" value="category_id" style="shape=partialRectangle;connectable=0;fillColor=none;top=0;left=0;bottom=0;right=0;align=left;spacingLeft=6;overflow=hidden;whiteSpace=wrap;html=1;labelBackgroundColor=none;strokeColor=#788AA3;fontColor=#46495D;" vertex="1" parent="zRi4qjUtURZeb13-JNOz-1257">
          <mxGeometry x="30" width="150" height="30" as="geometry">
            <mxRectangle width="150" height="30" as="alternateBounds" />
          </mxGeometry>
        </mxCell>
        <mxCell id="zRi4qjUtURZeb13-JNOz-1260" style="edgeStyle=orthogonalEdgeStyle;rounded=0;orthogonalLoop=1;jettySize=auto;html=1;entryX=0;entryY=0.5;entryDx=0;entryDy=0;strokeColor=#788AA3;fontColor=#46495D;fillColor=#B2C9AB;exitX=1;exitY=0.5;exitDx=0;exitDy=0;" edge="1" parent="zRi4qjUtURZeb13-JNOz-1159" source="zRi4qjUtURZeb13-JNOz-1254" target="zRi4qjUtURZeb13-JNOz-1177">
          <mxGeometry relative="1" as="geometry">
            <Array as="points">
              <mxPoint x="240.07999999999998" y="349" />
              <mxPoint x="240.07999999999998" y="299" />
            </Array>
          </mxGeometry>
        </mxCell>
        <mxCell id="zRi4qjUtURZeb13-JNOz-1261" style="edgeStyle=orthogonalEdgeStyle;rounded=0;orthogonalLoop=1;jettySize=auto;html=1;strokeColor=#788AA3;fontColor=#46495D;fillColor=#B2C9AB;exitX=1;exitY=0.5;exitDx=0;exitDy=0;" edge="1" parent="zRi4qjUtURZeb13-JNOz-1159" source="zRi4qjUtURZeb13-JNOz-1257">
          <mxGeometry relative="1" as="geometry">
            <mxPoint x="200.07999999999998" y="504" as="targetPoint" />
            <Array as="points">
              <mxPoint x="240.07999999999998" y="379" />
              <mxPoint x="240.07999999999998" y="504" />
              <mxPoint x="200.07999999999998" y="504" />
            </Array>
          </mxGeometry>
        </mxCell>
      </root>
    </mxGraphModel>
  </diagram>
</mxfile>
